<?xml version="1.0" encoding="utf-8" standalone="no"?>
<!DOCTYPE svg PUBLIC "-//W3C//DTD SVG 1.1//EN"
  "http://www.w3.org/Graphics/SVG/1.1/DTD/svg11.dtd">
<svg xmlns:xlink="http://www.w3.org/1999/xlink" width="449.4625pt" height="291.44125pt" viewBox="0 0 449.4625 291.44125" xmlns="http://www.w3.org/2000/svg" version="1.1">
 <metadata>
  <rdf:RDF xmlns:dc="http://purl.org/dc/elements/1.1/" xmlns:cc="http://creativecommons.org/ns#" xmlns:rdf="http://www.w3.org/1999/02/22-rdf-syntax-ns#">
   <cc:Work>
    <dc:type rdf:resource="http://purl.org/dc/dcmitype/StillImage"/>
    <dc:date>2025-04-24T12:23:40.175434</dc:date>
    <dc:format>image/svg+xml</dc:format>
    <dc:creator>
     <cc:Agent>
      <dc:title>Matplotlib v3.7.2, https://matplotlib.org/</dc:title>
     </cc:Agent>
    </dc:creator>
   </cc:Work>
  </rdf:RDF>
 </metadata>
 <defs>
  <style type="text/css">*{stroke-linejoin: round; stroke-linecap: butt}</style>
 </defs>
 <g id="figure_1">
  <g id="patch_1">
   <path d="M 0 291.44125 
L 449.4625 291.44125 
L 449.4625 0 
L 0 0 
z
" style="fill: #ffffff"/>
  </g>
  <g id="axes_1">
   <g id="patch_2">
    <path d="M 41.2125 257.75625 
L 320.2125 257.75625 
L 320.2125 35.99625 
L 41.2125 35.99625 
z
" style="fill: #ffffff"/>
   </g>
   <g id="line2d_1">
    <path d="M 41.2125 202.31625 
L 320.2125 202.31625 
" clip-path="url(#p72a3999169)" style="fill: none; stroke-dasharray: 3.7,1.6; stroke-dashoffset: 0; stroke: #d3d3d3"/>
   </g>
   <g id="line2d_2">
    <path d="M 41.2125 146.87625 
L 320.2125 146.87625 
" clip-path="url(#p72a3999169)" style="fill: none; stroke-dasharray: 3.7,1.6; stroke-dashoffset: 0; stroke: #d3d3d3"/>
   </g>
   <g id="line2d_3">
    <path d="M 41.2125 91.43625 
L 320.2125 91.43625 
" clip-path="url(#p72a3999169)" style="fill: none; stroke-dasharray: 3.7,1.6; stroke-dashoffset: 0; stroke: #d3d3d3"/>
   </g>
   <g id="matplotlib.axis_1">
    <g id="xtick_1">
     <g id="line2d_4">
      <defs>
       <path id="m7886f702ee" d="M 0 0 
L 0 3.5 
" style="stroke: #000000; stroke-width: 0.8"/>
      </defs>
      <g>
       <use xlink:href="#m7886f702ee" x="68.969908" y="257.75625" style="stroke: #000000; stroke-width: 0.8"/>
      </g>
     </g>
     <g id="text_1">
      <!-- $\mathdefault{2^{-1}}$ -->
      <g transform="translate(62.129908 270.835) scale(0.08 -0.08)">
       <defs>
        <path id="DejaVuSans-32" d="M 1228 531 
L 3431 531 
L 3431 0 
L 469 0 
L 469 531 
Q 828 903 1448 1529 
Q 2069 2156 2228 2338 
Q 2531 2678 2651 2914 
Q 2772 3150 2772 3378 
Q 2772 3750 2511 3984 
Q 2250 4219 1831 4219 
Q 1534 4219 1204 4116 
Q 875 4013 500 3803 
L 500 4441 
Q 881 4594 1212 4672 
Q 1544 4750 1819 4750 
Q 2544 4750 2975 4387 
Q 3406 4025 3406 3419 
Q 3406 3131 3298 2873 
Q 3191 2616 2906 2266 
Q 2828 2175 2409 1742 
Q 1991 1309 1228 531 
z
" transform="scale(0.015625)"/>
        <path id="DejaVuSans-2212" d="M 678 2272 
L 4684 2272 
L 4684 1741 
L 678 1741 
L 678 2272 
z
" transform="scale(0.015625)"/>
        <path id="DejaVuSans-31" d="M 794 531 
L 1825 531 
L 1825 4091 
L 703 3866 
L 703 4441 
L 1819 4666 
L 2450 4666 
L 2450 531 
L 3481 531 
L 3481 0 
L 794 0 
L 794 531 
z
" transform="scale(0.015625)"/>
       </defs>
       <use xlink:href="#DejaVuSans-32" transform="translate(0 0.684375)"/>
       <use xlink:href="#DejaVuSans-2212" transform="translate(64.580078 38.965625) scale(0.7)"/>
       <use xlink:href="#DejaVuSans-31" transform="translate(123.232422 38.965625) scale(0.7)"/>
      </g>
     </g>
    </g>
    <g id="xtick_2">
     <g id="line2d_5">
      <g>
       <use xlink:href="#m7886f702ee" x="116.622841" y="257.75625" style="stroke: #000000; stroke-width: 0.8"/>
      </g>
     </g>
     <g id="text_2">
      <!-- $\mathdefault{2^{0}}$ -->
      <g transform="translate(112.142841 270.835) scale(0.08 -0.08)">
       <defs>
        <path id="DejaVuSans-30" d="M 2034 4250 
Q 1547 4250 1301 3770 
Q 1056 3291 1056 2328 
Q 1056 1369 1301 889 
Q 1547 409 2034 409 
Q 2525 409 2770 889 
Q 3016 1369 3016 2328 
Q 3016 3291 2770 3770 
Q 2525 4250 2034 4250 
z
M 2034 4750 
Q 2819 4750 3233 4129 
Q 3647 3509 3647 2328 
Q 3647 1150 3233 529 
Q 2819 -91 2034 -91 
Q 1250 -91 836 529 
Q 422 1150 422 2328 
Q 422 3509 836 4129 
Q 1250 4750 2034 4750 
z
" transform="scale(0.015625)"/>
       </defs>
       <use xlink:href="#DejaVuSans-32" transform="translate(0 0.765625)"/>
       <use xlink:href="#DejaVuSans-30" transform="translate(64.580078 39.046875) scale(0.7)"/>
      </g>
     </g>
    </g>
    <g id="xtick_3">
     <g id="line2d_6">
      <g>
       <use xlink:href="#m7886f702ee" x="164.275774" y="257.75625" style="stroke: #000000; stroke-width: 0.8"/>
      </g>
     </g>
     <g id="text_3">
      <!-- $\mathdefault{2^{1}}$ -->
      <g transform="translate(159.795774 270.835) scale(0.08 -0.08)">
       <use xlink:href="#DejaVuSans-32" transform="translate(0 0.684375)"/>
       <use xlink:href="#DejaVuSans-31" transform="translate(64.580078 38.965625) scale(0.7)"/>
      </g>
     </g>
    </g>
    <g id="xtick_4">
     <g id="line2d_7">
      <g>
       <use xlink:href="#m7886f702ee" x="211.928707" y="257.75625" style="stroke: #000000; stroke-width: 0.8"/>
      </g>
     </g>
     <g id="text_4">
      <!-- $\mathdefault{2^{2}}$ -->
      <g transform="translate(207.448707 270.835) scale(0.08 -0.08)">
       <use xlink:href="#DejaVuSans-32" transform="translate(0 0.765625)"/>
       <use xlink:href="#DejaVuSans-32" transform="translate(64.580078 39.046875) scale(0.7)"/>
      </g>
     </g>
    </g>
    <g id="xtick_5">
     <g id="line2d_8">
      <g>
       <use xlink:href="#m7886f702ee" x="259.581641" y="257.75625" style="stroke: #000000; stroke-width: 0.8"/>
      </g>
     </g>
     <g id="text_5">
      <!-- $\mathdefault{2^{3}}$ -->
      <g transform="translate(255.101641 270.835) scale(0.08 -0.08)">
       <defs>
        <path id="DejaVuSans-33" d="M 2597 2516 
Q 3050 2419 3304 2112 
Q 3559 1806 3559 1356 
Q 3559 666 3084 287 
Q 2609 -91 1734 -91 
Q 1441 -91 1130 -33 
Q 819 25 488 141 
L 488 750 
Q 750 597 1062 519 
Q 1375 441 1716 441 
Q 2309 441 2620 675 
Q 2931 909 2931 1356 
Q 2931 1769 2642 2001 
Q 2353 2234 1838 2234 
L 1294 2234 
L 1294 2753 
L 1863 2753 
Q 2328 2753 2575 2939 
Q 2822 3125 2822 3475 
Q 2822 3834 2567 4026 
Q 2313 4219 1838 4219 
Q 1578 4219 1281 4162 
Q 984 4106 628 3988 
L 628 4550 
Q 988 4650 1302 4700 
Q 1616 4750 1894 4750 
Q 2613 4750 3031 4423 
Q 3450 4097 3450 3541 
Q 3450 3153 3228 2886 
Q 3006 2619 2597 2516 
z
" transform="scale(0.015625)"/>
       </defs>
       <use xlink:href="#DejaVuSans-32" transform="translate(0 0.765625)"/>
       <use xlink:href="#DejaVuSans-33" transform="translate(64.580078 39.046875) scale(0.7)"/>
      </g>
     </g>
    </g>
    <g id="xtick_6">
     <g id="line2d_9">
      <g>
       <use xlink:href="#m7886f702ee" x="307.234574" y="257.75625" style="stroke: #000000; stroke-width: 0.8"/>
      </g>
     </g>
     <g id="text_6">
      <!-- $\mathdefault{2^{4}}$ -->
      <g transform="translate(302.754574 270.835) scale(0.08 -0.08)">
       <defs>
        <path id="DejaVuSans-34" d="M 2419 4116 
L 825 1625 
L 2419 1625 
L 2419 4116 
z
M 2253 4666 
L 3047 4666 
L 3047 1625 
L 3713 1625 
L 3713 1100 
L 3047 1100 
L 3047 0 
L 2419 0 
L 2419 1100 
L 313 1100 
L 313 1709 
L 2253 4666 
z
" transform="scale(0.015625)"/>
       </defs>
       <use xlink:href="#DejaVuSans-32" transform="translate(0 0.684375)"/>
       <use xlink:href="#DejaVuSans-34" transform="translate(64.580078 38.965625) scale(0.7)"/>
      </g>
     </g>
    </g>
    <g id="text_7">
     <!-- Ethionamide MIC (µg/mL) -->
     <g transform="translate(129.88375 282.5775) scale(0.08 -0.08)">
      <defs>
       <path id="DejaVuSans-45" d="M 628 4666 
L 3578 4666 
L 3578 4134 
L 1259 4134 
L 1259 2753 
L 3481 2753 
L 3481 2222 
L 1259 2222 
L 1259 531 
L 3634 531 
L 3634 0 
L 628 0 
L 628 4666 
z
" transform="scale(0.015625)"/>
       <path id="DejaVuSans-74" d="M 1172 4494 
L 1172 3500 
L 2356 3500 
L 2356 3053 
L 1172 3053 
L 1172 1153 
Q 1172 725 1289 603 
Q 1406 481 1766 481 
L 2356 481 
L 2356 0 
L 1766 0 
Q 1100 0 847 248 
Q 594 497 594 1153 
L 594 3053 
L 172 3053 
L 172 3500 
L 594 3500 
L 594 4494 
L 1172 4494 
z
" transform="scale(0.015625)"/>
       <path id="DejaVuSans-68" d="M 3513 2113 
L 3513 0 
L 2938 0 
L 2938 2094 
Q 2938 2591 2744 2837 
Q 2550 3084 2163 3084 
Q 1697 3084 1428 2787 
Q 1159 2491 1159 1978 
L 1159 0 
L 581 0 
L 581 4863 
L 1159 4863 
L 1159 2956 
Q 1366 3272 1645 3428 
Q 1925 3584 2291 3584 
Q 2894 3584 3203 3211 
Q 3513 2838 3513 2113 
z
" transform="scale(0.015625)"/>
       <path id="DejaVuSans-69" d="M 603 3500 
L 1178 3500 
L 1178 0 
L 603 0 
L 603 3500 
z
M 603 4863 
L 1178 4863 
L 1178 4134 
L 603 4134 
L 603 4863 
z
" transform="scale(0.015625)"/>
       <path id="DejaVuSans-6f" d="M 1959 3097 
Q 1497 3097 1228 2736 
Q 959 2375 959 1747 
Q 959 1119 1226 758 
Q 1494 397 1959 397 
Q 2419 397 2687 759 
Q 2956 1122 2956 1747 
Q 2956 2369 2687 2733 
Q 2419 3097 1959 3097 
z
M 1959 3584 
Q 2709 3584 3137 3096 
Q 3566 2609 3566 1747 
Q 3566 888 3137 398 
Q 2709 -91 1959 -91 
Q 1206 -91 779 398 
Q 353 888 353 1747 
Q 353 2609 779 3096 
Q 1206 3584 1959 3584 
z
" transform="scale(0.015625)"/>
       <path id="DejaVuSans-6e" d="M 3513 2113 
L 3513 0 
L 2938 0 
L 2938 2094 
Q 2938 2591 2744 2837 
Q 2550 3084 2163 3084 
Q 1697 3084 1428 2787 
Q 1159 2491 1159 1978 
L 1159 0 
L 581 0 
L 581 3500 
L 1159 3500 
L 1159 2956 
Q 1366 3272 1645 3428 
Q 1925 3584 2291 3584 
Q 2894 3584 3203 3211 
Q 3513 2838 3513 2113 
z
" transform="scale(0.015625)"/>
       <path id="DejaVuSans-61" d="M 2194 1759 
Q 1497 1759 1228 1600 
Q 959 1441 959 1056 
Q 959 750 1161 570 
Q 1363 391 1709 391 
Q 2188 391 2477 730 
Q 2766 1069 2766 1631 
L 2766 1759 
L 2194 1759 
z
M 3341 1997 
L 3341 0 
L 2766 0 
L 2766 531 
Q 2569 213 2275 61 
Q 1981 -91 1556 -91 
Q 1019 -91 701 211 
Q 384 513 384 1019 
Q 384 1609 779 1909 
Q 1175 2209 1959 2209 
L 2766 2209 
L 2766 2266 
Q 2766 2663 2505 2880 
Q 2244 3097 1772 3097 
Q 1472 3097 1187 3025 
Q 903 2953 641 2809 
L 641 3341 
Q 956 3463 1253 3523 
Q 1550 3584 1831 3584 
Q 2591 3584 2966 3190 
Q 3341 2797 3341 1997 
z
" transform="scale(0.015625)"/>
       <path id="DejaVuSans-6d" d="M 3328 2828 
Q 3544 3216 3844 3400 
Q 4144 3584 4550 3584 
Q 5097 3584 5394 3201 
Q 5691 2819 5691 2113 
L 5691 0 
L 5113 0 
L 5113 2094 
Q 5113 2597 4934 2840 
Q 4756 3084 4391 3084 
Q 3944 3084 3684 2787 
Q 3425 2491 3425 1978 
L 3425 0 
L 2847 0 
L 2847 2094 
Q 2847 2600 2669 2842 
Q 2491 3084 2119 3084 
Q 1678 3084 1418 2786 
Q 1159 2488 1159 1978 
L 1159 0 
L 581 0 
L 581 3500 
L 1159 3500 
L 1159 2956 
Q 1356 3278 1631 3431 
Q 1906 3584 2284 3584 
Q 2666 3584 2933 3390 
Q 3200 3197 3328 2828 
z
" transform="scale(0.015625)"/>
       <path id="DejaVuSans-64" d="M 2906 2969 
L 2906 4863 
L 3481 4863 
L 3481 0 
L 2906 0 
L 2906 525 
Q 2725 213 2448 61 
Q 2172 -91 1784 -91 
Q 1150 -91 751 415 
Q 353 922 353 1747 
Q 353 2572 751 3078 
Q 1150 3584 1784 3584 
Q 2172 3584 2448 3432 
Q 2725 3281 2906 2969 
z
M 947 1747 
Q 947 1113 1208 752 
Q 1469 391 1925 391 
Q 2381 391 2643 752 
Q 2906 1113 2906 1747 
Q 2906 2381 2643 2742 
Q 2381 3103 1925 3103 
Q 1469 3103 1208 2742 
Q 947 2381 947 1747 
z
" transform="scale(0.015625)"/>
       <path id="DejaVuSans-65" d="M 3597 1894 
L 3597 1613 
L 953 1613 
Q 991 1019 1311 708 
Q 1631 397 2203 397 
Q 2534 397 2845 478 
Q 3156 559 3463 722 
L 3463 178 
Q 3153 47 2828 -22 
Q 2503 -91 2169 -91 
Q 1331 -91 842 396 
Q 353 884 353 1716 
Q 353 2575 817 3079 
Q 1281 3584 2069 3584 
Q 2775 3584 3186 3129 
Q 3597 2675 3597 1894 
z
M 3022 2063 
Q 3016 2534 2758 2815 
Q 2500 3097 2075 3097 
Q 1594 3097 1305 2825 
Q 1016 2553 972 2059 
L 3022 2063 
z
" transform="scale(0.015625)"/>
       <path id="DejaVuSans-20" transform="scale(0.015625)"/>
       <path id="DejaVuSans-4d" d="M 628 4666 
L 1569 4666 
L 2759 1491 
L 3956 4666 
L 4897 4666 
L 4897 0 
L 4281 0 
L 4281 4097 
L 3078 897 
L 2444 897 
L 1241 4097 
L 1241 0 
L 628 0 
L 628 4666 
z
" transform="scale(0.015625)"/>
       <path id="DejaVuSans-49" d="M 628 4666 
L 1259 4666 
L 1259 0 
L 628 0 
L 628 4666 
z
" transform="scale(0.015625)"/>
       <path id="DejaVuSans-43" d="M 4122 4306 
L 4122 3641 
Q 3803 3938 3442 4084 
Q 3081 4231 2675 4231 
Q 1875 4231 1450 3742 
Q 1025 3253 1025 2328 
Q 1025 1406 1450 917 
Q 1875 428 2675 428 
Q 3081 428 3442 575 
Q 3803 722 4122 1019 
L 4122 359 
Q 3791 134 3420 21 
Q 3050 -91 2638 -91 
Q 1578 -91 968 557 
Q 359 1206 359 2328 
Q 359 3453 968 4101 
Q 1578 4750 2638 4750 
Q 3056 4750 3426 4639 
Q 3797 4528 4122 4306 
z
" transform="scale(0.015625)"/>
       <path id="DejaVuSans-28" d="M 1984 4856 
Q 1566 4138 1362 3434 
Q 1159 2731 1159 2009 
Q 1159 1288 1364 580 
Q 1569 -128 1984 -844 
L 1484 -844 
Q 1016 -109 783 600 
Q 550 1309 550 2009 
Q 550 2706 781 3412 
Q 1013 4119 1484 4856 
L 1984 4856 
z
" transform="scale(0.015625)"/>
       <path id="DejaVuSans-b5" d="M 544 -1331 
L 544 3500 
L 1119 3500 
L 1119 1325 
Q 1119 872 1334 640 
Q 1550 409 1972 409 
Q 2434 409 2667 671 
Q 2900 934 2900 1459 
L 2900 3500 
L 3475 3500 
L 3475 806 
Q 3475 619 3529 530 
Q 3584 441 3700 441 
Q 3728 441 3778 458 
Q 3828 475 3916 513 
L 3916 50 
Q 3788 -22 3673 -56 
Q 3559 -91 3450 -91 
Q 3234 -91 3106 31 
Q 2978 153 2931 403 
Q 2775 156 2548 32 
Q 2322 -91 2016 -91 
Q 1697 -91 1473 31 
Q 1250 153 1119 397 
L 1119 -1331 
L 544 -1331 
z
" transform="scale(0.015625)"/>
       <path id="DejaVuSans-67" d="M 2906 1791 
Q 2906 2416 2648 2759 
Q 2391 3103 1925 3103 
Q 1463 3103 1205 2759 
Q 947 2416 947 1791 
Q 947 1169 1205 825 
Q 1463 481 1925 481 
Q 2391 481 2648 825 
Q 2906 1169 2906 1791 
z
M 3481 434 
Q 3481 -459 3084 -895 
Q 2688 -1331 1869 -1331 
Q 1566 -1331 1297 -1286 
Q 1028 -1241 775 -1147 
L 775 -588 
Q 1028 -725 1275 -790 
Q 1522 -856 1778 -856 
Q 2344 -856 2625 -561 
Q 2906 -266 2906 331 
L 2906 616 
Q 2728 306 2450 153 
Q 2172 0 1784 0 
Q 1141 0 747 490 
Q 353 981 353 1791 
Q 353 2603 747 3093 
Q 1141 3584 1784 3584 
Q 2172 3584 2450 3431 
Q 2728 3278 2906 2969 
L 2906 3500 
L 3481 3500 
L 3481 434 
z
" transform="scale(0.015625)"/>
       <path id="DejaVuSans-2f" d="M 1625 4666 
L 2156 4666 
L 531 -594 
L 0 -594 
L 1625 4666 
z
" transform="scale(0.015625)"/>
       <path id="DejaVuSans-4c" d="M 628 4666 
L 1259 4666 
L 1259 531 
L 3531 531 
L 3531 0 
L 628 0 
L 628 4666 
z
" transform="scale(0.015625)"/>
       <path id="DejaVuSans-29" d="M 513 4856 
L 1013 4856 
Q 1481 4119 1714 3412 
Q 1947 2706 1947 2009 
Q 1947 1309 1714 600 
Q 1481 -109 1013 -844 
L 513 -844 
Q 928 -128 1133 580 
Q 1338 1288 1338 2009 
Q 1338 2731 1133 3434 
Q 928 4138 513 4856 
z
" transform="scale(0.015625)"/>
      </defs>
      <use xlink:href="#DejaVuSans-45"/>
      <use xlink:href="#DejaVuSans-74" x="63.183594"/>
      <use xlink:href="#DejaVuSans-68" x="102.392578"/>
      <use xlink:href="#DejaVuSans-69" x="165.771484"/>
      <use xlink:href="#DejaVuSans-6f" x="193.554688"/>
      <use xlink:href="#DejaVuSans-6e" x="254.736328"/>
      <use xlink:href="#DejaVuSans-61" x="318.115234"/>
      <use xlink:href="#DejaVuSans-6d" x="379.394531"/>
      <use xlink:href="#DejaVuSans-69" x="476.806641"/>
      <use xlink:href="#DejaVuSans-64" x="504.589844"/>
      <use xlink:href="#DejaVuSans-65" x="568.066406"/>
      <use xlink:href="#DejaVuSans-20" x="629.589844"/>
      <use xlink:href="#DejaVuSans-4d" x="661.376953"/>
      <use xlink:href="#DejaVuSans-49" x="747.65625"/>
      <use xlink:href="#DejaVuSans-43" x="777.148438"/>
      <use xlink:href="#DejaVuSans-20" x="846.972656"/>
      <use xlink:href="#DejaVuSans-28" x="878.759766"/>
      <use xlink:href="#DejaVuSans-b5" x="917.773438"/>
      <use xlink:href="#DejaVuSans-67" x="981.396484"/>
      <use xlink:href="#DejaVuSans-2f" x="1044.873047"/>
      <use xlink:href="#DejaVuSans-6d" x="1078.564453"/>
      <use xlink:href="#DejaVuSans-4c" x="1175.976562"/>
      <use xlink:href="#DejaVuSans-29" x="1231.689453"/>
     </g>
    </g>
   </g>
   <g id="matplotlib.axis_2">
    <g id="ytick_1">
     <g id="line2d_10">
      <defs>
       <path id="m517cb888b8" d="M 0 0 
L -3.5 0 
" style="stroke: #000000; stroke-width: 0.8"/>
      </defs>
      <g>
       <use xlink:href="#m517cb888b8" x="41.2125" y="202.31625" style="stroke: #000000; stroke-width: 0.8"/>
      </g>
     </g>
     <g id="text_8">
      <!-- 25 -->
      <g transform="translate(24.0325 205.355625) scale(0.08 -0.08)">
       <defs>
        <path id="DejaVuSans-35" d="M 691 4666 
L 3169 4666 
L 3169 4134 
L 1269 4134 
L 1269 2991 
Q 1406 3038 1543 3061 
Q 1681 3084 1819 3084 
Q 2600 3084 3056 2656 
Q 3513 2228 3513 1497 
Q 3513 744 3044 326 
Q 2575 -91 1722 -91 
Q 1428 -91 1123 -41 
Q 819 9 494 109 
L 494 744 
Q 775 591 1075 516 
Q 1375 441 1709 441 
Q 2250 441 2565 725 
Q 2881 1009 2881 1497 
Q 2881 1984 2565 2268 
Q 2250 2553 1709 2553 
Q 1456 2553 1204 2497 
Q 953 2441 691 2322 
L 691 4666 
z
" transform="scale(0.015625)"/>
       </defs>
       <use xlink:href="#DejaVuSans-32"/>
       <use xlink:href="#DejaVuSans-35" x="63.623047"/>
      </g>
     </g>
    </g>
    <g id="ytick_2">
     <g id="line2d_11">
      <g>
       <use xlink:href="#m517cb888b8" x="41.2125" y="146.87625" style="stroke: #000000; stroke-width: 0.8"/>
      </g>
     </g>
     <g id="text_9">
      <!-- 50 -->
      <g transform="translate(24.0325 149.915625) scale(0.08 -0.08)">
       <use xlink:href="#DejaVuSans-35"/>
       <use xlink:href="#DejaVuSans-30" x="63.623047"/>
      </g>
     </g>
    </g>
    <g id="ytick_3">
     <g id="line2d_12">
      <g>
       <use xlink:href="#m517cb888b8" x="41.2125" y="91.43625" style="stroke: #000000; stroke-width: 0.8"/>
      </g>
     </g>
     <g id="text_10">
      <!-- 75 -->
      <g transform="translate(24.0325 94.475625) scale(0.08 -0.08)">
       <defs>
        <path id="DejaVuSans-37" d="M 525 4666 
L 3525 4666 
L 3525 4397 
L 1831 0 
L 1172 0 
L 2766 4134 
L 525 4134 
L 525 4666 
z
" transform="scale(0.015625)"/>
       </defs>
       <use xlink:href="#DejaVuSans-37"/>
       <use xlink:href="#DejaVuSans-35" x="63.623047"/>
      </g>
     </g>
    </g>
    <g id="ytick_4">
     <g id="line2d_13">
      <g>
       <use xlink:href="#m517cb888b8" x="41.2125" y="35.99625" style="stroke: #000000; stroke-width: 0.8"/>
      </g>
     </g>
     <g id="text_11">
      <!-- 100 -->
      <g transform="translate(18.9425 39.035625) scale(0.08 -0.08)">
       <use xlink:href="#DejaVuSans-31"/>
       <use xlink:href="#DejaVuSans-30" x="63.623047"/>
       <use xlink:href="#DejaVuSans-30" x="127.246094"/>
      </g>
     </g>
    </g>
    <g id="text_12">
     <!-- Percentile -->
     <g transform="translate(13.27875 166.60625) rotate(-90) scale(0.08 -0.08)">
      <defs>
       <path id="DejaVuSans-50" d="M 1259 4147 
L 1259 2394 
L 2053 2394 
Q 2494 2394 2734 2622 
Q 2975 2850 2975 3272 
Q 2975 3691 2734 3919 
Q 2494 4147 2053 4147 
L 1259 4147 
z
M 628 4666 
L 2053 4666 
Q 2838 4666 3239 4311 
Q 3641 3956 3641 3272 
Q 3641 2581 3239 2228 
Q 2838 1875 2053 1875 
L 1259 1875 
L 1259 0 
L 628 0 
L 628 4666 
z
" transform="scale(0.015625)"/>
       <path id="DejaVuSans-72" d="M 2631 2963 
Q 2534 3019 2420 3045 
Q 2306 3072 2169 3072 
Q 1681 3072 1420 2755 
Q 1159 2438 1159 1844 
L 1159 0 
L 581 0 
L 581 3500 
L 1159 3500 
L 1159 2956 
Q 1341 3275 1631 3429 
Q 1922 3584 2338 3584 
Q 2397 3584 2469 3576 
Q 2541 3569 2628 3553 
L 2631 2963 
z
" transform="scale(0.015625)"/>
       <path id="DejaVuSans-63" d="M 3122 3366 
L 3122 2828 
Q 2878 2963 2633 3030 
Q 2388 3097 2138 3097 
Q 1578 3097 1268 2742 
Q 959 2388 959 1747 
Q 959 1106 1268 751 
Q 1578 397 2138 397 
Q 2388 397 2633 464 
Q 2878 531 3122 666 
L 3122 134 
Q 2881 22 2623 -34 
Q 2366 -91 2075 -91 
Q 1284 -91 818 406 
Q 353 903 353 1747 
Q 353 2603 823 3093 
Q 1294 3584 2113 3584 
Q 2378 3584 2631 3529 
Q 2884 3475 3122 3366 
z
" transform="scale(0.015625)"/>
       <path id="DejaVuSans-6c" d="M 603 4863 
L 1178 4863 
L 1178 0 
L 603 0 
L 603 4863 
z
" transform="scale(0.015625)"/>
      </defs>
      <use xlink:href="#DejaVuSans-50"/>
      <use xlink:href="#DejaVuSans-65" x="56.677734"/>
      <use xlink:href="#DejaVuSans-72" x="118.201172"/>
      <use xlink:href="#DejaVuSans-63" x="157.064453"/>
      <use xlink:href="#DejaVuSans-65" x="212.044922"/>
      <use xlink:href="#DejaVuSans-6e" x="273.568359"/>
      <use xlink:href="#DejaVuSans-74" x="336.947266"/>
      <use xlink:href="#DejaVuSans-69" x="376.15625"/>
      <use xlink:href="#DejaVuSans-6c" x="403.939453"/>
      <use xlink:href="#DejaVuSans-65" x="431.722656"/>
     </g>
    </g>
   </g>
   <g id="patch_3">
    <path d="M 41.2125 257.75625 
L 41.2125 35.99625 
" style="fill: none; stroke: #000000; stroke-width: 0.8; stroke-linejoin: miter; stroke-linecap: square"/>
   </g>
   <g id="patch_4">
    <path d="M 41.2125 257.75625 
L 320.2125 257.75625 
" style="fill: none; stroke: #000000; stroke-width: 0.8; stroke-linejoin: miter; stroke-linecap: square"/>
   </g>
   <g id="line2d_14">
    <path d="M 116.784862 257.75625 
L 116.784862 146.87625 
L 119.392285 146.87625 
L 119.392285 35.99625 
" clip-path="url(#p72a3999169)" style="fill: none; stroke: #cc78bc; stroke-width: 1.5; stroke-linecap: square"/>
   </g>
   <g id="line2d_15">
    <path d="M 56.737829 257.75625 
L 56.737829 256.946907 
L 65.099181 256.946907 
L 65.099181 256.137564 
L 79.475425 256.137564 
L 79.475425 255.328221 
L 81.63503 255.328221 
L 81.63503 254.518878 
L 84.186095 254.518878 
L 84.186095 253.709535 
L 84.967903 253.709535 
L 84.967903 252.900192 
L 87.392835 252.900192 
L 87.392835 252.090849 
L 95.940525 252.090849 
L 95.940525 251.281505 
L 101.90404 251.281505 
L 101.90404 250.472162 
L 112.195921 250.472162 
L 112.195921 249.662819 
L 113.006052 249.662819 
L 113.056179 248.044133 
L 113.895969 248.044133 
L 113.895969 247.23479 
L 114.31317 247.23479 
L 114.31317 246.425447 
L 114.478635 246.425447 
L 114.478635 245.616104 
L 114.770008 245.616104 
L 114.876571 243.997418 
L 114.939127 243.997418 
L 114.939127 243.188075 
L 115.160704 243.188075 
L 115.160704 242.378732 
L 115.275985 242.378732 
L 115.331374 240.760046 
L 115.483995 240.760046 
L 115.483995 239.950703 
L 115.621015 239.950703 
L 115.727274 237.522673 
L 115.755553 237.522673 
L 115.861283 235.094644 
L 115.953355 235.094644 
L 116.042989 232.666615 
L 116.065248 232.666615 
L 116.175316 229.429243 
L 116.178585 229.429243 
L 116.288935 227.001214 
L 116.33315 227.001214 
L 116.433673 217.289097 
L 116.455072 217.289097 
L 116.563398 209.195666 
L 116.570531 209.195666 
L 116.681397 197.864863 
L 116.681788 197.864863 
L 116.791549 144.448221 
L 116.793881 144.448221 
L 116.891145 116.121214 
L 116.91263 116.121214 
L 117.012967 92.650265 
L 117.024026 92.650265 
L 117.114986 82.938148 
L 117.148759 82.938148 
L 117.253813 76.463403 
L 117.269561 76.463403 
L 117.366943 74.035374 
L 117.388559 74.035374 
L 117.475718 69.179316 
L 117.522106 69.179316 
L 117.632039 65.1326 
L 117.64472 65.1326 
L 117.669445 63.513914 
L 117.764194 63.513914 
L 117.855389 57.848513 
L 117.975543 57.848513 
L 118.03873 56.229827 
L 118.137256 56.229827 
L 118.169045 54.611141 
L 118.442863 54.611141 
L 118.518023 52.992454 
L 118.5928 52.992454 
L 118.67192 51.373768 
L 118.717755 51.373768 
L 118.717755 50.564425 
L 118.921969 50.564425 
L 118.921969 49.755082 
L 119.450179 49.755082 
L 119.450179 48.945739 
L 119.677791 48.945739 
L 119.765427 47.327053 
L 120.060803 47.327053 
L 120.060803 46.51771 
L 120.485532 46.51771 
L 120.485532 45.708367 
L 120.975812 45.708367 
L 120.975812 44.899024 
L 121.919518 44.899024 
L 121.919518 44.089681 
L 122.159255 44.089681 
L 122.159255 43.280338 
L 124.70638 43.280338 
L 124.70638 42.470995 
L 125.944671 42.470995 
L 125.944671 41.661651 
L 132.576942 41.661651 
L 132.576942 40.852308 
L 132.904065 40.852308 
L 132.904065 40.042965 
L 134.624451 40.042965 
L 134.624451 39.233622 
L 138.840084 39.233622 
L 138.840084 38.424279 
L 145.890066 38.424279 
L 145.890066 37.614936 
L 163.469389 37.614936 
L 163.469389 36.805593 
L 165.242851 36.805593 
L 165.242851 35.99625 
L 165.242851 35.99625 
" clip-path="url(#p72a3999169)" style="fill: none; stroke: #d55e00; stroke-width: 1.5; stroke-linecap: square"/>
   </g>
   <g id="line2d_16">
    <path d="M 34.660054 257.75625 
L 34.660054 257.528336 
L 45.48682 257.528336 
L 45.48682 257.300423 
L 53.238611 257.300423 
L 53.238611 257.072509 
L 55.896143 257.072509 
L 55.896143 256.844595 
L 57.508134 256.844595 
L 57.508134 256.616682 
L 67.087822 256.616682 
L 67.087822 256.388768 
L 67.962169 256.388768 
L 67.962169 256.160854 
L 73.912387 256.160854 
L 73.912387 255.932941 
L 79.563383 255.932941 
L 79.563383 255.705027 
L 85.602602 255.705027 
L 85.602602 255.477113 
L 91.822683 255.477113 
L 91.822683 255.2492 
L 94.74723 255.2492 
L 94.74723 255.021286 
L 100.334335 255.021286 
L 100.334335 254.793372 
L 101.042688 254.793372 
L 101.042688 254.565459 
L 104.290474 254.565459 
L 104.290474 254.337545 
L 106.566239 254.337545 
L 106.566239 254.109631 
L 106.721924 254.109631 
L 106.721924 253.881718 
L 108.4217 253.881718 
L 108.4217 253.653804 
L 109.161452 253.653804 
L 109.161452 253.42589 
L 110.956206 253.42589 
L 110.956206 253.197977 
L 111.709943 253.197977 
L 111.709943 252.970063 
L 112.262662 252.970063 
L 112.276139 252.514236 
L 112.65496 252.514236 
L 112.65496 252.286322 
L 112.820795 252.286322 
L 112.914107 251.830495 
L 113.292579 251.830495 
L 113.292579 251.602581 
L 113.449132 251.602581 
L 113.558103 250.91884 
L 113.582506 250.91884 
L 113.678103 250.235099 
L 113.864649 250.235099 
L 113.864649 250.007185 
L 113.984534 250.007185 
L 113.984534 249.779272 
L 114.153556 249.779272 
L 114.153556 249.551358 
L 114.270543 249.551358 
L 114.270543 249.323444 
L 114.47288 249.323444 
L 114.47288 249.095531 
L 114.710243 249.095531 
L 114.820409 247.955962 
L 114.872312 247.955962 
L 114.960052 247.500135 
L 115.040955 247.500135 
L 115.150553 246.132653 
L 115.195233 246.132653 
L 115.296412 244.537257 
L 115.345423 244.537257 
L 115.443464 243.625603 
L 115.490653 243.625603 
L 115.590038 242.486034 
L 115.607218 242.486034 
L 115.660894 241.118552 
L 115.758227 241.118552 
L 115.861821 238.611502 
L 115.883982 238.611502 
L 115.963719 236.788192 
L 116.024333 236.788192 
L 116.133171 235.192797 
L 116.193183 235.192797 
L 116.296129 233.141574 
L 116.313644 233.141574 
L 116.406334 229.722869 
L 116.429799 229.722869 
L 116.539942 226.759991 
L 116.542496 226.759991 
L 116.651407 216.503876 
L 116.654046 216.503876 
L 116.76512 195.763732 
L 116.765422 195.763732 
L 116.876399 165.907041 
L 116.879783 165.907041 
L 116.985946 152.688049 
L 116.99223 152.688049 
L 117.098534 144.483156 
L 117.105566 144.483156 
L 117.216173 139.013228 
L 117.217304 139.013228 
L 117.323839 133.771214 
L 117.342782 133.771214 
L 117.445115 129.896682 
L 117.459318 129.896682 
L 117.566408 127.161718 
L 117.570856 127.161718 
L 117.671327 123.515099 
L 117.691935 123.515099 
L 117.798697 120.096394 
L 117.804157 120.096394 
L 117.902986 118.045171 
L 117.918673 118.045171 
L 118.026007 116.221862 
L 118.053383 116.221862 
L 118.144209 114.170638 
L 118.16524 114.170638 
L 118.244901 112.119415 
L 118.310182 112.119415 
L 118.393159 110.979847 
L 118.42846 110.979847 
L 118.50096 109.840279 
L 118.542683 109.840279 
L 118.636885 108.928624 
L 118.654768 108.928624 
L 118.750883 108.016969 
L 118.829875 108.016969 
L 118.903895 106.877401 
L 119.081646 106.877401 
L 119.179696 105.509919 
L 119.207239 105.509919 
L 119.31233 104.598264 
L 119.348193 104.598264 
L 119.437345 103.68661 
L 119.492076 103.68661 
L 119.587357 103.230782 
L 119.630486 103.230782 
L 119.741451 102.319128 
L 119.747153 102.319128 
L 119.747153 102.091214 
L 119.864186 102.091214 
L 119.960807 101.179559 
L 120.201136 101.179559 
L 120.309978 100.267905 
L 120.376824 100.267905 
L 120.46425 99.584164 
L 120.658001 99.584164 
L 120.737565 98.900423 
L 120.907039 98.900423 
L 121.015132 98.444595 
L 121.042859 98.444595 
L 121.042859 98.216682 
L 121.332725 98.216682 
L 121.332725 97.988768 
L 121.539454 97.988768 
L 121.539454 97.760854 
L 121.660194 97.760854 
L 121.666416 97.077113 
L 121.967577 97.077113 
L 122.069069 96.393372 
L 122.287503 96.393372 
L 122.338842 95.709631 
L 122.535885 95.709631 
L 122.6186 95.253804 
L 122.791821 95.253804 
L 122.791821 95.02589 
L 122.911537 95.02589 
L 122.911537 94.797977 
L 123.046569 94.797977 
L 123.091231 94.342149 
L 123.195603 94.342149 
L 123.298948 93.658408 
L 123.332186 93.658408 
L 123.332186 93.430495 
L 123.506762 93.430495 
L 123.509212 92.974667 
L 124.017775 92.974667 
L 124.017775 92.746754 
L 124.292537 92.746754 
L 124.355906 92.290926 
L 124.548265 92.290926 
L 124.656914 91.835099 
L 124.73504 91.835099 
L 124.838906 91.151358 
L 124.900822 91.151358 
L 124.957914 90.695531 
L 125.016924 90.695531 
L 125.038455 90.239703 
L 125.165097 90.239703 
L 125.165097 90.01179 
L 125.509384 90.01179 
L 125.561682 89.555962 
L 125.799212 89.555962 
L 125.799212 89.328049 
L 125.947895 89.328049 
L 126.057719 88.644308 
L 126.215442 88.644308 
L 126.215442 88.416394 
L 126.797493 88.416394 
L 126.846006 87.960567 
L 126.917867 87.960567 
L 126.955855 87.276826 
L 127.182587 87.276826 
L 127.189014 86.820998 
L 127.558612 86.820998 
L 127.558612 86.593085 
L 127.746858 86.593085 
L 127.798586 86.137257 
L 128.038366 86.137257 
L 128.121033 85.68143 
L 128.184288 85.68143 
L 128.184288 85.453516 
L 128.73998 85.453516 
L 128.73998 85.225603 
L 129.259281 85.225603 
L 129.259281 84.997689 
L 129.422586 84.997689 
L 129.422586 84.769775 
L 129.58531 84.769775 
L 129.692799 84.086034 
L 129.975333 84.086034 
L 130.02445 83.402293 
L 130.472977 83.402293 
L 130.472977 83.174379 
L 130.676653 83.174379 
L 130.676653 82.946466 
L 130.799877 82.946466 
L 130.799877 82.718552 
L 131.209946 82.718552 
L 131.209946 82.490638 
L 131.790056 82.490638 
L 131.790056 82.262725 
L 132.786917 82.262725 
L 132.854222 81.806897 
L 133.180404 81.806897 
L 133.180404 81.578984 
L 133.972721 81.578984 
L 134.026915 81.123156 
L 134.456726 81.123156 
L 134.456726 80.895243 
L 134.842131 80.895243 
L 134.930425 80.439415 
L 134.979097 80.439415 
L 134.979097 80.211502 
L 135.131217 80.211502 
L 135.131217 79.983588 
L 135.849545 79.983588 
L 135.849545 79.755674 
L 136.102764 79.755674 
L 136.102764 79.527761 
L 136.323104 79.527761 
L 136.393127 79.071933 
L 136.586032 79.071933 
L 136.586032 78.84402 
L 136.792512 78.84402 
L 136.792512 78.616106 
L 137.084505 78.616106 
L 137.084505 78.388192 
L 137.260605 78.388192 
L 137.260605 78.160279 
L 138.09553 78.160279 
L 138.194521 77.476538 
L 138.237145 77.476538 
L 138.237145 77.248624 
L 138.921679 77.248624 
L 138.921679 77.02071 
L 139.407602 77.02071 
L 139.407602 76.792797 
L 140.724649 76.792797 
L 140.724649 76.564883 
L 140.845859 76.564883 
L 140.845859 76.336969 
L 141.041792 76.336969 
L 141.152639 75.881142 
L 141.587942 75.881142 
L 141.587942 75.653228 
L 142.514051 75.653228 
L 142.618256 74.969487 
L 143.206922 74.969487 
L 143.241892 74.51366 
L 143.66704 74.51366 
L 143.66704 74.285746 
L 144.19147 74.285746 
L 144.299233 73.829919 
L 145.465432 73.829919 
L 145.552828 73.374092 
L 146.976748 73.374092 
L 146.976748 73.146178 
L 147.829891 73.146178 
L 147.829891 72.918264 
L 149.108765 72.918264 
L 149.108765 72.690351 
L 150.712054 72.690351 
L 150.712054 72.462437 
L 150.903366 72.462437 
L 150.903366 72.234523 
L 151.281892 72.234523 
L 151.281892 72.00661 
L 152.627019 72.00661 
L 152.734626 71.550782 
L 152.797052 71.550782 
L 152.797052 71.322869 
L 153.42445 71.322869 
L 153.42445 71.094955 
L 153.632012 71.094955 
L 153.632012 70.867041 
L 154.115479 70.867041 
L 154.115479 70.639128 
L 154.485021 70.639128 
L 154.55634 70.1833 
L 155.161728 70.1833 
L 155.254685 69.727473 
L 155.361579 69.727473 
L 155.441384 69.271646 
L 155.878068 69.271646 
L 155.878068 69.043732 
L 156.432333 69.043732 
L 156.432333 68.815818 
L 157.62144 68.815818 
L 157.671884 68.132077 
L 157.932531 68.132077 
L 157.932531 67.904164 
L 158.1669 67.904164 
L 158.27562 67.448336 
L 159.645888 67.448336 
L 159.645888 67.220423 
L 159.788995 67.220423 
L 159.788995 66.992509 
L 159.955666 66.992509 
L 159.955666 66.764595 
L 160.162218 66.764595 
L 160.176635 66.308768 
L 160.678252 66.308768 
L 160.678252 66.080854 
L 160.86707 66.080854 
L 160.86707 65.852941 
L 161.534186 65.852941 
L 161.534186 65.625027 
L 161.896595 65.625027 
L 161.896595 65.397113 
L 162.043449 65.397113 
L 162.043449 65.1692 
L 162.220605 65.1692 
L 162.220605 64.941286 
L 162.441135 64.941286 
L 162.441135 64.713372 
L 162.710583 64.713372 
L 162.710583 64.485459 
L 163.028377 64.485459 
L 163.086207 63.801718 
L 163.270285 63.801718 
L 163.270285 63.573804 
L 163.8093 63.573804 
L 163.8093 63.34589 
L 165.718207 63.34589 
L 165.718207 63.117977 
L 165.852942 63.117977 
L 165.852942 62.890063 
L 166.115785 62.890063 
L 166.115785 62.662149 
L 166.326221 62.662149 
L 166.334852 62.206322 
L 166.493373 62.206322 
L 166.542139 61.750495 
L 166.727852 61.750495 
L 166.727852 61.522581 
L 166.940818 61.522581 
L 166.940818 61.294667 
L 168.75793 61.294667 
L 168.75793 61.066754 
L 169.692491 61.066754 
L 169.695017 60.610926 
L 170.200217 60.610926 
L 170.200217 60.383013 
L 171.257742 60.383013 
L 171.257742 60.155099 
L 171.643137 60.155099 
L 171.643137 59.927185 
L 172.032576 59.927185 
L 172.140052 59.471358 
L 172.153997 59.471358 
L 172.153997 59.243444 
L 173.679561 59.243444 
L 173.679561 59.015531 
L 173.970594 59.015531 
L 173.970594 58.787617 
L 174.283176 58.787617 
L 174.283176 58.559703 
L 175.328248 58.559703 
L 175.328248 58.33179 
L 175.665423 58.33179 
L 175.725347 57.875962 
L 175.79147 57.875962 
L 175.79147 57.648049 
L 177.102545 57.648049 
L 177.102545 57.420135 
L 178.017679 57.420135 
L 178.074799 56.964308 
L 179.307801 56.964308 
L 179.307801 56.736394 
L 179.555604 56.736394 
L 179.555604 56.50848 
L 179.945049 56.50848 
L 179.945049 56.280567 
L 181.339337 56.280567 
L 181.339337 56.052653 
L 181.871856 56.052653 
L 181.871856 55.824739 
L 182.039084 55.824739 
L 182.061598 55.368912 
L 182.310451 55.368912 
L 182.334468 54.913085 
L 183.74708 54.913085 
L 183.74708 54.685171 
L 183.863761 54.685171 
L 183.968072 54.229344 
L 186.329453 54.229344 
L 186.329453 54.00143 
L 186.617439 54.00143 
L 186.617439 53.773516 
L 186.998888 53.773516 
L 186.998888 53.545603 
L 188.483983 53.545603 
L 188.483983 53.317689 
L 188.673084 53.317689 
L 188.679699 52.861862 
L 188.904311 52.861862 
L 188.904311 52.633948 
L 190.009256 52.633948 
L 190.009256 52.406034 
L 190.185748 52.406034 
L 190.185748 52.178121 
L 190.333106 52.178121 
L 190.333106 51.950207 
L 190.507179 51.950207 
L 190.507179 51.722293 
L 190.62391 51.722293 
L 190.665673 51.266466 
L 190.9561 51.266466 
L 191.004691 50.810638 
L 192.542414 50.810638 
L 192.542414 50.582725 
L 193.027422 50.582725 
L 193.027422 50.354811 
L 194.614001 50.354811 
L 194.614001 50.126897 
L 195.781483 50.126897 
L 195.864422 49.67107 
L 196.886075 49.67107 
L 196.886075 49.443156 
L 197.805405 49.443156 
L 197.805405 49.215243 
L 198.799283 49.215243 
L 198.799283 48.987329 
L 199.209995 48.987329 
L 199.209995 48.759415 
L 199.709892 48.759415 
L 199.709892 48.531502 
L 202.566691 48.531502 
L 202.566691 48.303588 
L 203.091731 48.303588 
L 203.091731 48.075674 
L 205.509912 48.075674 
L 205.509912 47.847761 
L 205.749138 47.847761 
L 205.850702 47.391933 
L 206.057964 47.391933 
L 206.057964 47.16402 
L 206.359393 47.16402 
L 206.359393 46.936106 
L 207.337164 46.936106 
L 207.337164 46.708192 
L 208.381404 46.708192 
L 208.381404 46.480279 
L 211.013481 46.480279 
L 211.013481 46.252365 
L 211.650849 46.252365 
L 211.650849 46.024451 
L 211.785423 46.024451 
L 211.868309 45.568624 
L 212.573067 45.568624 
L 212.573067 45.34071 
L 213.283039 45.34071 
L 213.283039 45.112797 
L 214.199755 45.112797 
L 214.199755 44.884883 
L 214.560795 44.884883 
L 214.560795 44.656969 
L 214.806774 44.656969 
L 214.806774 44.429056 
L 215.860428 44.429056 
L 215.860428 44.201142 
L 216.511429 44.201142 
L 216.511429 43.973228 
L 222.042249 43.973228 
L 222.042249 43.745315 
L 222.274178 43.745315 
L 222.274178 43.517401 
L 222.7065 43.517401 
L 222.7065 43.289487 
L 223.262981 43.289487 
L 223.262981 43.061574 
L 224.26205 43.061574 
L 224.26205 42.83366 
L 224.666557 42.83366 
L 224.666557 42.605746 
L 224.834751 42.605746 
L 224.834751 42.377833 
L 227.320944 42.377833 
L 227.320944 42.149919 
L 228.418985 42.149919 
L 228.418985 41.922005 
L 229.313646 41.922005 
L 229.313646 41.694092 
L 230.210563 41.694092 
L 230.210563 41.466178 
L 232.589075 41.466178 
L 232.589075 41.238264 
L 232.801347 41.238264 
L 232.801347 41.010351 
L 232.924803 41.010351 
L 232.924803 40.782437 
L 233.88068 40.782437 
L 233.88068 40.554523 
L 235.876535 40.554523 
L 235.876535 40.32661 
L 236.430254 40.32661 
L 236.430254 40.098696 
L 237.348195 40.098696 
L 237.348195 39.870782 
L 237.655031 39.870782 
L 237.655031 39.642869 
L 238.114752 39.642869 
L 238.114752 39.414955 
L 238.402653 39.414955 
L 238.402653 39.187041 
L 238.704782 39.187041 
L 238.704782 38.959128 
L 241.11245 38.959128 
L 241.11245 38.731214 
L 241.894878 38.731214 
L 241.894878 38.5033 
L 242.267982 38.5033 
L 242.267982 38.275387 
L 244.561909 38.275387 
L 244.561909 38.047473 
L 250.255179 38.047473 
L 250.255179 37.819559 
L 251.550877 37.819559 
L 251.550877 37.591646 
L 253.279786 37.591646 
L 253.312451 37.135818 
L 267.568995 37.135818 
L 267.568995 36.907905 
L 267.702665 36.907905 
L 267.702665 36.679991 
L 279.496961 36.679991 
L 279.496961 36.452077 
L 286.827146 36.452077 
L 286.827146 36.224164 
L 300.836389 36.224164 
L 300.836389 35.99625 
L 300.836389 35.99625 
" clip-path="url(#p72a3999169)" style="fill: none; stroke: #029e73; stroke-width: 1.5; stroke-linecap: square"/>
   </g>
   <g id="line2d_17">
    <path d="M 94.045714 257.75625 
L 94.045714 254.949161 
L 109.586134 254.949161 
L 109.586134 252.142073 
L 116.683938 252.142073 
L 116.767117 246.527896 
L 118.411863 246.527896 
L 118.411863 243.720807 
L 127.861228 243.720807 
L 127.861228 240.913718 
L 133.327144 240.913718 
L 133.327144 238.10663 
L 133.561109 238.10663 
L 133.561109 235.299541 
L 133.810297 235.299541 
L 133.810297 232.492453 
L 134.62725 232.492453 
L 134.62725 229.685364 
L 135.826931 229.685364 
L 135.826931 226.878275 
L 137.246804 226.878275 
L 137.246804 224.071187 
L 140.811016 224.071187 
L 140.811016 221.264098 
L 141.949307 221.264098 
L 141.949307 218.457009 
L 142.588542 218.457009 
L 142.588542 215.649921 
L 144.381856 215.649921 
L 144.381856 212.842832 
L 146.005689 212.842832 
L 146.005689 210.035744 
L 146.899192 210.035744 
L 146.899192 207.228655 
L 148.708292 207.228655 
L 148.708292 204.421566 
L 148.859437 204.421566 
L 148.859437 201.614478 
L 149.040713 201.614478 
L 149.040713 198.807389 
L 151.411953 198.807389 
L 151.411953 196.000301 
L 152.506399 196.000301 
L 152.506399 193.193212 
L 155.50693 193.193212 
L 155.50693 190.386123 
L 157.630864 190.386123 
L 157.630864 187.579035 
L 157.896642 187.579035 
L 157.896642 184.771946 
L 159.07003 184.771946 
L 159.07003 181.964858 
L 160.222421 181.964858 
L 160.222421 179.157769 
L 161.841075 179.157769 
L 161.841075 176.35068 
L 162.221062 176.35068 
L 162.221062 173.543592 
L 163.773883 173.543592 
L 163.773883 170.736503 
L 163.998416 170.736503 
L 163.998416 167.929415 
L 166.475877 167.929415 
L 166.475877 165.122326 
L 168.097908 165.122326 
L 168.097908 162.315237 
L 170.467495 162.315237 
L 170.467495 159.508149 
L 170.736392 159.508149 
L 170.736392 156.70106 
L 172.47165 156.70106 
L 172.47165 153.893972 
L 173.636232 153.893972 
L 173.636232 151.086883 
L 173.979006 151.086883 
L 173.979006 148.279794 
L 174.445582 148.279794 
L 174.445582 145.472706 
L 174.785543 145.472706 
L 174.785543 142.665617 
L 175.474825 142.665617 
L 175.474825 139.858528 
L 176.194261 139.858528 
L 176.194261 137.05144 
L 176.309026 137.05144 
L 176.309026 134.244351 
L 177.263447 134.244351 
L 177.304333 128.630174 
L 177.974686 128.630174 
L 177.974686 125.823085 
L 182.834386 125.823085 
L 182.834386 123.015997 
L 185.114977 123.015997 
L 185.173274 117.40182 
L 185.279268 117.40182 
L 185.279268 114.594731 
L 185.958042 114.594731 
L 185.958042 111.787642 
L 187.72482 111.787642 
L 187.72482 108.980554 
L 188.699308 108.980554 
L 188.699308 106.173465 
L 189.666566 106.173465 
L 189.666566 103.366377 
L 190.85398 103.366377 
L 190.85398 100.559288 
L 191.320233 100.559288 
L 191.320233 97.752199 
L 191.521921 97.752199 
L 191.521921 94.945111 
L 194.43707 94.945111 
L 194.510452 89.330934 
L 194.756949 89.330934 
L 194.756949 86.523845 
L 196.701559 86.523845 
L 196.701559 83.716756 
L 196.976469 83.716756 
L 196.976469 80.909668 
L 198.575324 80.909668 
L 198.575324 78.102579 
L 212.243576 78.102579 
L 212.243576 75.295491 
L 213.040725 75.295491 
L 213.040725 72.488402 
L 220.811445 72.488402 
L 220.866486 66.874225 
L 225.194544 66.874225 
L 225.194544 64.067136 
L 228.968338 64.067136 
L 228.968338 61.260047 
L 230.61393 61.260047 
L 230.61393 58.452959 
L 232.399433 58.452959 
L 232.399433 55.64587 
L 235.969893 55.64587 
L 235.969893 52.838782 
L 239.914437 52.838782 
L 239.914437 50.031693 
L 240.253462 50.031693 
L 240.253462 47.224604 
L 247.76456 47.224604 
L 247.76456 44.417516 
L 250.257216 44.417516 
L 250.257216 41.610427 
L 281.917487 41.610427 
L 281.917487 38.803339 
L 313.660054 38.803339 
L 313.660054 35.99625 
L 313.660054 35.99625 
" clip-path="url(#p72a3999169)" style="fill: none; stroke: #de8f05; stroke-width: 1.5; stroke-linecap: square"/>
   </g>
   <g id="line2d_18">
    <path d="M 154.629724 257.75625 
L 154.629724 183.83625 
L 178.497126 183.83625 
L 178.497126 109.91625 
L 212.234833 109.91625 
L 212.234833 35.99625 
" clip-path="url(#p72a3999169)" style="fill: none; stroke: #0173b2; stroke-width: 1.5; stroke-linecap: square"/>
   </g>
   <g id="text_13">
    <!-- Predicted MICs of 1331 WHO Catalog Mutations -->
    <g transform="translate(61.746875 14.798437) scale(0.1 -0.1)">
     <defs>
      <path id="DejaVuSans-73" d="M 2834 3397 
L 2834 2853 
Q 2591 2978 2328 3040 
Q 2066 3103 1784 3103 
Q 1356 3103 1142 2972 
Q 928 2841 928 2578 
Q 928 2378 1081 2264 
Q 1234 2150 1697 2047 
L 1894 2003 
Q 2506 1872 2764 1633 
Q 3022 1394 3022 966 
Q 3022 478 2636 193 
Q 2250 -91 1575 -91 
Q 1294 -91 989 -36 
Q 684 19 347 128 
L 347 722 
Q 666 556 975 473 
Q 1284 391 1588 391 
Q 1994 391 2212 530 
Q 2431 669 2431 922 
Q 2431 1156 2273 1281 
Q 2116 1406 1581 1522 
L 1381 1569 
Q 847 1681 609 1914 
Q 372 2147 372 2553 
Q 372 3047 722 3315 
Q 1072 3584 1716 3584 
Q 2034 3584 2315 3537 
Q 2597 3491 2834 3397 
z
" transform="scale(0.015625)"/>
      <path id="DejaVuSans-66" d="M 2375 4863 
L 2375 4384 
L 1825 4384 
Q 1516 4384 1395 4259 
Q 1275 4134 1275 3809 
L 1275 3500 
L 2222 3500 
L 2222 3053 
L 1275 3053 
L 1275 0 
L 697 0 
L 697 3053 
L 147 3053 
L 147 3500 
L 697 3500 
L 697 3744 
Q 697 4328 969 4595 
Q 1241 4863 1831 4863 
L 2375 4863 
z
" transform="scale(0.015625)"/>
      <path id="DejaVuSans-57" d="M 213 4666 
L 850 4666 
L 1831 722 
L 2809 4666 
L 3519 4666 
L 4500 722 
L 5478 4666 
L 6119 4666 
L 4947 0 
L 4153 0 
L 3169 4050 
L 2175 0 
L 1381 0 
L 213 4666 
z
" transform="scale(0.015625)"/>
      <path id="DejaVuSans-48" d="M 628 4666 
L 1259 4666 
L 1259 2753 
L 3553 2753 
L 3553 4666 
L 4184 4666 
L 4184 0 
L 3553 0 
L 3553 2222 
L 1259 2222 
L 1259 0 
L 628 0 
L 628 4666 
z
" transform="scale(0.015625)"/>
      <path id="DejaVuSans-4f" d="M 2522 4238 
Q 1834 4238 1429 3725 
Q 1025 3213 1025 2328 
Q 1025 1447 1429 934 
Q 1834 422 2522 422 
Q 3209 422 3611 934 
Q 4013 1447 4013 2328 
Q 4013 3213 3611 3725 
Q 3209 4238 2522 4238 
z
M 2522 4750 
Q 3503 4750 4090 4092 
Q 4678 3434 4678 2328 
Q 4678 1225 4090 567 
Q 3503 -91 2522 -91 
Q 1538 -91 948 565 
Q 359 1222 359 2328 
Q 359 3434 948 4092 
Q 1538 4750 2522 4750 
z
" transform="scale(0.015625)"/>
      <path id="DejaVuSans-75" d="M 544 1381 
L 544 3500 
L 1119 3500 
L 1119 1403 
Q 1119 906 1312 657 
Q 1506 409 1894 409 
Q 2359 409 2629 706 
Q 2900 1003 2900 1516 
L 2900 3500 
L 3475 3500 
L 3475 0 
L 2900 0 
L 2900 538 
Q 2691 219 2414 64 
Q 2138 -91 1772 -91 
Q 1169 -91 856 284 
Q 544 659 544 1381 
z
M 1991 3584 
L 1991 3584 
z
" transform="scale(0.015625)"/>
     </defs>
     <use xlink:href="#DejaVuSans-50"/>
     <use xlink:href="#DejaVuSans-72" x="58.552734"/>
     <use xlink:href="#DejaVuSans-65" x="97.416016"/>
     <use xlink:href="#DejaVuSans-64" x="158.939453"/>
     <use xlink:href="#DejaVuSans-69" x="222.416016"/>
     <use xlink:href="#DejaVuSans-63" x="250.199219"/>
     <use xlink:href="#DejaVuSans-74" x="305.179688"/>
     <use xlink:href="#DejaVuSans-65" x="344.388672"/>
     <use xlink:href="#DejaVuSans-64" x="405.912109"/>
     <use xlink:href="#DejaVuSans-20" x="469.388672"/>
     <use xlink:href="#DejaVuSans-4d" x="501.175781"/>
     <use xlink:href="#DejaVuSans-49" x="587.455078"/>
     <use xlink:href="#DejaVuSans-43" x="616.947266"/>
     <use xlink:href="#DejaVuSans-73" x="686.771484"/>
     <use xlink:href="#DejaVuSans-20" x="738.871094"/>
     <use xlink:href="#DejaVuSans-6f" x="770.658203"/>
     <use xlink:href="#DejaVuSans-66" x="831.839844"/>
     <use xlink:href="#DejaVuSans-20" x="867.044922"/>
     <use xlink:href="#DejaVuSans-31" x="898.832031"/>
     <use xlink:href="#DejaVuSans-33" x="962.455078"/>
     <use xlink:href="#DejaVuSans-33" x="1026.078125"/>
     <use xlink:href="#DejaVuSans-31" x="1089.701172"/>
     <use xlink:href="#DejaVuSans-20" x="1153.324219"/>
     <use xlink:href="#DejaVuSans-57" x="1185.111328"/>
     <use xlink:href="#DejaVuSans-48" x="1283.988281"/>
     <use xlink:href="#DejaVuSans-4f" x="1359.183594"/>
     <use xlink:href="#DejaVuSans-20" x="1437.894531"/>
     <use xlink:href="#DejaVuSans-43" x="1469.681641"/>
     <use xlink:href="#DejaVuSans-61" x="1539.505859"/>
     <use xlink:href="#DejaVuSans-74" x="1600.785156"/>
     <use xlink:href="#DejaVuSans-61" x="1639.994141"/>
     <use xlink:href="#DejaVuSans-6c" x="1701.273438"/>
     <use xlink:href="#DejaVuSans-6f" x="1729.056641"/>
     <use xlink:href="#DejaVuSans-67" x="1790.238281"/>
     <use xlink:href="#DejaVuSans-20" x="1853.714844"/>
     <use xlink:href="#DejaVuSans-4d" x="1885.501953"/>
     <use xlink:href="#DejaVuSans-75" x="1971.78125"/>
     <use xlink:href="#DejaVuSans-74" x="2035.160156"/>
     <use xlink:href="#DejaVuSans-61" x="2074.369141"/>
     <use xlink:href="#DejaVuSans-74" x="2135.648438"/>
     <use xlink:href="#DejaVuSans-69" x="2174.857422"/>
     <use xlink:href="#DejaVuSans-6f" x="2202.640625"/>
     <use xlink:href="#DejaVuSans-6e" x="2263.822266"/>
     <use xlink:href="#DejaVuSans-73" x="2327.201172"/>
    </g>
    <!--  -->
    <g transform="translate(180.7125 25.99625) scale(0.1 -0.1)"/>
   </g>
   <g id="legend_1">
    <g id="patch_5">
     <path d="M 327.642969 181.673687 
L 440.8625 181.673687 
Q 442.2625 181.673687 442.2625 180.273687 
L 442.2625 129.60025 
Q 442.2625 128.20025 440.8625 128.20025 
L 327.642969 128.20025 
Q 326.242969 128.20025 326.242969 129.60025 
L 326.242969 180.273687 
Q 326.242969 181.673687 327.642969 181.673687 
z
" style="fill: #ffffff; opacity: 0.8; stroke: #cccccc; stroke-linejoin: miter"/>
    </g>
    <g id="line2d_19">
     <path d="M 329.042969 133.869156 
L 336.042969 133.869156 
L 336.042969 133.869156 
L 343.042969 133.869156 
L 343.042969 133.869156 
" style="fill: none; stroke: #0173b2; stroke-width: 1.5; stroke-linecap: square"/>
    </g>
    <g id="text_14">
     <!-- 1) Assoc w R -->
     <g transform="translate(348.642969 136.319156) scale(0.07 -0.07)">
      <defs>
       <path id="DejaVuSans-41" d="M 2188 4044 
L 1331 1722 
L 3047 1722 
L 2188 4044 
z
M 1831 4666 
L 2547 4666 
L 4325 0 
L 3669 0 
L 3244 1197 
L 1141 1197 
L 716 0 
L 50 0 
L 1831 4666 
z
" transform="scale(0.015625)"/>
       <path id="DejaVuSans-77" d="M 269 3500 
L 844 3500 
L 1563 769 
L 2278 3500 
L 2956 3500 
L 3675 769 
L 4391 3500 
L 4966 3500 
L 4050 0 
L 3372 0 
L 2619 2869 
L 1863 0 
L 1184 0 
L 269 3500 
z
" transform="scale(0.015625)"/>
       <path id="DejaVuSans-52" d="M 2841 2188 
Q 3044 2119 3236 1894 
Q 3428 1669 3622 1275 
L 4263 0 
L 3584 0 
L 2988 1197 
Q 2756 1666 2539 1819 
Q 2322 1972 1947 1972 
L 1259 1972 
L 1259 0 
L 628 0 
L 628 4666 
L 2053 4666 
Q 2853 4666 3247 4331 
Q 3641 3997 3641 3322 
Q 3641 2881 3436 2590 
Q 3231 2300 2841 2188 
z
M 1259 4147 
L 1259 2491 
L 2053 2491 
Q 2509 2491 2742 2702 
Q 2975 2913 2975 3322 
Q 2975 3731 2742 3939 
Q 2509 4147 2053 4147 
L 1259 4147 
z
" transform="scale(0.015625)"/>
      </defs>
      <use xlink:href="#DejaVuSans-31"/>
      <use xlink:href="#DejaVuSans-29" x="63.623047"/>
      <use xlink:href="#DejaVuSans-20" x="102.636719"/>
      <use xlink:href="#DejaVuSans-41" x="134.423828"/>
      <use xlink:href="#DejaVuSans-73" x="202.832031"/>
      <use xlink:href="#DejaVuSans-73" x="254.931641"/>
      <use xlink:href="#DejaVuSans-6f" x="307.03125"/>
      <use xlink:href="#DejaVuSans-63" x="368.212891"/>
      <use xlink:href="#DejaVuSans-20" x="423.193359"/>
      <use xlink:href="#DejaVuSans-77" x="454.980469"/>
      <use xlink:href="#DejaVuSans-20" x="536.767578"/>
      <use xlink:href="#DejaVuSans-52" x="568.554688"/>
     </g>
    </g>
    <g id="line2d_20">
     <path d="M 329.042969 144.143844 
L 336.042969 144.143844 
L 336.042969 144.143844 
L 343.042969 144.143844 
L 343.042969 144.143844 
" style="fill: none; stroke: #de8f05; stroke-width: 1.5; stroke-linecap: square"/>
    </g>
    <g id="text_15">
     <!-- 2) Assoc w R - Interim -->
     <g transform="translate(348.642969 146.593844) scale(0.07 -0.07)">
      <defs>
       <path id="DejaVuSans-2d" d="M 313 2009 
L 1997 2009 
L 1997 1497 
L 313 1497 
L 313 2009 
z
" transform="scale(0.015625)"/>
      </defs>
      <use xlink:href="#DejaVuSans-32"/>
      <use xlink:href="#DejaVuSans-29" x="63.623047"/>
      <use xlink:href="#DejaVuSans-20" x="102.636719"/>
      <use xlink:href="#DejaVuSans-41" x="134.423828"/>
      <use xlink:href="#DejaVuSans-73" x="202.832031"/>
      <use xlink:href="#DejaVuSans-73" x="254.931641"/>
      <use xlink:href="#DejaVuSans-6f" x="307.03125"/>
      <use xlink:href="#DejaVuSans-63" x="368.212891"/>
      <use xlink:href="#DejaVuSans-20" x="423.193359"/>
      <use xlink:href="#DejaVuSans-77" x="454.980469"/>
      <use xlink:href="#DejaVuSans-20" x="536.767578"/>
      <use xlink:href="#DejaVuSans-52" x="568.554688"/>
      <use xlink:href="#DejaVuSans-20" x="638.037109"/>
      <use xlink:href="#DejaVuSans-2d" x="669.824219"/>
      <use xlink:href="#DejaVuSans-20" x="705.908203"/>
      <use xlink:href="#DejaVuSans-49" x="737.695312"/>
      <use xlink:href="#DejaVuSans-6e" x="767.1875"/>
      <use xlink:href="#DejaVuSans-74" x="830.566406"/>
      <use xlink:href="#DejaVuSans-65" x="869.775391"/>
      <use xlink:href="#DejaVuSans-72" x="931.298828"/>
      <use xlink:href="#DejaVuSans-69" x="972.412109"/>
      <use xlink:href="#DejaVuSans-6d" x="1000.195312"/>
     </g>
    </g>
    <g id="line2d_21">
     <path d="M 329.042969 154.418531 
L 336.042969 154.418531 
L 336.042969 154.418531 
L 343.042969 154.418531 
L 343.042969 154.418531 
" style="fill: none; stroke: #029e73; stroke-width: 1.5; stroke-linecap: square"/>
    </g>
    <g id="text_16">
     <!-- 3) Uncertain significance -->
     <g transform="translate(348.642969 156.868531) scale(0.07 -0.07)">
      <defs>
       <path id="DejaVuSans-55" d="M 556 4666 
L 1191 4666 
L 1191 1831 
Q 1191 1081 1462 751 
Q 1734 422 2344 422 
Q 2950 422 3222 751 
Q 3494 1081 3494 1831 
L 3494 4666 
L 4128 4666 
L 4128 1753 
Q 4128 841 3676 375 
Q 3225 -91 2344 -91 
Q 1459 -91 1007 375 
Q 556 841 556 1753 
L 556 4666 
z
" transform="scale(0.015625)"/>
      </defs>
      <use xlink:href="#DejaVuSans-33"/>
      <use xlink:href="#DejaVuSans-29" x="63.623047"/>
      <use xlink:href="#DejaVuSans-20" x="102.636719"/>
      <use xlink:href="#DejaVuSans-55" x="134.423828"/>
      <use xlink:href="#DejaVuSans-6e" x="207.617188"/>
      <use xlink:href="#DejaVuSans-63" x="270.996094"/>
      <use xlink:href="#DejaVuSans-65" x="325.976562"/>
      <use xlink:href="#DejaVuSans-72" x="387.5"/>
      <use xlink:href="#DejaVuSans-74" x="428.613281"/>
      <use xlink:href="#DejaVuSans-61" x="467.822266"/>
      <use xlink:href="#DejaVuSans-69" x="529.101562"/>
      <use xlink:href="#DejaVuSans-6e" x="556.884766"/>
      <use xlink:href="#DejaVuSans-20" x="620.263672"/>
      <use xlink:href="#DejaVuSans-73" x="652.050781"/>
      <use xlink:href="#DejaVuSans-69" x="704.150391"/>
      <use xlink:href="#DejaVuSans-67" x="731.933594"/>
      <use xlink:href="#DejaVuSans-6e" x="795.410156"/>
      <use xlink:href="#DejaVuSans-69" x="858.789062"/>
      <use xlink:href="#DejaVuSans-66" x="886.572266"/>
      <use xlink:href="#DejaVuSans-69" x="921.777344"/>
      <use xlink:href="#DejaVuSans-63" x="949.560547"/>
      <use xlink:href="#DejaVuSans-61" x="1004.541016"/>
      <use xlink:href="#DejaVuSans-6e" x="1065.820312"/>
      <use xlink:href="#DejaVuSans-63" x="1129.199219"/>
      <use xlink:href="#DejaVuSans-65" x="1184.179688"/>
     </g>
    </g>
    <g id="line2d_22">
     <path d="M 329.042969 164.693219 
L 336.042969 164.693219 
L 336.042969 164.693219 
L 343.042969 164.693219 
L 343.042969 164.693219 
" style="fill: none; stroke: #d55e00; stroke-width: 1.5; stroke-linecap: square"/>
    </g>
    <g id="text_17">
     <!-- 4) Not assoc w R - Interim -->
     <g transform="translate(348.642969 167.143219) scale(0.07 -0.07)">
      <defs>
       <path id="DejaVuSans-4e" d="M 628 4666 
L 1478 4666 
L 3547 763 
L 3547 4666 
L 4159 4666 
L 4159 0 
L 3309 0 
L 1241 3903 
L 1241 0 
L 628 0 
L 628 4666 
z
" transform="scale(0.015625)"/>
      </defs>
      <use xlink:href="#DejaVuSans-34"/>
      <use xlink:href="#DejaVuSans-29" x="63.623047"/>
      <use xlink:href="#DejaVuSans-20" x="102.636719"/>
      <use xlink:href="#DejaVuSans-4e" x="134.423828"/>
      <use xlink:href="#DejaVuSans-6f" x="209.228516"/>
      <use xlink:href="#DejaVuSans-74" x="270.410156"/>
      <use xlink:href="#DejaVuSans-20" x="309.619141"/>
      <use xlink:href="#DejaVuSans-61" x="341.40625"/>
      <use xlink:href="#DejaVuSans-73" x="402.685547"/>
      <use xlink:href="#DejaVuSans-73" x="454.785156"/>
      <use xlink:href="#DejaVuSans-6f" x="506.884766"/>
      <use xlink:href="#DejaVuSans-63" x="568.066406"/>
      <use xlink:href="#DejaVuSans-20" x="623.046875"/>
      <use xlink:href="#DejaVuSans-77" x="654.833984"/>
      <use xlink:href="#DejaVuSans-20" x="736.621094"/>
      <use xlink:href="#DejaVuSans-52" x="768.408203"/>
      <use xlink:href="#DejaVuSans-20" x="837.890625"/>
      <use xlink:href="#DejaVuSans-2d" x="869.677734"/>
      <use xlink:href="#DejaVuSans-20" x="905.761719"/>
      <use xlink:href="#DejaVuSans-49" x="937.548828"/>
      <use xlink:href="#DejaVuSans-6e" x="967.041016"/>
      <use xlink:href="#DejaVuSans-74" x="1030.419922"/>
      <use xlink:href="#DejaVuSans-65" x="1069.628906"/>
      <use xlink:href="#DejaVuSans-72" x="1131.152344"/>
      <use xlink:href="#DejaVuSans-69" x="1172.265625"/>
      <use xlink:href="#DejaVuSans-6d" x="1200.048828"/>
     </g>
    </g>
    <g id="line2d_23">
     <path d="M 329.042969 174.967906 
L 336.042969 174.967906 
L 336.042969 174.967906 
L 343.042969 174.967906 
L 343.042969 174.967906 
" style="fill: none; stroke: #cc78bc; stroke-width: 1.5; stroke-linecap: square"/>
    </g>
    <g id="text_18">
     <!-- 5) Not assoc w R -->
     <g transform="translate(348.642969 177.417906) scale(0.07 -0.07)">
      <use xlink:href="#DejaVuSans-35"/>
      <use xlink:href="#DejaVuSans-29" x="63.623047"/>
      <use xlink:href="#DejaVuSans-20" x="102.636719"/>
      <use xlink:href="#DejaVuSans-4e" x="134.423828"/>
      <use xlink:href="#DejaVuSans-6f" x="209.228516"/>
      <use xlink:href="#DejaVuSans-74" x="270.410156"/>
      <use xlink:href="#DejaVuSans-20" x="309.619141"/>
      <use xlink:href="#DejaVuSans-61" x="341.40625"/>
      <use xlink:href="#DejaVuSans-73" x="402.685547"/>
      <use xlink:href="#DejaVuSans-73" x="454.785156"/>
      <use xlink:href="#DejaVuSans-6f" x="506.884766"/>
      <use xlink:href="#DejaVuSans-63" x="568.066406"/>
      <use xlink:href="#DejaVuSans-20" x="623.046875"/>
      <use xlink:href="#DejaVuSans-77" x="654.833984"/>
      <use xlink:href="#DejaVuSans-20" x="736.621094"/>
      <use xlink:href="#DejaVuSans-52" x="768.408203"/>
     </g>
    </g>
   </g>
  </g>
 </g>
 <defs>
  <clipPath id="p72a3999169">
   <rect x="41.2125" y="35.99625" width="279" height="221.76"/>
  </clipPath>
 </defs>
</svg>
