<?xml version="1.0" encoding="utf-8" standalone="no"?>
<!DOCTYPE svg PUBLIC "-//W3C//DTD SVG 1.1//EN"
  "http://www.w3.org/Graphics/SVG/1.1/DTD/svg11.dtd">
<svg xmlns:xlink="http://www.w3.org/1999/xlink" width="288pt" height="108pt" viewBox="0 0 288 108" xmlns="http://www.w3.org/2000/svg" version="1.1">
 <metadata>
  <rdf:RDF xmlns:dc="http://purl.org/dc/elements/1.1/" xmlns:cc="http://creativecommons.org/ns#" xmlns:rdf="http://www.w3.org/1999/02/22-rdf-syntax-ns#">
   <cc:Work>
    <dc:type rdf:resource="http://purl.org/dc/dcmitype/StillImage"/>
    <dc:date>2024-09-07T21:12:04.938070</dc:date>
    <dc:format>image/svg+xml</dc:format>
    <dc:creator>
     <cc:Agent>
      <dc:title>Matplotlib v3.8.1, https://matplotlib.org/</dc:title>
     </cc:Agent>
    </dc:creator>
   </cc:Work>
  </rdf:RDF>
 </metadata>
 <defs>
  <style type="text/css">*{stroke-linejoin: round; stroke-linecap: butt}</style>
 </defs>
 <g id="figure_1">
  <g id="patch_1">
   <path d="M 0 108 
L 288 108 
L 288 0 
L 0 0 
z
" style="fill: #ffffff"/>
  </g>
  <g id="axes_1">
   <g id="patch_2">
    <path d="M 36 96.12 
L 259.2 96.12 
L 259.2 12.96 
L 36 12.96 
z
" style="fill: #ffffff"/>
   </g>
   <g id="matplotlib.axis_1">
    <g id="xtick_1">
     <g id="line2d_1">
      <defs>
       <path id="m9b883d0b96" d="M 0 0 
L 0 3.5 
" style="stroke: #000000; stroke-width: 0.8"/>
      </defs>
      <g>
       <use xlink:href="#m9b883d0b96" x="53.949719" y="96.12" style="stroke: #000000; stroke-width: 0.8"/>
      </g>
     </g>
     <g id="text_1">
      <!-- $\mathdefault{2^{0}}$ -->
      <g transform="translate(49.469719 109.19875) scale(0.08 -0.08)">
       <defs>
        <path id="DejaVuSans-32" d="M 1228 531 
L 3431 531 
L 3431 0 
L 469 0 
L 469 531 
Q 828 903 1448 1529 
Q 2069 2156 2228 2338 
Q 2531 2678 2651 2914 
Q 2772 3150 2772 3378 
Q 2772 3750 2511 3984 
Q 2250 4219 1831 4219 
Q 1534 4219 1204 4116 
Q 875 4013 500 3803 
L 500 4441 
Q 881 4594 1212 4672 
Q 1544 4750 1819 4750 
Q 2544 4750 2975 4387 
Q 3406 4025 3406 3419 
Q 3406 3131 3298 2873 
Q 3191 2616 2906 2266 
Q 2828 2175 2409 1742 
Q 1991 1309 1228 531 
z
" transform="scale(0.015625)"/>
        <path id="DejaVuSans-30" d="M 2034 4250 
Q 1547 4250 1301 3770 
Q 1056 3291 1056 2328 
Q 1056 1369 1301 889 
Q 1547 409 2034 409 
Q 2525 409 2770 889 
Q 3016 1369 3016 2328 
Q 3016 3291 2770 3770 
Q 2525 4250 2034 4250 
z
M 2034 4750 
Q 2819 4750 3233 4129 
Q 3647 3509 3647 2328 
Q 3647 1150 3233 529 
Q 2819 -91 2034 -91 
Q 1250 -91 836 529 
Q 422 1150 422 2328 
Q 422 3509 836 4129 
Q 1250 4750 2034 4750 
z
" transform="scale(0.015625)"/>
       </defs>
       <use xlink:href="#DejaVuSans-32" transform="translate(0 0.765625)"/>
       <use xlink:href="#DejaVuSans-30" transform="translate(64.580078 39.046875) scale(0.7)"/>
      </g>
     </g>
    </g>
    <g id="xtick_2">
     <g id="line2d_2">
      <g>
       <use xlink:href="#m9b883d0b96" x="137.976794" y="96.12" style="stroke: #000000; stroke-width: 0.8"/>
      </g>
     </g>
     <g id="text_2">
      <!-- $\mathdefault{2^{1}}$ -->
      <g transform="translate(133.496794 109.19875) scale(0.08 -0.08)">
       <defs>
        <path id="DejaVuSans-31" d="M 794 531 
L 1825 531 
L 1825 4091 
L 703 3866 
L 703 4441 
L 1819 4666 
L 2450 4666 
L 2450 531 
L 3481 531 
L 3481 0 
L 794 0 
L 794 531 
z
" transform="scale(0.015625)"/>
       </defs>
       <use xlink:href="#DejaVuSans-32" transform="translate(0 0.684375)"/>
       <use xlink:href="#DejaVuSans-31" transform="translate(64.580078 38.965625) scale(0.7)"/>
      </g>
     </g>
    </g>
    <g id="xtick_3">
     <g id="line2d_3">
      <g>
       <use xlink:href="#m9b883d0b96" x="222.003869" y="96.12" style="stroke: #000000; stroke-width: 0.8"/>
      </g>
     </g>
     <g id="text_3">
      <!-- $\mathdefault{2^{2}}$ -->
      <g transform="translate(217.523869 109.19875) scale(0.08 -0.08)">
       <use xlink:href="#DejaVuSans-32" transform="translate(0 0.765625)"/>
       <use xlink:href="#DejaVuSans-32" transform="translate(64.580078 39.046875) scale(0.7)"/>
      </g>
     </g>
    </g>
    <g id="text_4">
     <!-- Ethionamide MIC (µg/mL) -->
     <g transform="translate(96.77125 120.94125) scale(0.08 -0.08)">
      <defs>
       <path id="DejaVuSans-45" d="M 628 4666 
L 3578 4666 
L 3578 4134 
L 1259 4134 
L 1259 2753 
L 3481 2753 
L 3481 2222 
L 1259 2222 
L 1259 531 
L 3634 531 
L 3634 0 
L 628 0 
L 628 4666 
z
" transform="scale(0.015625)"/>
       <path id="DejaVuSans-74" d="M 1172 4494 
L 1172 3500 
L 2356 3500 
L 2356 3053 
L 1172 3053 
L 1172 1153 
Q 1172 725 1289 603 
Q 1406 481 1766 481 
L 2356 481 
L 2356 0 
L 1766 0 
Q 1100 0 847 248 
Q 594 497 594 1153 
L 594 3053 
L 172 3053 
L 172 3500 
L 594 3500 
L 594 4494 
L 1172 4494 
z
" transform="scale(0.015625)"/>
       <path id="DejaVuSans-68" d="M 3513 2113 
L 3513 0 
L 2938 0 
L 2938 2094 
Q 2938 2591 2744 2837 
Q 2550 3084 2163 3084 
Q 1697 3084 1428 2787 
Q 1159 2491 1159 1978 
L 1159 0 
L 581 0 
L 581 4863 
L 1159 4863 
L 1159 2956 
Q 1366 3272 1645 3428 
Q 1925 3584 2291 3584 
Q 2894 3584 3203 3211 
Q 3513 2838 3513 2113 
z
" transform="scale(0.015625)"/>
       <path id="DejaVuSans-69" d="M 603 3500 
L 1178 3500 
L 1178 0 
L 603 0 
L 603 3500 
z
M 603 4863 
L 1178 4863 
L 1178 4134 
L 603 4134 
L 603 4863 
z
" transform="scale(0.015625)"/>
       <path id="DejaVuSans-6f" d="M 1959 3097 
Q 1497 3097 1228 2736 
Q 959 2375 959 1747 
Q 959 1119 1226 758 
Q 1494 397 1959 397 
Q 2419 397 2687 759 
Q 2956 1122 2956 1747 
Q 2956 2369 2687 2733 
Q 2419 3097 1959 3097 
z
M 1959 3584 
Q 2709 3584 3137 3096 
Q 3566 2609 3566 1747 
Q 3566 888 3137 398 
Q 2709 -91 1959 -91 
Q 1206 -91 779 398 
Q 353 888 353 1747 
Q 353 2609 779 3096 
Q 1206 3584 1959 3584 
z
" transform="scale(0.015625)"/>
       <path id="DejaVuSans-6e" d="M 3513 2113 
L 3513 0 
L 2938 0 
L 2938 2094 
Q 2938 2591 2744 2837 
Q 2550 3084 2163 3084 
Q 1697 3084 1428 2787 
Q 1159 2491 1159 1978 
L 1159 0 
L 581 0 
L 581 3500 
L 1159 3500 
L 1159 2956 
Q 1366 3272 1645 3428 
Q 1925 3584 2291 3584 
Q 2894 3584 3203 3211 
Q 3513 2838 3513 2113 
z
" transform="scale(0.015625)"/>
       <path id="DejaVuSans-61" d="M 2194 1759 
Q 1497 1759 1228 1600 
Q 959 1441 959 1056 
Q 959 750 1161 570 
Q 1363 391 1709 391 
Q 2188 391 2477 730 
Q 2766 1069 2766 1631 
L 2766 1759 
L 2194 1759 
z
M 3341 1997 
L 3341 0 
L 2766 0 
L 2766 531 
Q 2569 213 2275 61 
Q 1981 -91 1556 -91 
Q 1019 -91 701 211 
Q 384 513 384 1019 
Q 384 1609 779 1909 
Q 1175 2209 1959 2209 
L 2766 2209 
L 2766 2266 
Q 2766 2663 2505 2880 
Q 2244 3097 1772 3097 
Q 1472 3097 1187 3025 
Q 903 2953 641 2809 
L 641 3341 
Q 956 3463 1253 3523 
Q 1550 3584 1831 3584 
Q 2591 3584 2966 3190 
Q 3341 2797 3341 1997 
z
" transform="scale(0.015625)"/>
       <path id="DejaVuSans-6d" d="M 3328 2828 
Q 3544 3216 3844 3400 
Q 4144 3584 4550 3584 
Q 5097 3584 5394 3201 
Q 5691 2819 5691 2113 
L 5691 0 
L 5113 0 
L 5113 2094 
Q 5113 2597 4934 2840 
Q 4756 3084 4391 3084 
Q 3944 3084 3684 2787 
Q 3425 2491 3425 1978 
L 3425 0 
L 2847 0 
L 2847 2094 
Q 2847 2600 2669 2842 
Q 2491 3084 2119 3084 
Q 1678 3084 1418 2786 
Q 1159 2488 1159 1978 
L 1159 0 
L 581 0 
L 581 3500 
L 1159 3500 
L 1159 2956 
Q 1356 3278 1631 3431 
Q 1906 3584 2284 3584 
Q 2666 3584 2933 3390 
Q 3200 3197 3328 2828 
z
" transform="scale(0.015625)"/>
       <path id="DejaVuSans-64" d="M 2906 2969 
L 2906 4863 
L 3481 4863 
L 3481 0 
L 2906 0 
L 2906 525 
Q 2725 213 2448 61 
Q 2172 -91 1784 -91 
Q 1150 -91 751 415 
Q 353 922 353 1747 
Q 353 2572 751 3078 
Q 1150 3584 1784 3584 
Q 2172 3584 2448 3432 
Q 2725 3281 2906 2969 
z
M 947 1747 
Q 947 1113 1208 752 
Q 1469 391 1925 391 
Q 2381 391 2643 752 
Q 2906 1113 2906 1747 
Q 2906 2381 2643 2742 
Q 2381 3103 1925 3103 
Q 1469 3103 1208 2742 
Q 947 2381 947 1747 
z
" transform="scale(0.015625)"/>
       <path id="DejaVuSans-65" d="M 3597 1894 
L 3597 1613 
L 953 1613 
Q 991 1019 1311 708 
Q 1631 397 2203 397 
Q 2534 397 2845 478 
Q 3156 559 3463 722 
L 3463 178 
Q 3153 47 2828 -22 
Q 2503 -91 2169 -91 
Q 1331 -91 842 396 
Q 353 884 353 1716 
Q 353 2575 817 3079 
Q 1281 3584 2069 3584 
Q 2775 3584 3186 3129 
Q 3597 2675 3597 1894 
z
M 3022 2063 
Q 3016 2534 2758 2815 
Q 2500 3097 2075 3097 
Q 1594 3097 1305 2825 
Q 1016 2553 972 2059 
L 3022 2063 
z
" transform="scale(0.015625)"/>
       <path id="DejaVuSans-20" transform="scale(0.015625)"/>
       <path id="DejaVuSans-4d" d="M 628 4666 
L 1569 4666 
L 2759 1491 
L 3956 4666 
L 4897 4666 
L 4897 0 
L 4281 0 
L 4281 4097 
L 3078 897 
L 2444 897 
L 1241 4097 
L 1241 0 
L 628 0 
L 628 4666 
z
" transform="scale(0.015625)"/>
       <path id="DejaVuSans-49" d="M 628 4666 
L 1259 4666 
L 1259 0 
L 628 0 
L 628 4666 
z
" transform="scale(0.015625)"/>
       <path id="DejaVuSans-43" d="M 4122 4306 
L 4122 3641 
Q 3803 3938 3442 4084 
Q 3081 4231 2675 4231 
Q 1875 4231 1450 3742 
Q 1025 3253 1025 2328 
Q 1025 1406 1450 917 
Q 1875 428 2675 428 
Q 3081 428 3442 575 
Q 3803 722 4122 1019 
L 4122 359 
Q 3791 134 3420 21 
Q 3050 -91 2638 -91 
Q 1578 -91 968 557 
Q 359 1206 359 2328 
Q 359 3453 968 4101 
Q 1578 4750 2638 4750 
Q 3056 4750 3426 4639 
Q 3797 4528 4122 4306 
z
" transform="scale(0.015625)"/>
       <path id="DejaVuSans-28" d="M 1984 4856 
Q 1566 4138 1362 3434 
Q 1159 2731 1159 2009 
Q 1159 1288 1364 580 
Q 1569 -128 1984 -844 
L 1484 -844 
Q 1016 -109 783 600 
Q 550 1309 550 2009 
Q 550 2706 781 3412 
Q 1013 4119 1484 4856 
L 1984 4856 
z
" transform="scale(0.015625)"/>
       <path id="DejaVuSans-b5" d="M 544 -1331 
L 544 3500 
L 1119 3500 
L 1119 1325 
Q 1119 872 1334 640 
Q 1550 409 1972 409 
Q 2434 409 2667 671 
Q 2900 934 2900 1459 
L 2900 3500 
L 3475 3500 
L 3475 806 
Q 3475 619 3529 530 
Q 3584 441 3700 441 
Q 3728 441 3778 458 
Q 3828 475 3916 513 
L 3916 50 
Q 3788 -22 3673 -56 
Q 3559 -91 3450 -91 
Q 3234 -91 3106 31 
Q 2978 153 2931 403 
Q 2775 156 2548 32 
Q 2322 -91 2016 -91 
Q 1697 -91 1473 31 
Q 1250 153 1119 397 
L 1119 -1331 
L 544 -1331 
z
" transform="scale(0.015625)"/>
       <path id="DejaVuSans-67" d="M 2906 1791 
Q 2906 2416 2648 2759 
Q 2391 3103 1925 3103 
Q 1463 3103 1205 2759 
Q 947 2416 947 1791 
Q 947 1169 1205 825 
Q 1463 481 1925 481 
Q 2391 481 2648 825 
Q 2906 1169 2906 1791 
z
M 3481 434 
Q 3481 -459 3084 -895 
Q 2688 -1331 1869 -1331 
Q 1566 -1331 1297 -1286 
Q 1028 -1241 775 -1147 
L 775 -588 
Q 1028 -725 1275 -790 
Q 1522 -856 1778 -856 
Q 2344 -856 2625 -561 
Q 2906 -266 2906 331 
L 2906 616 
Q 2728 306 2450 153 
Q 2172 0 1784 0 
Q 1141 0 747 490 
Q 353 981 353 1791 
Q 353 2603 747 3093 
Q 1141 3584 1784 3584 
Q 2172 3584 2450 3431 
Q 2728 3278 2906 2969 
L 2906 3500 
L 3481 3500 
L 3481 434 
z
" transform="scale(0.015625)"/>
       <path id="DejaVuSans-2f" d="M 1625 4666 
L 2156 4666 
L 531 -594 
L 0 -594 
L 1625 4666 
z
" transform="scale(0.015625)"/>
       <path id="DejaVuSans-4c" d="M 628 4666 
L 1259 4666 
L 1259 531 
L 3531 531 
L 3531 0 
L 628 0 
L 628 4666 
z
" transform="scale(0.015625)"/>
       <path id="DejaVuSans-29" d="M 513 4856 
L 1013 4856 
Q 1481 4119 1714 3412 
Q 1947 2706 1947 2009 
Q 1947 1309 1714 600 
Q 1481 -109 1013 -844 
L 513 -844 
Q 928 -128 1133 580 
Q 1338 1288 1338 2009 
Q 1338 2731 1133 3434 
Q 928 4138 513 4856 
z
" transform="scale(0.015625)"/>
      </defs>
      <use xlink:href="#DejaVuSans-45"/>
      <use xlink:href="#DejaVuSans-74" x="63.183594"/>
      <use xlink:href="#DejaVuSans-68" x="102.392578"/>
      <use xlink:href="#DejaVuSans-69" x="165.771484"/>
      <use xlink:href="#DejaVuSans-6f" x="193.554688"/>
      <use xlink:href="#DejaVuSans-6e" x="254.736328"/>
      <use xlink:href="#DejaVuSans-61" x="318.115234"/>
      <use xlink:href="#DejaVuSans-6d" x="379.394531"/>
      <use xlink:href="#DejaVuSans-69" x="476.806641"/>
      <use xlink:href="#DejaVuSans-64" x="504.589844"/>
      <use xlink:href="#DejaVuSans-65" x="568.066406"/>
      <use xlink:href="#DejaVuSans-20" x="629.589844"/>
      <use xlink:href="#DejaVuSans-4d" x="661.376953"/>
      <use xlink:href="#DejaVuSans-49" x="747.65625"/>
      <use xlink:href="#DejaVuSans-43" x="777.148438"/>
      <use xlink:href="#DejaVuSans-20" x="846.972656"/>
      <use xlink:href="#DejaVuSans-28" x="878.759766"/>
      <use xlink:href="#DejaVuSans-b5" x="917.773438"/>
      <use xlink:href="#DejaVuSans-67" x="981.396484"/>
      <use xlink:href="#DejaVuSans-2f" x="1044.873047"/>
      <use xlink:href="#DejaVuSans-6d" x="1078.564453"/>
      <use xlink:href="#DejaVuSans-4c" x="1175.976562"/>
      <use xlink:href="#DejaVuSans-29" x="1231.689453"/>
     </g>
    </g>
   </g>
   <g id="matplotlib.axis_2">
    <g id="ytick_1">
     <g id="line2d_4">
      <defs>
       <path id="m13df0a25d5" d="M 0 0 
L -3.5 0 
" style="stroke: #000000; stroke-width: 0.8"/>
      </defs>
      <g>
       <use xlink:href="#m13df0a25d5" x="36" y="54.54" style="stroke: #000000; stroke-width: 0.8"/>
      </g>
     </g>
    </g>
   </g>
   <g id="line2d_5">
    <path d="M 63.99668 96.12 
L 63.99668 12.96 
" clip-path="url(#pc15d495bb8)" style="fill: none; stroke-dasharray: 1.85,0.8; stroke-dashoffset: 0; stroke: #000000; stroke-width: 0.5"/>
   </g>
   <g id="line2d_6">
    <path d="M 249.054545 96.12 
L 249.054545 12.96 
" clip-path="url(#pc15d495bb8)" style="fill: none; stroke-dasharray: 1.85,0.8; stroke-dashoffset: 0; stroke: #ff6347; stroke-width: 0.5"/>
   </g>
   <g id="patch_3">
    <path d="M 36 96.12 
L 36 12.96 
" style="fill: none; stroke: #000000; stroke-width: 0.8; stroke-linejoin: miter; stroke-linecap: square"/>
   </g>
   <g id="patch_4">
    <path d="M 36 96.12 
L 259.2 96.12 
" style="fill: none; stroke: #000000; stroke-width: 0.8; stroke-linejoin: miter; stroke-linecap: square"/>
   </g>
   <g id="PathCollection_1">
    <defs>
     <path id="m43f9aa7991" d="M 0 2.5 
C 0.663008 2.5 1.29895 2.236584 1.767767 1.767767 
C 2.236584 1.29895 2.5 0.663008 2.5 0 
C 2.5 -0.663008 2.236584 -1.29895 1.767767 -1.767767 
C 1.29895 -2.236584 0.663008 -2.5 0 -2.5 
C -0.663008 -2.5 -1.29895 -2.236584 -1.767767 -1.767767 
C -2.236584 -1.29895 -2.5 -0.663008 -2.5 0 
C -2.5 0.663008 -2.236584 1.29895 -1.767767 1.767767 
C -1.29895 2.236584 -0.663008 2.5 0 2.5 
z
" style="stroke: #000000; stroke-opacity: 0.75; stroke-width: 0.5"/>
    </defs>
    <g clip-path="url(#pc15d495bb8)">
     <use xlink:href="#m43f9aa7991" x="64.148751" y="54.080362" style="fill: #1f77b4; fill-opacity: 0.75; stroke: #000000; stroke-opacity: 0.75; stroke-width: 0.5"/>
     <use xlink:href="#m43f9aa7991" x="64.118512" y="54.366235" style="fill: #1f77b4; fill-opacity: 0.75; stroke: #000000; stroke-opacity: 0.75; stroke-width: 0.5"/>
     <use xlink:href="#m43f9aa7991" x="63.956849" y="62.188703" style="fill: #1f77b4; fill-opacity: 0.75; stroke: #000000; stroke-opacity: 0.75; stroke-width: 0.5"/>
     <use xlink:href="#m43f9aa7991" x="63.440949" y="55.561195" style="fill: #1f77b4; fill-opacity: 0.75; stroke: #000000; stroke-opacity: 0.75; stroke-width: 0.5"/>
     <use xlink:href="#m43f9aa7991" x="64.123372" y="62.799358" style="fill: #1f77b4; fill-opacity: 0.75; stroke: #000000; stroke-opacity: 0.75; stroke-width: 0.5"/>
     <use xlink:href="#m43f9aa7991" x="63.901584" y="50.946292" style="fill: #1f77b4; fill-opacity: 0.75; stroke: #000000; stroke-opacity: 0.75; stroke-width: 0.5"/>
     <use xlink:href="#m43f9aa7991" x="59.912428" y="53.883241" style="fill: #1f77b4; fill-opacity: 0.75; stroke: #000000; stroke-opacity: 0.75; stroke-width: 0.5"/>
     <use xlink:href="#m43f9aa7991" x="61.993225" y="53.821058" style="fill: #1f77b4; fill-opacity: 0.75; stroke: #000000; stroke-opacity: 0.75; stroke-width: 0.5"/>
     <use xlink:href="#m43f9aa7991" x="65.12918" y="48.979276" style="fill: #1f77b4; fill-opacity: 0.75; stroke: #000000; stroke-opacity: 0.75; stroke-width: 0.5"/>
     <use xlink:href="#m43f9aa7991" x="64.565824" y="61.527477" style="fill: #1f77b4; fill-opacity: 0.75; stroke: #000000; stroke-opacity: 0.75; stroke-width: 0.5"/>
     <use xlink:href="#m43f9aa7991" x="66.67589" y="53.438548" style="fill: #1f77b4; fill-opacity: 0.75; stroke: #000000; stroke-opacity: 0.75; stroke-width: 0.5"/>
     <use xlink:href="#m43f9aa7991" x="65.330008" y="57.618029" style="fill: #1f77b4; fill-opacity: 0.75; stroke: #000000; stroke-opacity: 0.75; stroke-width: 0.5"/>
     <use xlink:href="#m43f9aa7991" x="63.09873" y="50.047106" style="fill: #1f77b4; fill-opacity: 0.75; stroke: #000000; stroke-opacity: 0.75; stroke-width: 0.5"/>
     <use xlink:href="#m43f9aa7991" x="62.977567" y="50.496409" style="fill: #1f77b4; fill-opacity: 0.75; stroke: #000000; stroke-opacity: 0.75; stroke-width: 0.5"/>
     <use xlink:href="#m43f9aa7991" x="64.655039" y="49.348801" style="fill: #1f77b4; fill-opacity: 0.75; stroke: #000000; stroke-opacity: 0.75; stroke-width: 0.5"/>
     <use xlink:href="#m43f9aa7991" x="65.036142" y="49.300738" style="fill: #1f77b4; fill-opacity: 0.75; stroke: #000000; stroke-opacity: 0.75; stroke-width: 0.5"/>
     <use xlink:href="#m43f9aa7991" x="64.51588" y="58.22199" style="fill: #1f77b4; fill-opacity: 0.75; stroke: #000000; stroke-opacity: 0.75; stroke-width: 0.5"/>
     <use xlink:href="#m43f9aa7991" x="63.51603" y="53.253068" style="fill: #1f77b4; fill-opacity: 0.75; stroke: #000000; stroke-opacity: 0.75; stroke-width: 0.5"/>
     <use xlink:href="#m43f9aa7991" x="63.821993" y="52.838494" style="fill: #1f77b4; fill-opacity: 0.75; stroke: #000000; stroke-opacity: 0.75; stroke-width: 0.5"/>
     <use xlink:href="#m43f9aa7991" x="63.106396" y="46.625613" style="fill: #1f77b4; fill-opacity: 0.75; stroke: #000000; stroke-opacity: 0.75; stroke-width: 0.5"/>
     <use xlink:href="#m43f9aa7991" x="64.548575" y="50.834995" style="fill: #1f77b4; fill-opacity: 0.75; stroke: #000000; stroke-opacity: 0.75; stroke-width: 0.5"/>
     <use xlink:href="#m43f9aa7991" x="63.891589" y="52.780416" style="fill: #1f77b4; fill-opacity: 0.75; stroke: #000000; stroke-opacity: 0.75; stroke-width: 0.5"/>
     <use xlink:href="#m43f9aa7991" x="60.770322" y="59.770859" style="fill: #1f77b4; fill-opacity: 0.75; stroke: #000000; stroke-opacity: 0.75; stroke-width: 0.5"/>
     <use xlink:href="#m43f9aa7991" x="63.487023" y="52.285464" style="fill: #1f77b4; fill-opacity: 0.75; stroke: #000000; stroke-opacity: 0.75; stroke-width: 0.5"/>
     <use xlink:href="#m43f9aa7991" x="67.123353" y="46.515053" style="fill: #1f77b4; fill-opacity: 0.75; stroke: #000000; stroke-opacity: 0.75; stroke-width: 0.5"/>
     <use xlink:href="#m43f9aa7991" x="64.263862" y="58.296098" style="fill: #1f77b4; fill-opacity: 0.75; stroke: #000000; stroke-opacity: 0.75; stroke-width: 0.5"/>
     <use xlink:href="#m43f9aa7991" x="63.410231" y="58.565455" style="fill: #1f77b4; fill-opacity: 0.75; stroke: #000000; stroke-opacity: 0.75; stroke-width: 0.5"/>
     <use xlink:href="#m43f9aa7991" x="64.164408" y="54.31927" style="fill: #1f77b4; fill-opacity: 0.75; stroke: #000000; stroke-opacity: 0.75; stroke-width: 0.5"/>
     <use xlink:href="#m43f9aa7991" x="73.392126" y="54.543245" style="fill: #1f77b4; fill-opacity: 0.75; stroke: #000000; stroke-opacity: 0.75; stroke-width: 0.5"/>
     <use xlink:href="#m43f9aa7991" x="56.234024" y="62.570393" style="fill: #1f77b4; fill-opacity: 0.75; stroke: #000000; stroke-opacity: 0.75; stroke-width: 0.5"/>
     <use xlink:href="#m43f9aa7991" x="66.537973" y="49.490373" style="fill: #1f77b4; fill-opacity: 0.75; stroke: #000000; stroke-opacity: 0.75; stroke-width: 0.5"/>
     <use xlink:href="#m43f9aa7991" x="66.286099" y="58.13988" style="fill: #1f77b4; fill-opacity: 0.75; stroke: #000000; stroke-opacity: 0.75; stroke-width: 0.5"/>
     <use xlink:href="#m43f9aa7991" x="65.477033" y="46.775388" style="fill: #1f77b4; fill-opacity: 0.75; stroke: #000000; stroke-opacity: 0.75; stroke-width: 0.5"/>
     <use xlink:href="#m43f9aa7991" x="62.039557" y="52.672438" style="fill: #1f77b4; fill-opacity: 0.75; stroke: #000000; stroke-opacity: 0.75; stroke-width: 0.5"/>
     <use xlink:href="#m43f9aa7991" x="63.742852" y="46.8845" style="fill: #1f77b4; fill-opacity: 0.75; stroke: #000000; stroke-opacity: 0.75; stroke-width: 0.5"/>
     <use xlink:href="#m43f9aa7991" x="64.809579" y="54.690664" style="fill: #1f77b4; fill-opacity: 0.75; stroke: #000000; stroke-opacity: 0.75; stroke-width: 0.5"/>
     <use xlink:href="#m43f9aa7991" x="62.799837" y="49.838476" style="fill: #1f77b4; fill-opacity: 0.75; stroke: #000000; stroke-opacity: 0.75; stroke-width: 0.5"/>
     <use xlink:href="#m43f9aa7991" x="63.059435" y="56.785147" style="fill: #1f77b4; fill-opacity: 0.75; stroke: #000000; stroke-opacity: 0.75; stroke-width: 0.5"/>
     <use xlink:href="#m43f9aa7991" x="64.564624" y="60.298299" style="fill: #1f77b4; fill-opacity: 0.75; stroke: #000000; stroke-opacity: 0.75; stroke-width: 0.5"/>
     <use xlink:href="#m43f9aa7991" x="65.317139" y="54.509024" style="fill: #1f77b4; fill-opacity: 0.75; stroke: #000000; stroke-opacity: 0.75; stroke-width: 0.5"/>
     <use xlink:href="#m43f9aa7991" x="95.241071" y="52.019679" style="fill: #1f77b4; fill-opacity: 0.75; stroke: #000000; stroke-opacity: 0.75; stroke-width: 0.5"/>
     <use xlink:href="#m43f9aa7991" x="63.662753" y="61.718334" style="fill: #1f77b4; fill-opacity: 0.75; stroke: #000000; stroke-opacity: 0.75; stroke-width: 0.5"/>
     <use xlink:href="#m43f9aa7991" x="63.705432" y="52.848713" style="fill: #1f77b4; fill-opacity: 0.75; stroke: #000000; stroke-opacity: 0.75; stroke-width: 0.5"/>
     <use xlink:href="#m43f9aa7991" x="63.529562" y="51.661038" style="fill: #1f77b4; fill-opacity: 0.75; stroke: #000000; stroke-opacity: 0.75; stroke-width: 0.5"/>
     <use xlink:href="#m43f9aa7991" x="64.08297" y="57.19384" style="fill: #1f77b4; fill-opacity: 0.75; stroke: #000000; stroke-opacity: 0.75; stroke-width: 0.5"/>
     <use xlink:href="#m43f9aa7991" x="64.5692" y="62.73415" style="fill: #1f77b4; fill-opacity: 0.75; stroke: #000000; stroke-opacity: 0.75; stroke-width: 0.5"/>
     <use xlink:href="#m43f9aa7991" x="68.659493" y="62.646491" style="fill: #1f77b4; fill-opacity: 0.75; stroke: #000000; stroke-opacity: 0.75; stroke-width: 0.5"/>
     <use xlink:href="#m43f9aa7991" x="64.418078" y="61.522705" style="fill: #1f77b4; fill-opacity: 0.75; stroke: #000000; stroke-opacity: 0.75; stroke-width: 0.5"/>
     <use xlink:href="#m43f9aa7991" x="69.166103" y="60.685832" style="fill: #1f77b4; fill-opacity: 0.75; stroke: #000000; stroke-opacity: 0.75; stroke-width: 0.5"/>
     <use xlink:href="#m43f9aa7991" x="64.932857" y="55.135734" style="fill: #1f77b4; fill-opacity: 0.75; stroke: #000000; stroke-opacity: 0.75; stroke-width: 0.5"/>
     <use xlink:href="#m43f9aa7991" x="64.035203" y="47.579605" style="fill: #1f77b4; fill-opacity: 0.75; stroke: #000000; stroke-opacity: 0.75; stroke-width: 0.5"/>
     <use xlink:href="#m43f9aa7991" x="64.015558" y="56.81053" style="fill: #1f77b4; fill-opacity: 0.75; stroke: #000000; stroke-opacity: 0.75; stroke-width: 0.5"/>
     <use xlink:href="#m43f9aa7991" x="63.998175" y="48.654255" style="fill: #1f77b4; fill-opacity: 0.75; stroke: #000000; stroke-opacity: 0.75; stroke-width: 0.5"/>
     <use xlink:href="#m43f9aa7991" x="54.24839" y="52.389246" style="fill: #1f77b4; fill-opacity: 0.75; stroke: #000000; stroke-opacity: 0.75; stroke-width: 0.5"/>
     <use xlink:href="#m43f9aa7991" x="64.057734" y="62.132735" style="fill: #1f77b4; fill-opacity: 0.75; stroke: #000000; stroke-opacity: 0.75; stroke-width: 0.5"/>
     <use xlink:href="#m43f9aa7991" x="63.358429" y="56.253764" style="fill: #1f77b4; fill-opacity: 0.75; stroke: #000000; stroke-opacity: 0.75; stroke-width: 0.5"/>
     <use xlink:href="#m43f9aa7991" x="62.978658" y="57.781778" style="fill: #1f77b4; fill-opacity: 0.75; stroke: #000000; stroke-opacity: 0.75; stroke-width: 0.5"/>
     <use xlink:href="#m43f9aa7991" x="66.893395" y="59.403041" style="fill: #1f77b4; fill-opacity: 0.75; stroke: #000000; stroke-opacity: 0.75; stroke-width: 0.5"/>
     <use xlink:href="#m43f9aa7991" x="208.884495" y="52.489066" style="fill: #1f77b4; fill-opacity: 0.75; stroke: #000000; stroke-opacity: 0.75; stroke-width: 0.5"/>
     <use xlink:href="#m43f9aa7991" x="140.571811" y="58.303616" style="fill: #1f77b4; fill-opacity: 0.75; stroke: #000000; stroke-opacity: 0.75; stroke-width: 0.5"/>
     <use xlink:href="#m43f9aa7991" x="63.395317" y="48.655833" style="fill: #1f77b4; fill-opacity: 0.75; stroke: #000000; stroke-opacity: 0.75; stroke-width: 0.5"/>
     <use xlink:href="#m43f9aa7991" x="98.730638" y="59.40395" style="fill: #1f77b4; fill-opacity: 0.75; stroke: #000000; stroke-opacity: 0.75; stroke-width: 0.5"/>
     <use xlink:href="#m43f9aa7991" x="60.95891" y="56.057351" style="fill: #1f77b4; fill-opacity: 0.75; stroke: #000000; stroke-opacity: 0.75; stroke-width: 0.5"/>
     <use xlink:href="#m43f9aa7991" x="215.874604" y="54.61089" style="fill: #1f77b4; fill-opacity: 0.75; stroke: #000000; stroke-opacity: 0.75; stroke-width: 0.5"/>
     <use xlink:href="#m43f9aa7991" x="64.44245" y="61.676549" style="fill: #1f77b4; fill-opacity: 0.75; stroke: #000000; stroke-opacity: 0.75; stroke-width: 0.5"/>
     <use xlink:href="#m43f9aa7991" x="85.541165" y="51.12963" style="fill: #1f77b4; fill-opacity: 0.75; stroke: #000000; stroke-opacity: 0.75; stroke-width: 0.5"/>
     <use xlink:href="#m43f9aa7991" x="64.148383" y="56.815424" style="fill: #1f77b4; fill-opacity: 0.75; stroke: #000000; stroke-opacity: 0.75; stroke-width: 0.5"/>
     <use xlink:href="#m43f9aa7991" x="63.321104" y="53.549088" style="fill: #1f77b4; fill-opacity: 0.75; stroke: #000000; stroke-opacity: 0.75; stroke-width: 0.5"/>
     <use xlink:href="#m43f9aa7991" x="71.199829" y="54.03623" style="fill: #1f77b4; fill-opacity: 0.75; stroke: #000000; stroke-opacity: 0.75; stroke-width: 0.5"/>
     <use xlink:href="#m43f9aa7991" x="67.127876" y="52.163526" style="fill: #1f77b4; fill-opacity: 0.75; stroke: #000000; stroke-opacity: 0.75; stroke-width: 0.5"/>
     <use xlink:href="#m43f9aa7991" x="64.469429" y="54.896732" style="fill: #1f77b4; fill-opacity: 0.75; stroke: #000000; stroke-opacity: 0.75; stroke-width: 0.5"/>
     <use xlink:href="#m43f9aa7991" x="63.649001" y="48.692909" style="fill: #1f77b4; fill-opacity: 0.75; stroke: #000000; stroke-opacity: 0.75; stroke-width: 0.5"/>
     <use xlink:href="#m43f9aa7991" x="61.146725" y="51.840677" style="fill: #1f77b4; fill-opacity: 0.75; stroke: #000000; stroke-opacity: 0.75; stroke-width: 0.5"/>
     <use xlink:href="#m43f9aa7991" x="67.093271" y="57.651564" style="fill: #1f77b4; fill-opacity: 0.75; stroke: #000000; stroke-opacity: 0.75; stroke-width: 0.5"/>
     <use xlink:href="#m43f9aa7991" x="62.857724" y="51.375456" style="fill: #1f77b4; fill-opacity: 0.75; stroke: #000000; stroke-opacity: 0.75; stroke-width: 0.5"/>
     <use xlink:href="#m43f9aa7991" x="159.349517" y="55.181529" style="fill: #1f77b4; fill-opacity: 0.75; stroke: #000000; stroke-opacity: 0.75; stroke-width: 0.5"/>
     <use xlink:href="#m43f9aa7991" x="65.374399" y="47.449735" style="fill: #1f77b4; fill-opacity: 0.75; stroke: #000000; stroke-opacity: 0.75; stroke-width: 0.5"/>
     <use xlink:href="#m43f9aa7991" x="63.587259" y="52.112797" style="fill: #1f77b4; fill-opacity: 0.75; stroke: #000000; stroke-opacity: 0.75; stroke-width: 0.5"/>
     <use xlink:href="#m43f9aa7991" x="66.080313" y="55.785639" style="fill: #1f77b4; fill-opacity: 0.75; stroke: #000000; stroke-opacity: 0.75; stroke-width: 0.5"/>
     <use xlink:href="#m43f9aa7991" x="64.058604" y="46.23169" style="fill: #1f77b4; fill-opacity: 0.75; stroke: #000000; stroke-opacity: 0.75; stroke-width: 0.5"/>
     <use xlink:href="#m43f9aa7991" x="66.86076" y="49.112599" style="fill: #1f77b4; fill-opacity: 0.75; stroke: #000000; stroke-opacity: 0.75; stroke-width: 0.5"/>
     <use xlink:href="#m43f9aa7991" x="65.508433" y="59.831915" style="fill: #1f77b4; fill-opacity: 0.75; stroke: #000000; stroke-opacity: 0.75; stroke-width: 0.5"/>
     <use xlink:href="#m43f9aa7991" x="64.749546" y="60.252382" style="fill: #1f77b4; fill-opacity: 0.75; stroke: #000000; stroke-opacity: 0.75; stroke-width: 0.5"/>
     <use xlink:href="#m43f9aa7991" x="103.552183" y="59.865759" style="fill: #1f77b4; fill-opacity: 0.75; stroke: #000000; stroke-opacity: 0.75; stroke-width: 0.5"/>
     <use xlink:href="#m43f9aa7991" x="63.754122" y="52.210233" style="fill: #1f77b4; fill-opacity: 0.75; stroke: #000000; stroke-opacity: 0.75; stroke-width: 0.5"/>
     <use xlink:href="#m43f9aa7991" x="63.939335" y="61.690133" style="fill: #1f77b4; fill-opacity: 0.75; stroke: #000000; stroke-opacity: 0.75; stroke-width: 0.5"/>
     <use xlink:href="#m43f9aa7991" x="64.165945" y="54.21551" style="fill: #1f77b4; fill-opacity: 0.75; stroke: #000000; stroke-opacity: 0.75; stroke-width: 0.5"/>
     <use xlink:href="#m43f9aa7991" x="64.057667" y="62.333229" style="fill: #1f77b4; fill-opacity: 0.75; stroke: #000000; stroke-opacity: 0.75; stroke-width: 0.5"/>
     <use xlink:href="#m43f9aa7991" x="63.755576" y="61.612631" style="fill: #1f77b4; fill-opacity: 0.75; stroke: #000000; stroke-opacity: 0.75; stroke-width: 0.5"/>
     <use xlink:href="#m43f9aa7991" x="64.146188" y="48.046282" style="fill: #1f77b4; fill-opacity: 0.75; stroke: #000000; stroke-opacity: 0.75; stroke-width: 0.5"/>
     <use xlink:href="#m43f9aa7991" x="65.310914" y="51.687468" style="fill: #1f77b4; fill-opacity: 0.75; stroke: #000000; stroke-opacity: 0.75; stroke-width: 0.5"/>
     <use xlink:href="#m43f9aa7991" x="63.882074" y="49.419312" style="fill: #1f77b4; fill-opacity: 0.75; stroke: #000000; stroke-opacity: 0.75; stroke-width: 0.5"/>
     <use xlink:href="#m43f9aa7991" x="63.588165" y="62.427224" style="fill: #1f77b4; fill-opacity: 0.75; stroke: #000000; stroke-opacity: 0.75; stroke-width: 0.5"/>
     <use xlink:href="#m43f9aa7991" x="63.608529" y="57.280471" style="fill: #1f77b4; fill-opacity: 0.75; stroke: #000000; stroke-opacity: 0.75; stroke-width: 0.5"/>
     <use xlink:href="#m43f9aa7991" x="60.5438" y="53.229596" style="fill: #1f77b4; fill-opacity: 0.75; stroke: #000000; stroke-opacity: 0.75; stroke-width: 0.5"/>
     <use xlink:href="#m43f9aa7991" x="51.150843" y="60.112486" style="fill: #1f77b4; fill-opacity: 0.75; stroke: #000000; stroke-opacity: 0.75; stroke-width: 0.5"/>
     <use xlink:href="#m43f9aa7991" x="82.426239" y="51.179119" style="fill: #1f77b4; fill-opacity: 0.75; stroke: #000000; stroke-opacity: 0.75; stroke-width: 0.5"/>
     <use xlink:href="#m43f9aa7991" x="65.41284" y="62.806421" style="fill: #1f77b4; fill-opacity: 0.75; stroke: #000000; stroke-opacity: 0.75; stroke-width: 0.5"/>
     <use xlink:href="#m43f9aa7991" x="69.76722" y="50.338378" style="fill: #1f77b4; fill-opacity: 0.75; stroke: #000000; stroke-opacity: 0.75; stroke-width: 0.5"/>
     <use xlink:href="#m43f9aa7991" x="68.174777" y="53.598074" style="fill: #1f77b4; fill-opacity: 0.75; stroke: #000000; stroke-opacity: 0.75; stroke-width: 0.5"/>
     <use xlink:href="#m43f9aa7991" x="63.540203" y="55.213927" style="fill: #1f77b4; fill-opacity: 0.75; stroke: #000000; stroke-opacity: 0.75; stroke-width: 0.5"/>
     <use xlink:href="#m43f9aa7991" x="62.144475" y="58.321685" style="fill: #1f77b4; fill-opacity: 0.75; stroke: #000000; stroke-opacity: 0.75; stroke-width: 0.5"/>
     <use xlink:href="#m43f9aa7991" x="63.867218" y="54.974814" style="fill: #1f77b4; fill-opacity: 0.75; stroke: #000000; stroke-opacity: 0.75; stroke-width: 0.5"/>
     <use xlink:href="#m43f9aa7991" x="65.024857" y="50.572568" style="fill: #1f77b4; fill-opacity: 0.75; stroke: #000000; stroke-opacity: 0.75; stroke-width: 0.5"/>
     <use xlink:href="#m43f9aa7991" x="63.151496" y="57.672168" style="fill: #1f77b4; fill-opacity: 0.75; stroke: #000000; stroke-opacity: 0.75; stroke-width: 0.5"/>
     <use xlink:href="#m43f9aa7991" x="63.773978" y="48.866792" style="fill: #1f77b4; fill-opacity: 0.75; stroke: #000000; stroke-opacity: 0.75; stroke-width: 0.5"/>
     <use xlink:href="#m43f9aa7991" x="64.128277" y="58.69622" style="fill: #1f77b4; fill-opacity: 0.75; stroke: #000000; stroke-opacity: 0.75; stroke-width: 0.5"/>
     <use xlink:href="#m43f9aa7991" x="63.686069" y="56.552819" style="fill: #1f77b4; fill-opacity: 0.75; stroke: #000000; stroke-opacity: 0.75; stroke-width: 0.5"/>
     <use xlink:href="#m43f9aa7991" x="63.814092" y="55.28085" style="fill: #1f77b4; fill-opacity: 0.75; stroke: #000000; stroke-opacity: 0.75; stroke-width: 0.5"/>
     <use xlink:href="#m43f9aa7991" x="68.149538" y="59.658057" style="fill: #1f77b4; fill-opacity: 0.75; stroke: #000000; stroke-opacity: 0.75; stroke-width: 0.5"/>
     <use xlink:href="#m43f9aa7991" x="68.096217" y="57.850314" style="fill: #1f77b4; fill-opacity: 0.75; stroke: #000000; stroke-opacity: 0.75; stroke-width: 0.5"/>
     <use xlink:href="#m43f9aa7991" x="70.59513" y="58.23678" style="fill: #1f77b4; fill-opacity: 0.75; stroke: #000000; stroke-opacity: 0.75; stroke-width: 0.5"/>
     <use xlink:href="#m43f9aa7991" x="63.537414" y="58.734589" style="fill: #1f77b4; fill-opacity: 0.75; stroke: #000000; stroke-opacity: 0.75; stroke-width: 0.5"/>
     <use xlink:href="#m43f9aa7991" x="67.129018" y="62.042705" style="fill: #1f77b4; fill-opacity: 0.75; stroke: #000000; stroke-opacity: 0.75; stroke-width: 0.5"/>
     <use xlink:href="#m43f9aa7991" x="67.165287" y="60.393267" style="fill: #1f77b4; fill-opacity: 0.75; stroke: #000000; stroke-opacity: 0.75; stroke-width: 0.5"/>
     <use xlink:href="#m43f9aa7991" x="66.634769" y="53.330149" style="fill: #1f77b4; fill-opacity: 0.75; stroke: #000000; stroke-opacity: 0.75; stroke-width: 0.5"/>
     <use xlink:href="#m43f9aa7991" x="74.507485" y="60.715069" style="fill: #1f77b4; fill-opacity: 0.75; stroke: #000000; stroke-opacity: 0.75; stroke-width: 0.5"/>
     <use xlink:href="#m43f9aa7991" x="63.839636" y="53.906161" style="fill: #1f77b4; fill-opacity: 0.75; stroke: #000000; stroke-opacity: 0.75; stroke-width: 0.5"/>
     <use xlink:href="#m43f9aa7991" x="70.168616" y="59.846367" style="fill: #1f77b4; fill-opacity: 0.75; stroke: #000000; stroke-opacity: 0.75; stroke-width: 0.5"/>
     <use xlink:href="#m43f9aa7991" x="62.222514" y="53.243863" style="fill: #1f77b4; fill-opacity: 0.75; stroke: #000000; stroke-opacity: 0.75; stroke-width: 0.5"/>
     <use xlink:href="#m43f9aa7991" x="59.529562" y="60.151168" style="fill: #1f77b4; fill-opacity: 0.75; stroke: #000000; stroke-opacity: 0.75; stroke-width: 0.5"/>
     <use xlink:href="#m43f9aa7991" x="66.743072" y="48.688368" style="fill: #1f77b4; fill-opacity: 0.75; stroke: #000000; stroke-opacity: 0.75; stroke-width: 0.5"/>
     <use xlink:href="#m43f9aa7991" x="67.310169" y="48.631268" style="fill: #1f77b4; fill-opacity: 0.75; stroke: #000000; stroke-opacity: 0.75; stroke-width: 0.5"/>
     <use xlink:href="#m43f9aa7991" x="82.467091" y="52.94556" style="fill: #1f77b4; fill-opacity: 0.75; stroke: #000000; stroke-opacity: 0.75; stroke-width: 0.5"/>
     <use xlink:href="#m43f9aa7991" x="64.266167" y="58.47062" style="fill: #1f77b4; fill-opacity: 0.75; stroke: #000000; stroke-opacity: 0.75; stroke-width: 0.5"/>
     <use xlink:href="#m43f9aa7991" x="46.145455" y="62.336566" style="fill: #1f77b4; fill-opacity: 0.75; stroke: #000000; stroke-opacity: 0.75; stroke-width: 0.5"/>
     <use xlink:href="#m43f9aa7991" x="75.922496" y="47.574204" style="fill: #1f77b4; fill-opacity: 0.75; stroke: #000000; stroke-opacity: 0.75; stroke-width: 0.5"/>
     <use xlink:href="#m43f9aa7991" x="64.659179" y="48.787174" style="fill: #1f77b4; fill-opacity: 0.75; stroke: #000000; stroke-opacity: 0.75; stroke-width: 0.5"/>
     <use xlink:href="#m43f9aa7991" x="63.939346" y="55.274356" style="fill: #1f77b4; fill-opacity: 0.75; stroke: #000000; stroke-opacity: 0.75; stroke-width: 0.5"/>
     <use xlink:href="#m43f9aa7991" x="64.402999" y="50.321396" style="fill: #1f77b4; fill-opacity: 0.75; stroke: #000000; stroke-opacity: 0.75; stroke-width: 0.5"/>
     <use xlink:href="#m43f9aa7991" x="61.72285" y="52.924316" style="fill: #1f77b4; fill-opacity: 0.75; stroke: #000000; stroke-opacity: 0.75; stroke-width: 0.5"/>
     <use xlink:href="#m43f9aa7991" x="80.564948" y="61.827658" style="fill: #1f77b4; fill-opacity: 0.75; stroke: #000000; stroke-opacity: 0.75; stroke-width: 0.5"/>
     <use xlink:href="#m43f9aa7991" x="64.572321" y="56.808862" style="fill: #1f77b4; fill-opacity: 0.75; stroke: #000000; stroke-opacity: 0.75; stroke-width: 0.5"/>
     <use xlink:href="#m43f9aa7991" x="208.767871" y="59.653923" style="fill: #1f77b4; fill-opacity: 0.75; stroke: #000000; stroke-opacity: 0.75; stroke-width: 0.5"/>
     <use xlink:href="#m43f9aa7991" x="63.942795" y="51.304843" style="fill: #1f77b4; fill-opacity: 0.75; stroke: #000000; stroke-opacity: 0.75; stroke-width: 0.5"/>
     <use xlink:href="#m43f9aa7991" x="65.332888" y="59.141573" style="fill: #1f77b4; fill-opacity: 0.75; stroke: #000000; stroke-opacity: 0.75; stroke-width: 0.5"/>
     <use xlink:href="#m43f9aa7991" x="178.906028" y="52.160937" style="fill: #1f77b4; fill-opacity: 0.75; stroke: #000000; stroke-opacity: 0.75; stroke-width: 0.5"/>
     <use xlink:href="#m43f9aa7991" x="66.419085" y="57.817182" style="fill: #1f77b4; fill-opacity: 0.75; stroke: #000000; stroke-opacity: 0.75; stroke-width: 0.5"/>
     <use xlink:href="#m43f9aa7991" x="67.072864" y="47.232314" style="fill: #1f77b4; fill-opacity: 0.75; stroke: #000000; stroke-opacity: 0.75; stroke-width: 0.5"/>
     <use xlink:href="#m43f9aa7991" x="63.776616" y="52.433672" style="fill: #1f77b4; fill-opacity: 0.75; stroke: #000000; stroke-opacity: 0.75; stroke-width: 0.5"/>
     <use xlink:href="#m43f9aa7991" x="62.636439" y="59.446649" style="fill: #1f77b4; fill-opacity: 0.75; stroke: #000000; stroke-opacity: 0.75; stroke-width: 0.5"/>
     <use xlink:href="#m43f9aa7991" x="63.573251" y="55.038439" style="fill: #1f77b4; fill-opacity: 0.75; stroke: #000000; stroke-opacity: 0.75; stroke-width: 0.5"/>
     <use xlink:href="#m43f9aa7991" x="63.978546" y="58.014138" style="fill: #1f77b4; fill-opacity: 0.75; stroke: #000000; stroke-opacity: 0.75; stroke-width: 0.5"/>
     <use xlink:href="#m43f9aa7991" x="65.938718" y="46.667713" style="fill: #1f77b4; fill-opacity: 0.75; stroke: #000000; stroke-opacity: 0.75; stroke-width: 0.5"/>
     <use xlink:href="#m43f9aa7991" x="64.817127" y="60.431363" style="fill: #1f77b4; fill-opacity: 0.75; stroke: #000000; stroke-opacity: 0.75; stroke-width: 0.5"/>
    </g>
   </g>
   <g id="text_5">
    <!-- 145 Non-Silent Catalog mshA Mutations -->
    <g transform="translate(27.856875 2.96) scale(0.12 -0.12)">
     <defs>
      <path id="DejaVuSans-34" d="M 2419 4116 
L 825 1625 
L 2419 1625 
L 2419 4116 
z
M 2253 4666 
L 3047 4666 
L 3047 1625 
L 3713 1625 
L 3713 1100 
L 3047 1100 
L 3047 0 
L 2419 0 
L 2419 1100 
L 313 1100 
L 313 1709 
L 2253 4666 
z
" transform="scale(0.015625)"/>
      <path id="DejaVuSans-35" d="M 691 4666 
L 3169 4666 
L 3169 4134 
L 1269 4134 
L 1269 2991 
Q 1406 3038 1543 3061 
Q 1681 3084 1819 3084 
Q 2600 3084 3056 2656 
Q 3513 2228 3513 1497 
Q 3513 744 3044 326 
Q 2575 -91 1722 -91 
Q 1428 -91 1123 -41 
Q 819 9 494 109 
L 494 744 
Q 775 591 1075 516 
Q 1375 441 1709 441 
Q 2250 441 2565 725 
Q 2881 1009 2881 1497 
Q 2881 1984 2565 2268 
Q 2250 2553 1709 2553 
Q 1456 2553 1204 2497 
Q 953 2441 691 2322 
L 691 4666 
z
" transform="scale(0.015625)"/>
      <path id="DejaVuSans-4e" d="M 628 4666 
L 1478 4666 
L 3547 763 
L 3547 4666 
L 4159 4666 
L 4159 0 
L 3309 0 
L 1241 3903 
L 1241 0 
L 628 0 
L 628 4666 
z
" transform="scale(0.015625)"/>
      <path id="DejaVuSans-2d" d="M 313 2009 
L 1997 2009 
L 1997 1497 
L 313 1497 
L 313 2009 
z
" transform="scale(0.015625)"/>
      <path id="DejaVuSans-53" d="M 3425 4513 
L 3425 3897 
Q 3066 4069 2747 4153 
Q 2428 4238 2131 4238 
Q 1616 4238 1336 4038 
Q 1056 3838 1056 3469 
Q 1056 3159 1242 3001 
Q 1428 2844 1947 2747 
L 2328 2669 
Q 3034 2534 3370 2195 
Q 3706 1856 3706 1288 
Q 3706 609 3251 259 
Q 2797 -91 1919 -91 
Q 1588 -91 1214 -16 
Q 841 59 441 206 
L 441 856 
Q 825 641 1194 531 
Q 1563 422 1919 422 
Q 2459 422 2753 634 
Q 3047 847 3047 1241 
Q 3047 1584 2836 1778 
Q 2625 1972 2144 2069 
L 1759 2144 
Q 1053 2284 737 2584 
Q 422 2884 422 3419 
Q 422 4038 858 4394 
Q 1294 4750 2059 4750 
Q 2388 4750 2728 4690 
Q 3069 4631 3425 4513 
z
" transform="scale(0.015625)"/>
      <path id="DejaVuSans-6c" d="M 603 4863 
L 1178 4863 
L 1178 0 
L 603 0 
L 603 4863 
z
" transform="scale(0.015625)"/>
      <path id="DejaVuSans-73" d="M 2834 3397 
L 2834 2853 
Q 2591 2978 2328 3040 
Q 2066 3103 1784 3103 
Q 1356 3103 1142 2972 
Q 928 2841 928 2578 
Q 928 2378 1081 2264 
Q 1234 2150 1697 2047 
L 1894 2003 
Q 2506 1872 2764 1633 
Q 3022 1394 3022 966 
Q 3022 478 2636 193 
Q 2250 -91 1575 -91 
Q 1294 -91 989 -36 
Q 684 19 347 128 
L 347 722 
Q 666 556 975 473 
Q 1284 391 1588 391 
Q 1994 391 2212 530 
Q 2431 669 2431 922 
Q 2431 1156 2273 1281 
Q 2116 1406 1581 1522 
L 1381 1569 
Q 847 1681 609 1914 
Q 372 2147 372 2553 
Q 372 3047 722 3315 
Q 1072 3584 1716 3584 
Q 2034 3584 2315 3537 
Q 2597 3491 2834 3397 
z
" transform="scale(0.015625)"/>
      <path id="DejaVuSans-41" d="M 2188 4044 
L 1331 1722 
L 3047 1722 
L 2188 4044 
z
M 1831 4666 
L 2547 4666 
L 4325 0 
L 3669 0 
L 3244 1197 
L 1141 1197 
L 716 0 
L 50 0 
L 1831 4666 
z
" transform="scale(0.015625)"/>
      <path id="DejaVuSans-75" d="M 544 1381 
L 544 3500 
L 1119 3500 
L 1119 1403 
Q 1119 906 1312 657 
Q 1506 409 1894 409 
Q 2359 409 2629 706 
Q 2900 1003 2900 1516 
L 2900 3500 
L 3475 3500 
L 3475 0 
L 2900 0 
L 2900 538 
Q 2691 219 2414 64 
Q 2138 -91 1772 -91 
Q 1169 -91 856 284 
Q 544 659 544 1381 
z
M 1991 3584 
L 1991 3584 
z
" transform="scale(0.015625)"/>
     </defs>
     <use xlink:href="#DejaVuSans-31"/>
     <use xlink:href="#DejaVuSans-34" x="63.623047"/>
     <use xlink:href="#DejaVuSans-35" x="127.246094"/>
     <use xlink:href="#DejaVuSans-20" x="190.869141"/>
     <use xlink:href="#DejaVuSans-4e" x="222.65625"/>
     <use xlink:href="#DejaVuSans-6f" x="297.460938"/>
     <use xlink:href="#DejaVuSans-6e" x="358.642578"/>
     <use xlink:href="#DejaVuSans-2d" x="422.021484"/>
     <use xlink:href="#DejaVuSans-53" x="458.105469"/>
     <use xlink:href="#DejaVuSans-69" x="521.582031"/>
     <use xlink:href="#DejaVuSans-6c" x="549.365234"/>
     <use xlink:href="#DejaVuSans-65" x="577.148438"/>
     <use xlink:href="#DejaVuSans-6e" x="638.671875"/>
     <use xlink:href="#DejaVuSans-74" x="702.050781"/>
     <use xlink:href="#DejaVuSans-20" x="741.259766"/>
     <use xlink:href="#DejaVuSans-43" x="773.046875"/>
     <use xlink:href="#DejaVuSans-61" x="842.871094"/>
     <use xlink:href="#DejaVuSans-74" x="904.150391"/>
     <use xlink:href="#DejaVuSans-61" x="943.359375"/>
     <use xlink:href="#DejaVuSans-6c" x="1004.638672"/>
     <use xlink:href="#DejaVuSans-6f" x="1032.421875"/>
     <use xlink:href="#DejaVuSans-67" x="1093.603516"/>
     <use xlink:href="#DejaVuSans-20" x="1157.080078"/>
     <use xlink:href="#DejaVuSans-6d" x="1188.867188"/>
     <use xlink:href="#DejaVuSans-73" x="1286.279297"/>
     <use xlink:href="#DejaVuSans-68" x="1338.378906"/>
     <use xlink:href="#DejaVuSans-41" x="1401.757812"/>
     <use xlink:href="#DejaVuSans-20" x="1470.166016"/>
     <use xlink:href="#DejaVuSans-4d" x="1501.953125"/>
     <use xlink:href="#DejaVuSans-75" x="1588.232422"/>
     <use xlink:href="#DejaVuSans-74" x="1651.611328"/>
     <use xlink:href="#DejaVuSans-61" x="1690.820312"/>
     <use xlink:href="#DejaVuSans-74" x="1752.099609"/>
     <use xlink:href="#DejaVuSans-69" x="1791.308594"/>
     <use xlink:href="#DejaVuSans-6f" x="1819.091797"/>
     <use xlink:href="#DejaVuSans-6e" x="1880.273438"/>
     <use xlink:href="#DejaVuSans-73" x="1943.652344"/>
    </g>
   </g>
   <g id="legend_1">
    <g id="patch_5">
     <path d="M 71.304375 93.12 
L 223.895625 93.12 
Q 225.095625 93.12 225.095625 91.92 
L 225.095625 83.713125 
Q 225.095625 82.513125 223.895625 82.513125 
L 71.304375 82.513125 
Q 70.104375 82.513125 70.104375 83.713125 
L 70.104375 91.92 
Q 70.104375 93.12 71.304375 93.12 
z
" style="fill: #ffffff; opacity: 0.8; stroke: #cccccc; stroke-linejoin: miter"/>
    </g>
    <g id="line2d_7">
     <path d="M 72.504375 87.372188 
L 78.504375 87.372188 
L 84.504375 87.372188 
" style="fill: none; stroke-dasharray: 1.85,0.8; stroke-dashoffset: 0; stroke: #000000; stroke-width: 0.5"/>
    </g>
    <g id="text_6">
     <!-- H37Rv = 1.09 µg/mL -->
     <g transform="translate(89.304375 89.472188) scale(0.06 -0.06)">
      <defs>
       <path id="DejaVuSans-48" d="M 628 4666 
L 1259 4666 
L 1259 2753 
L 3553 2753 
L 3553 4666 
L 4184 4666 
L 4184 0 
L 3553 0 
L 3553 2222 
L 1259 2222 
L 1259 0 
L 628 0 
L 628 4666 
z
" transform="scale(0.015625)"/>
       <path id="DejaVuSans-33" d="M 2597 2516 
Q 3050 2419 3304 2112 
Q 3559 1806 3559 1356 
Q 3559 666 3084 287 
Q 2609 -91 1734 -91 
Q 1441 -91 1130 -33 
Q 819 25 488 141 
L 488 750 
Q 750 597 1062 519 
Q 1375 441 1716 441 
Q 2309 441 2620 675 
Q 2931 909 2931 1356 
Q 2931 1769 2642 2001 
Q 2353 2234 1838 2234 
L 1294 2234 
L 1294 2753 
L 1863 2753 
Q 2328 2753 2575 2939 
Q 2822 3125 2822 3475 
Q 2822 3834 2567 4026 
Q 2313 4219 1838 4219 
Q 1578 4219 1281 4162 
Q 984 4106 628 3988 
L 628 4550 
Q 988 4650 1302 4700 
Q 1616 4750 1894 4750 
Q 2613 4750 3031 4423 
Q 3450 4097 3450 3541 
Q 3450 3153 3228 2886 
Q 3006 2619 2597 2516 
z
" transform="scale(0.015625)"/>
       <path id="DejaVuSans-37" d="M 525 4666 
L 3525 4666 
L 3525 4397 
L 1831 0 
L 1172 0 
L 2766 4134 
L 525 4134 
L 525 4666 
z
" transform="scale(0.015625)"/>
       <path id="DejaVuSans-52" d="M 2841 2188 
Q 3044 2119 3236 1894 
Q 3428 1669 3622 1275 
L 4263 0 
L 3584 0 
L 2988 1197 
Q 2756 1666 2539 1819 
Q 2322 1972 1947 1972 
L 1259 1972 
L 1259 0 
L 628 0 
L 628 4666 
L 2053 4666 
Q 2853 4666 3247 4331 
Q 3641 3997 3641 3322 
Q 3641 2881 3436 2590 
Q 3231 2300 2841 2188 
z
M 1259 4147 
L 1259 2491 
L 2053 2491 
Q 2509 2491 2742 2702 
Q 2975 2913 2975 3322 
Q 2975 3731 2742 3939 
Q 2509 4147 2053 4147 
L 1259 4147 
z
" transform="scale(0.015625)"/>
       <path id="DejaVuSans-76" d="M 191 3500 
L 800 3500 
L 1894 563 
L 2988 3500 
L 3597 3500 
L 2284 0 
L 1503 0 
L 191 3500 
z
" transform="scale(0.015625)"/>
       <path id="DejaVuSans-3d" d="M 678 2906 
L 4684 2906 
L 4684 2381 
L 678 2381 
L 678 2906 
z
M 678 1631 
L 4684 1631 
L 4684 1100 
L 678 1100 
L 678 1631 
z
" transform="scale(0.015625)"/>
       <path id="DejaVuSans-2e" d="M 684 794 
L 1344 794 
L 1344 0 
L 684 0 
L 684 794 
z
" transform="scale(0.015625)"/>
       <path id="DejaVuSans-39" d="M 703 97 
L 703 672 
Q 941 559 1184 500 
Q 1428 441 1663 441 
Q 2288 441 2617 861 
Q 2947 1281 2994 2138 
Q 2813 1869 2534 1725 
Q 2256 1581 1919 1581 
Q 1219 1581 811 2004 
Q 403 2428 403 3163 
Q 403 3881 828 4315 
Q 1253 4750 1959 4750 
Q 2769 4750 3195 4129 
Q 3622 3509 3622 2328 
Q 3622 1225 3098 567 
Q 2575 -91 1691 -91 
Q 1453 -91 1209 -44 
Q 966 3 703 97 
z
M 1959 2075 
Q 2384 2075 2632 2365 
Q 2881 2656 2881 3163 
Q 2881 3666 2632 3958 
Q 2384 4250 1959 4250 
Q 1534 4250 1286 3958 
Q 1038 3666 1038 3163 
Q 1038 2656 1286 2365 
Q 1534 2075 1959 2075 
z
" transform="scale(0.015625)"/>
      </defs>
      <use xlink:href="#DejaVuSans-48"/>
      <use xlink:href="#DejaVuSans-33" x="75.195312"/>
      <use xlink:href="#DejaVuSans-37" x="138.818359"/>
      <use xlink:href="#DejaVuSans-52" x="202.441406"/>
      <use xlink:href="#DejaVuSans-76" x="271.923828"/>
      <use xlink:href="#DejaVuSans-20" x="331.103516"/>
      <use xlink:href="#DejaVuSans-3d" x="362.890625"/>
      <use xlink:href="#DejaVuSans-20" x="446.679688"/>
      <use xlink:href="#DejaVuSans-31" x="478.466797"/>
      <use xlink:href="#DejaVuSans-2e" x="542.089844"/>
      <use xlink:href="#DejaVuSans-30" x="573.876953"/>
      <use xlink:href="#DejaVuSans-39" x="637.5"/>
      <use xlink:href="#DejaVuSans-20" x="701.123047"/>
      <use xlink:href="#DejaVuSans-b5" x="732.910156"/>
      <use xlink:href="#DejaVuSans-67" x="796.533203"/>
      <use xlink:href="#DejaVuSans-2f" x="860.009766"/>
      <use xlink:href="#DejaVuSans-6d" x="893.701172"/>
      <use xlink:href="#DejaVuSans-4c" x="991.113281"/>
     </g>
    </g>
    <g id="line2d_8">
     <path d="M 164.115 87.372188 
L 170.115 87.372188 
L 176.115 87.372188 
" style="fill: none; stroke-dasharray: 1.85,0.8; stroke-dashoffset: 0; stroke: #ff6347; stroke-width: 0.5"/>
    </g>
    <g id="text_7">
     <!-- CC = 5 µg/mL -->
     <g transform="translate(180.915 89.472188) scale(0.06 -0.06)">
      <use xlink:href="#DejaVuSans-43"/>
      <use xlink:href="#DejaVuSans-43" x="69.824219"/>
      <use xlink:href="#DejaVuSans-20" x="139.648438"/>
      <use xlink:href="#DejaVuSans-3d" x="171.435547"/>
      <use xlink:href="#DejaVuSans-20" x="255.224609"/>
      <use xlink:href="#DejaVuSans-35" x="287.011719"/>
      <use xlink:href="#DejaVuSans-20" x="350.634766"/>
      <use xlink:href="#DejaVuSans-b5" x="382.421875"/>
      <use xlink:href="#DejaVuSans-67" x="446.044922"/>
      <use xlink:href="#DejaVuSans-2f" x="509.521484"/>
      <use xlink:href="#DejaVuSans-6d" x="543.212891"/>
      <use xlink:href="#DejaVuSans-4c" x="640.625"/>
     </g>
    </g>
   </g>
  </g>
 </g>
 <defs>
  <clipPath id="pc15d495bb8">
   <rect x="36" y="12.96" width="223.2" height="83.16"/>
  </clipPath>
 </defs>
</svg>
