<?xml version="1.0" encoding="utf-8" standalone="no"?>
<!DOCTYPE svg PUBLIC "-//W3C//DTD SVG 1.1//EN"
  "http://www.w3.org/Graphics/SVG/1.1/DTD/svg11.dtd">
<svg xmlns:xlink="http://www.w3.org/1999/xlink" width="497.38125pt" height="337.074375pt" viewBox="0 0 497.38125 337.074375" xmlns="http://www.w3.org/2000/svg" version="1.1">
 <metadata>
  <rdf:RDF xmlns:dc="http://purl.org/dc/elements/1.1/" xmlns:cc="http://creativecommons.org/ns#" xmlns:rdf="http://www.w3.org/1999/02/22-rdf-syntax-ns#">
   <cc:Work>
    <dc:type rdf:resource="http://purl.org/dc/dcmitype/StillImage"/>
    <dc:date>2025-02-21T17:45:37.262245</dc:date>
    <dc:format>image/svg+xml</dc:format>
    <dc:creator>
     <cc:Agent>
      <dc:title>Matplotlib v3.8.1, https://matplotlib.org/</dc:title>
     </cc:Agent>
    </dc:creator>
   </cc:Work>
  </rdf:RDF>
 </metadata>
 <defs>
  <style type="text/css">*{stroke-linejoin: round; stroke-linecap: butt}</style>
 </defs>
 <g id="figure_1">
  <g id="patch_1">
   <path d="M 0 337.074375 
L 497.38125 337.074375 
L 497.38125 0 
L 0 0 
z
" style="fill: #ffffff"/>
  </g>
  <g id="axes_1">
   <g id="patch_2">
    <path d="M 43.78125 299.518125 
L 490.18125 299.518125 
L 490.18125 22.318125 
L 43.78125 22.318125 
z
" style="fill: #ffffff"/>
   </g>
   <g id="PolyCollection_1">
    <defs>
     <path id="mbcd974bb10" d="M 64.072159 -314.75625 
L 64.072159 -314.75625 
L 83.396834 -314.75625 
L 83.396834 -314.75625 
L 89.252797 -314.75625 
L 89.252797 -314.75625 
L 92.180778 -314.75625 
L 92.180778 -314.75625 
L 92.766374 -314.75625 
L 92.766374 -314.75625 
L 95.108759 -314.75625 
L 95.108759 -309.452903 
L 103.892702 -309.452903 
L 103.892702 -309.452903 
L 106.820683 -309.452903 
L 106.820683 -308.773291 
L 108.577472 -308.773291 
L 108.577472 -308.773291 
L 109.163068 -308.773291 
L 109.163068 -308.773291 
L 113.262242 -308.773291 
L 113.262242 -308.773291 
L 116.190223 -308.773291 
L 116.190223 -308.773291 
L 127.902147 -308.773291 
L 127.902147 -308.773291 
L 131.415725 -308.773291 
L 131.415725 -308.773291 
L 133.172513 -308.773291 
L 133.172513 -308.773291 
L 136.686091 -308.773291 
L 136.686091 -308.773291 
L 140.199668 -308.773291 
L 140.199668 -308.773291 
L 140.785264 -308.773291 
L 140.785264 -308.773291 
L 144.298841 -308.773291 
L 144.298841 -308.773291 
L 145.470034 -308.773291 
L 145.470034 -308.773291 
L 146.641226 -308.773291 
L 146.641226 -308.773291 
L 147.226823 -308.773291 
L 147.226823 -307.689105 
L 147.812419 -307.689105 
L 147.812419 -307.689105 
L 149.569207 -307.689105 
L 149.569207 -307.689105 
L 154.253977 -307.689105 
L 154.253977 -307.689105 
L 155.42517 -307.689105 
L 155.42517 -307.689105 
L 158.938747 -307.689105 
L 158.938747 -307.689105 
L 160.695536 -307.689105 
L 160.695536 -306.563313 
L 161.281132 -306.563313 
L 161.281132 -305.459922 
L 162.452324 -305.459922 
L 162.452324 -305.459922 
L 163.037921 -305.459922 
L 163.037921 -305.459922 
L 165.965902 -305.459922 
L 165.965902 -304.366512 
L 166.551498 -304.366512 
L 166.551498 -304.366512 
L 168.308287 -304.366512 
L 168.308287 -304.366512 
L 168.893883 -304.366512 
L 168.893883 -304.366512 
L 169.479479 -304.366512 
L 169.479479 -303.277122 
L 170.065075 -303.277122 
L 170.065075 -303.277122 
L 170.650671 -303.277122 
L 170.650671 -302.190815 
L 171.236268 -302.190815 
L 171.236268 -301.111267 
L 171.821864 -301.111267 
L 171.821864 -301.111267 
L 172.993056 -301.111267 
L 172.993056 -301.111267 
L 173.578653 -301.111267 
L 173.578653 -301.111267 
L 174.164249 -301.111267 
L 174.164249 -301.111267 
L 174.749845 -301.111267 
L 174.749845 -301.111267 
L 178.263422 -301.111267 
L 178.263422 -301.111267 
L 178.849019 -301.111267 
L 178.849019 -301.111267 
L 181.777 -301.111267 
L 181.777 -301.111267 
L 185.290577 -301.111267 
L 185.290577 -300.007299 
L 191.146539 -300.007299 
L 191.146539 -298.918565 
L 193.488924 -298.918565 
L 193.488924 -297.842816 
L 196.416905 -297.842816 
L 196.416905 -297.842816 
L 197.002501 -297.842816 
L 197.002501 -296.773655 
L 205.200849 -296.773655 
L 205.200849 -295.714634 
L 208.714426 -295.714634 
L 208.714426 -294.664628 
L 215.741581 -294.664628 
L 215.741581 -294.664628 
L 219.255158 -294.664628 
L 219.255158 -294.664628 
L 220.42635 -294.664628 
L 220.42635 -293.609169 
L 223.939928 -293.609169 
L 223.939928 -293.609169 
L 232.723871 -293.609169 
L 232.723871 -292.556986 
L 242.093411 -292.556986 
L 242.093411 -291.512038 
L 250.877354 -291.512038 
L 250.877354 -291.512038 
L 266.688452 -291.512038 
L 266.688452 -291.512038 
L 268.445241 -291.512038 
L 268.445241 -291.512038 
L 269.030837 -291.512038 
L 269.030837 -289.414837 
L 270.787625 -289.414837 
L 270.787625 -289.414837 
L 272.544414 -289.414837 
L 272.544414 -289.414837 
L 273.715607 -289.414837 
L 273.715607 -289.414837 
L 274.301203 -289.414837 
L 274.301203 -289.414837 
L 276.643588 -289.414837 
L 276.643588 -289.414837 
L 277.229184 -289.414837 
L 277.229184 -289.414837 
L 277.81478 -289.414837 
L 277.81478 -289.414837 
L 278.985973 -289.414837 
L 278.985973 -289.414837 
L 279.571569 -289.414837 
L 279.571569 -289.414837 
L 281.328357 -289.414837 
L 281.328357 -289.414837 
L 285.427531 -289.414837 
L 285.427531 -289.414837 
L 288.941108 -289.414837 
L 288.941108 -289.414837 
L 291.869089 -289.414837 
L 291.869089 -288.2888 
L 293.040282 -288.2888 
L 293.040282 -288.2888 
L 297.725052 -288.2888 
L 297.725052 -288.2888 
L 301.824225 -288.2888 
L 301.824225 -287.154945 
L 307.094591 -287.154945 
L 307.094591 -287.154945 
L 308.265784 -287.154945 
L 308.265784 -287.154945 
L 309.436976 -287.154945 
L 309.436976 -287.154945 
L 313.53615 -287.154945 
L 313.53615 -287.154945 
L 315.292938 -287.154945 
L 315.292938 -287.154945 
L 322.320093 -287.154945 
L 322.320093 -287.154945 
L 327.004863 -287.154945 
L 327.004863 -284.8457 
L 327.590459 -284.8457 
L 327.590459 -284.8457 
L 328.176055 -284.8457 
L 328.176055 -284.8457 
L 328.761651 -284.8457 
L 328.761651 -284.8457 
L 329.932844 -284.8457 
L 329.932844 -284.8457 
L 330.51844 -284.8457 
L 330.51844 -284.8457 
L 331.104036 -284.8457 
L 331.104036 -284.8457 
L 332.860825 -284.8457 
L 332.860825 -283.645374 
L 334.617614 -283.645374 
L 334.617614 -283.645374 
L 335.20321 -283.645374 
L 335.20321 -283.645374 
L 335.788806 -283.645374 
L 335.788806 -283.645374 
L 337.545595 -283.645374 
L 337.545595 -283.645374 
L 338.131191 -283.645374 
L 338.131191 -283.645374 
L 339.88798 -283.645374 
L 339.88798 -282.416654 
L 343.987153 -282.416654 
L 343.987153 -282.416654 
L 345.743942 -282.416654 
L 345.743942 -279.958434 
L 349.843115 -279.958434 
L 349.843115 -279.958434 
L 351.599904 -279.958434 
L 351.599904 -279.958434 
L 353.356693 -279.958434 
L 353.356693 -279.958434 
L 353.942289 -279.958434 
L 353.942289 -278.715099 
L 354.527885 -278.715099 
L 354.527885 -278.715099 
L 355.113481 -278.715099 
L 355.113481 -278.715099 
L 355.699078 -278.715099 
L 355.699078 -278.715099 
L 356.87027 -278.715099 
L 356.87027 -278.715099 
L 359.212655 -278.715099 
L 359.212655 -278.715099 
L 360.383847 -278.715099 
L 360.383847 -278.715099 
L 360.969444 -278.715099 
L 360.969444 -278.715099 
L 361.55504 -278.715099 
L 361.55504 -278.715099 
L 363.311829 -278.715099 
L 363.311829 -278.715099 
L 365.654213 -278.715099 
L 365.654213 -278.715099 
L 366.23981 -278.715099 
L 366.23981 -278.715099 
L 367.411002 -278.715099 
L 367.411002 -278.715099 
L 368.582195 -278.715099 
L 368.582195 -278.715099 
L 369.753387 -278.715099 
L 369.753387 -278.715099 
L 370.338983 -278.715099 
L 370.338983 -278.715099 
L 370.924579 -278.715099 
L 370.924579 -278.715099 
L 371.510176 -278.715099 
L 371.510176 -278.715099 
L 372.095772 -278.715099 
L 372.095772 -278.715099 
L 372.681368 -278.715099 
L 372.681368 -278.715099 
L 373.266964 -278.715099 
L 373.266964 -278.715099 
L 373.852561 -278.715099 
L 373.852561 -278.715099 
L 374.438157 -278.715099 
L 374.438157 -278.715099 
L 375.023753 -278.715099 
L 375.023753 -278.715099 
L 375.609349 -278.715099 
L 375.609349 -278.715099 
L 376.194945 -278.715099 
L 376.194945 -278.715099 
L 376.780542 -278.715099 
L 376.780542 -278.715099 
L 377.366138 -278.715099 
L 377.366138 -278.715099 
L 377.951734 -278.715099 
L 377.951734 -278.715099 
L 378.53733 -278.715099 
L 378.53733 -278.715099 
L 379.122927 -278.715099 
L 379.122927 -278.715099 
L 379.708523 -278.715099 
L 379.708523 -276.853805 
L 380.294119 -276.853805 
L 380.294119 -276.853805 
L 380.879715 -276.853805 
L 380.879715 -276.853805 
L 381.465311 -276.853805 
L 381.465311 -276.853805 
L 382.050908 -276.853805 
L 382.050908 -274.807159 
L 382.636504 -274.807159 
L 382.636504 -274.807159 
L 383.2221 -274.807159 
L 383.2221 -274.807159 
L 383.807696 -274.807159 
L 383.807696 -272.633976 
L 384.393293 -272.633976 
L 384.393293 -272.633976 
L 384.978889 -272.633976 
L 384.978889 -272.633976 
L 385.564485 -272.633976 
L 385.564485 -272.633976 
L 386.150081 -272.633976 
L 386.150081 -272.633976 
L 386.735677 -272.633976 
L 386.735677 -272.633976 
L 387.321274 -272.633976 
L 387.321274 -272.633976 
L 387.90687 -272.633976 
L 387.90687 -272.633976 
L 388.492466 -272.633976 
L 388.492466 -269.312196 
L 389.078062 -269.312196 
L 389.078062 -269.312196 
L 389.663659 -269.312196 
L 389.663659 -269.312196 
L 390.249255 -269.312196 
L 390.249255 -269.312196 
L 390.834851 -269.312196 
L 390.834851 -269.312196 
L 391.420447 -269.312196 
L 391.420447 -269.312196 
L 392.006043 -269.312196 
L 392.006043 -269.312196 
L 392.59164 -269.312196 
L 392.59164 -269.312196 
L 393.762832 -269.312196 
L 393.762832 -269.312196 
L 394.348428 -269.312196 
L 394.348428 -269.312196 
L 394.934024 -269.312196 
L 394.934024 -269.312196 
L 395.519621 -269.312196 
L 395.519621 -269.312196 
L 396.690813 -269.312196 
L 396.690813 -269.312196 
L 397.276409 -269.312196 
L 397.276409 -269.312196 
L 397.862006 -269.312196 
L 397.862006 -269.312196 
L 398.447602 -269.312196 
L 398.447602 -269.312196 
L 399.033198 -269.312196 
L 399.033198 -269.312196 
L 400.20439 -269.312196 
L 400.20439 -269.312196 
L 400.789987 -269.312196 
L 400.789987 -269.312196 
L 401.375583 -269.312196 
L 401.375583 -269.312196 
L 401.961179 -269.312196 
L 401.961179 -269.312196 
L 402.546775 -269.312196 
L 402.546775 -269.312196 
L 403.717968 -269.312196 
L 403.717968 -269.312196 
L 404.303564 -269.312196 
L 404.303564 -269.312196 
L 404.88916 -269.312196 
L 404.88916 -269.312196 
L 406.060353 -269.312196 
L 406.060353 -269.312196 
L 406.645949 -269.312196 
L 406.645949 -269.312196 
L 407.231545 -269.312196 
L 407.231545 -269.312196 
L 407.817141 -269.312196 
L 407.817141 -269.312196 
L 408.402738 -269.312196 
L 408.402738 -269.312196 
L 409.57393 -269.312196 
L 409.57393 -269.312196 
L 410.745122 -269.312196 
L 410.745122 -269.312196 
L 411.330719 -269.312196 
L 411.330719 -269.312196 
L 412.501911 -269.312196 
L 412.501911 -269.312196 
L 413.087507 -269.312196 
L 413.087507 -269.312196 
L 413.673104 -269.312196 
L 413.673104 -269.312196 
L 414.2587 -269.312196 
L 414.2587 -269.312196 
L 414.844296 -269.312196 
L 414.844296 -269.312196 
L 415.429892 -269.312196 
L 415.429892 -269.312196 
L 416.601085 -269.312196 
L 416.601085 -269.312196 
L 417.186681 -269.312196 
L 417.186681 -269.312196 
L 418.357873 -269.312196 
L 418.357873 -269.312196 
L 418.94347 -269.312196 
L 418.94347 -269.312196 
L 420.114662 -269.312196 
L 420.114662 -269.312196 
L 420.700258 -269.312196 
L 420.700258 -269.312196 
L 422.457047 -269.312196 
L 422.457047 -269.312196 
L 429.484202 -269.312196 
L 429.484202 -269.312196 
L 431.826586 -269.312196 
L 431.826586 -269.312196 
L 432.412183 -269.312196 
L 432.412183 -140.146703 
L 432.997779 -140.146703 
L 432.997779 -140.146703 
L 435.92576 -140.146703 
L 435.92576 -140.146703 
L 454.664839 -140.146703 
L 454.664839 -61.664334 
L 456.421628 -61.664334 
L 456.421628 -61.664334 
L 469.890341 -61.664334 
L 469.890341 -61.664334 
L 469.890341 -262.742439 
L 469.890341 -262.742439 
L 469.890341 -262.742439 
L 456.421628 -262.742439 
L 456.421628 -262.742439 
L 454.664839 -262.742439 
L 454.664839 -289.690084 
L 435.92576 -289.690084 
L 435.92576 -289.690084 
L 432.997779 -289.690084 
L 432.997779 -289.690084 
L 432.412183 -289.690084 
L 432.412183 -291.728467 
L 431.826586 -291.728467 
L 431.826586 -291.728467 
L 429.484202 -291.728467 
L 429.484202 -291.728467 
L 422.457047 -291.728467 
L 422.457047 -291.728467 
L 420.700258 -291.728467 
L 420.700258 -291.728467 
L 420.114662 -291.728467 
L 420.114662 -291.728467 
L 418.94347 -291.728467 
L 418.94347 -291.728467 
L 418.357873 -291.728467 
L 418.357873 -291.728467 
L 417.186681 -291.728467 
L 417.186681 -291.728467 
L 416.601085 -291.728467 
L 416.601085 -291.728467 
L 415.429892 -291.728467 
L 415.429892 -291.728467 
L 414.844296 -291.728467 
L 414.844296 -291.728467 
L 414.2587 -291.728467 
L 414.2587 -291.728467 
L 413.673104 -291.728467 
L 413.673104 -291.728467 
L 413.087507 -291.728467 
L 413.087507 -291.728467 
L 412.501911 -291.728467 
L 412.501911 -291.728467 
L 411.330719 -291.728467 
L 411.330719 -291.728467 
L 410.745122 -291.728467 
L 410.745122 -291.728467 
L 409.57393 -291.728467 
L 409.57393 -291.728467 
L 408.402738 -291.728467 
L 408.402738 -291.728467 
L 407.817141 -291.728467 
L 407.817141 -291.728467 
L 407.231545 -291.728467 
L 407.231545 -291.728467 
L 406.645949 -291.728467 
L 406.645949 -291.728467 
L 406.060353 -291.728467 
L 406.060353 -291.728467 
L 404.88916 -291.728467 
L 404.88916 -291.728467 
L 404.303564 -291.728467 
L 404.303564 -291.728467 
L 403.717968 -291.728467 
L 403.717968 -291.728467 
L 402.546775 -291.728467 
L 402.546775 -291.728467 
L 401.961179 -291.728467 
L 401.961179 -291.728467 
L 401.375583 -291.728467 
L 401.375583 -291.728467 
L 400.789987 -291.728467 
L 400.789987 -291.728467 
L 400.20439 -291.728467 
L 400.20439 -291.728467 
L 399.033198 -291.728467 
L 399.033198 -291.728467 
L 398.447602 -291.728467 
L 398.447602 -291.728467 
L 397.862006 -291.728467 
L 397.862006 -291.728467 
L 397.276409 -291.728467 
L 397.276409 -291.728467 
L 396.690813 -291.728467 
L 396.690813 -291.728467 
L 395.519621 -291.728467 
L 395.519621 -291.728467 
L 394.934024 -291.728467 
L 394.934024 -291.728467 
L 394.348428 -291.728467 
L 394.348428 -291.728467 
L 393.762832 -291.728467 
L 393.762832 -291.728467 
L 392.59164 -291.728467 
L 392.59164 -291.728467 
L 392.006043 -291.728467 
L 392.006043 -291.728467 
L 391.420447 -291.728467 
L 391.420447 -291.728467 
L 390.834851 -291.728467 
L 390.834851 -291.728467 
L 390.249255 -291.728467 
L 390.249255 -291.728467 
L 389.663659 -291.728467 
L 389.663659 -291.728467 
L 389.078062 -291.728467 
L 389.078062 -291.728467 
L 388.492466 -291.728467 
L 388.492466 -293.302851 
L 387.90687 -293.302851 
L 387.90687 -293.302851 
L 387.321274 -293.302851 
L 387.321274 -293.302851 
L 386.735677 -293.302851 
L 386.735677 -293.302851 
L 386.150081 -293.302851 
L 386.150081 -293.302851 
L 385.564485 -293.302851 
L 385.564485 -293.302851 
L 384.978889 -293.302851 
L 384.978889 -293.302851 
L 384.393293 -293.302851 
L 384.393293 -293.302851 
L 383.807696 -293.302851 
L 383.807696 -294.547441 
L 383.2221 -294.547441 
L 383.2221 -294.547441 
L 382.636504 -294.547441 
L 382.636504 -294.547441 
L 382.050908 -294.547441 
L 382.050908 -295.723726 
L 381.465311 -295.723726 
L 381.465311 -295.723726 
L 380.879715 -295.723726 
L 380.879715 -295.723726 
L 380.294119 -295.723726 
L 380.294119 -295.723726 
L 379.708523 -295.723726 
L 379.708523 -296.816185 
L 379.122927 -296.816185 
L 379.122927 -296.816185 
L 378.53733 -296.816185 
L 378.53733 -296.816185 
L 377.951734 -296.816185 
L 377.951734 -296.816185 
L 377.366138 -296.816185 
L 377.366138 -296.816185 
L 376.780542 -296.816185 
L 376.780542 -296.816185 
L 376.194945 -296.816185 
L 376.194945 -296.816185 
L 375.609349 -296.816185 
L 375.609349 -296.816185 
L 375.023753 -296.816185 
L 375.023753 -296.816185 
L 374.438157 -296.816185 
L 374.438157 -296.816185 
L 373.852561 -296.816185 
L 373.852561 -296.816185 
L 373.266964 -296.816185 
L 373.266964 -296.816185 
L 372.681368 -296.816185 
L 372.681368 -296.816185 
L 372.095772 -296.816185 
L 372.095772 -296.816185 
L 371.510176 -296.816185 
L 371.510176 -296.816185 
L 370.924579 -296.816185 
L 370.924579 -296.816185 
L 370.338983 -296.816185 
L 370.338983 -296.816185 
L 369.753387 -296.816185 
L 369.753387 -296.816185 
L 368.582195 -296.816185 
L 368.582195 -296.816185 
L 367.411002 -296.816185 
L 367.411002 -296.816185 
L 366.23981 -296.816185 
L 366.23981 -296.816185 
L 365.654213 -296.816185 
L 365.654213 -296.816185 
L 363.311829 -296.816185 
L 363.311829 -296.816185 
L 361.55504 -296.816185 
L 361.55504 -296.816185 
L 360.969444 -296.816185 
L 360.969444 -296.816185 
L 360.383847 -296.816185 
L 360.383847 -296.816185 
L 359.212655 -296.816185 
L 359.212655 -296.816185 
L 356.87027 -296.816185 
L 356.87027 -296.816185 
L 355.699078 -296.816185 
L 355.699078 -296.816185 
L 355.113481 -296.816185 
L 355.113481 -296.816185 
L 354.527885 -296.816185 
L 354.527885 -296.816185 
L 353.942289 -296.816185 
L 353.942289 -297.664604 
L 353.356693 -297.664604 
L 353.356693 -297.664604 
L 351.599904 -297.664604 
L 351.599904 -297.664604 
L 349.843115 -297.664604 
L 349.843115 -297.664604 
L 345.743942 -297.664604 
L 345.743942 -299.323361 
L 343.987153 -299.323361 
L 343.987153 -299.323361 
L 339.88798 -299.323361 
L 339.88798 -300.139023 
L 338.131191 -300.139023 
L 338.131191 -300.139023 
L 337.545595 -300.139023 
L 337.545595 -300.139023 
L 335.788806 -300.139023 
L 335.788806 -300.139023 
L 335.20321 -300.139023 
L 335.20321 -300.139023 
L 334.617614 -300.139023 
L 334.617614 -300.139023 
L 332.860825 -300.139023 
L 332.860825 -300.933775 
L 331.104036 -300.933775 
L 331.104036 -300.933775 
L 330.51844 -300.933775 
L 330.51844 -300.933775 
L 329.932844 -300.933775 
L 329.932844 -300.933775 
L 328.761651 -300.933775 
L 328.761651 -300.933775 
L 328.176055 -300.933775 
L 328.176055 -300.933775 
L 327.590459 -300.933775 
L 327.590459 -300.933775 
L 327.004863 -300.933775 
L 327.004863 -302.459099 
L 322.320093 -302.459099 
L 322.320093 -302.459099 
L 315.292938 -302.459099 
L 315.292938 -302.459099 
L 313.53615 -302.459099 
L 313.53615 -302.459099 
L 309.436976 -302.459099 
L 309.436976 -302.459099 
L 308.265784 -302.459099 
L 308.265784 -302.459099 
L 307.094591 -302.459099 
L 307.094591 -302.459099 
L 301.824225 -302.459099 
L 301.824225 -303.199947 
L 297.725052 -303.199947 
L 297.725052 -303.199947 
L 293.040282 -303.199947 
L 293.040282 -303.199947 
L 291.869089 -303.199947 
L 291.869089 -303.928508 
L 288.941108 -303.928508 
L 288.941108 -303.928508 
L 285.427531 -303.928508 
L 285.427531 -303.928508 
L 281.328357 -303.928508 
L 281.328357 -303.928508 
L 279.571569 -303.928508 
L 279.571569 -303.928508 
L 278.985973 -303.928508 
L 278.985973 -303.928508 
L 277.81478 -303.928508 
L 277.81478 -303.928508 
L 277.229184 -303.928508 
L 277.229184 -303.928508 
L 276.643588 -303.928508 
L 276.643588 -303.928508 
L 274.301203 -303.928508 
L 274.301203 -303.928508 
L 273.715607 -303.928508 
L 273.715607 -303.928508 
L 272.544414 -303.928508 
L 272.544414 -303.928508 
L 270.787625 -303.928508 
L 270.787625 -303.928508 
L 269.030837 -303.928508 
L 269.030837 -305.298346 
L 268.445241 -305.298346 
L 268.445241 -305.298346 
L 266.688452 -305.298346 
L 266.688452 -305.298346 
L 250.877354 -305.298346 
L 250.877354 -305.298346 
L 242.093411 -305.298346 
L 242.093411 -305.969008 
L 232.723871 -305.969008 
L 232.723871 -306.633178 
L 223.939928 -306.633178 
L 223.939928 -306.633178 
L 220.42635 -306.633178 
L 220.42635 -307.28862 
L 219.255158 -307.28862 
L 219.255158 -307.28862 
L 215.741581 -307.28862 
L 215.741581 -307.28862 
L 208.714426 -307.28862 
L 208.714426 -307.931575 
L 205.200849 -307.931575 
L 205.200849 -308.566302 
L 197.002501 -308.566302 
L 197.002501 -309.191897 
L 196.416905 -309.191897 
L 196.416905 -309.191897 
L 193.488924 -309.191897 
L 193.488924 -309.80582 
L 191.146539 -309.80582 
L 191.146539 -310.408295 
L 185.290577 -310.408295 
L 185.290577 -310.997682 
L 181.777 -310.997682 
L 181.777 -310.997682 
L 178.849019 -310.997682 
L 178.849019 -310.997682 
L 178.263422 -310.997682 
L 178.263422 -310.997682 
L 174.749845 -310.997682 
L 174.749845 -310.997682 
L 174.164249 -310.997682 
L 174.164249 -310.997682 
L 173.578653 -310.997682 
L 173.578653 -310.997682 
L 172.993056 -310.997682 
L 172.993056 -310.997682 
L 171.821864 -310.997682 
L 171.821864 -310.997682 
L 171.236268 -310.997682 
L 171.236268 -311.561868 
L 170.650671 -311.561868 
L 170.650671 -312.10698 
L 170.065075 -312.10698 
L 170.065075 -312.10698 
L 169.479479 -312.10698 
L 169.479479 -312.62908 
L 168.893883 -312.62908 
L 168.893883 -312.62908 
L 168.308287 -312.62908 
L 168.308287 -312.62908 
L 166.551498 -312.62908 
L 166.551498 -312.62908 
L 165.965902 -312.62908 
L 165.965902 -313.124431 
L 163.037921 -313.124431 
L 163.037921 -313.124431 
L 162.452324 -313.124431 
L 162.452324 -313.124431 
L 161.281132 -313.124431 
L 161.281132 -313.588351 
L 160.695536 -313.588351 
L 160.695536 -314.013077 
L 158.938747 -314.013077 
L 158.938747 -314.013077 
L 155.42517 -314.013077 
L 155.42517 -314.013077 
L 154.253977 -314.013077 
L 154.253977 -314.013077 
L 149.569207 -314.013077 
L 149.569207 -314.013077 
L 147.812419 -314.013077 
L 147.812419 -314.013077 
L 147.226823 -314.013077 
L 147.226823 -314.378187 
L 146.641226 -314.378187 
L 146.641226 -314.378187 
L 145.470034 -314.378187 
L 145.470034 -314.378187 
L 144.298841 -314.378187 
L 144.298841 -314.378187 
L 140.785264 -314.378187 
L 140.785264 -314.378187 
L 140.199668 -314.378187 
L 140.199668 -314.378187 
L 136.686091 -314.378187 
L 136.686091 -314.378187 
L 133.172513 -314.378187 
L 133.172513 -314.378187 
L 131.415725 -314.378187 
L 131.415725 -314.378187 
L 127.902147 -314.378187 
L 127.902147 -314.378187 
L 116.190223 -314.378187 
L 116.190223 -314.378187 
L 113.262242 -314.378187 
L 113.262242 -314.378187 
L 109.163068 -314.378187 
L 109.163068 -314.378187 
L 108.577472 -314.378187 
L 108.577472 -314.378187 
L 106.820683 -314.378187 
L 106.820683 -314.650019 
L 103.892702 -314.650019 
L 103.892702 -314.650019 
L 95.108759 -314.650019 
L 95.108759 -314.75625 
L 92.766374 -314.75625 
L 92.766374 -314.75625 
L 92.180778 -314.75625 
L 92.180778 -314.75625 
L 89.252797 -314.75625 
L 89.252797 -314.75625 
L 83.396834 -314.75625 
L 83.396834 -314.75625 
L 64.072159 -314.75625 
z
" style="stroke: #1f77b4; stroke-opacity: 0.25"/>
    </defs>
    <g clip-path="url(#p4743b527e7)">
     <use xlink:href="#mbcd974bb10" x="0" y="337.074375" style="fill: #1f77b4; fill-opacity: 0.25; stroke: #1f77b4; stroke-opacity: 0.25"/>
    </g>
   </g>
   <g id="matplotlib.axis_1">
    <g id="xtick_1">
     <g id="line2d_1">
      <defs>
       <path id="m42776c325a" d="M 0 0 
L 0 3.5 
" style="stroke: #000000; stroke-width: 0.8"/>
      </defs>
      <g>
       <use xlink:href="#m42776c325a" x="64.072159" y="299.518125" style="stroke: #000000; stroke-width: 0.8"/>
      </g>
     </g>
     <g id="text_1">
      <!-- 0 -->
      <g transform="translate(60.890909 314.116563) scale(0.1 -0.1)">
       <defs>
        <path id="DejaVuSans-30" d="M 2034 4250 
Q 1547 4250 1301 3770 
Q 1056 3291 1056 2328 
Q 1056 1369 1301 889 
Q 1547 409 2034 409 
Q 2525 409 2770 889 
Q 3016 1369 3016 2328 
Q 3016 3291 2770 3770 
Q 2525 4250 2034 4250 
z
M 2034 4750 
Q 2819 4750 3233 4129 
Q 3647 3509 3647 2328 
Q 3647 1150 3233 529 
Q 2819 -91 2034 -91 
Q 1250 -91 836 529 
Q 422 1150 422 2328 
Q 422 3509 836 4129 
Q 1250 4750 2034 4750 
z
" transform="scale(0.015625)"/>
       </defs>
       <use xlink:href="#DejaVuSans-30"/>
      </g>
     </g>
    </g>
    <g id="xtick_2">
     <g id="line2d_2">
      <g>
       <use xlink:href="#m42776c325a" x="81.640046" y="299.518125" style="stroke: #000000; stroke-width: 0.8"/>
      </g>
     </g>
     <g id="text_2">
      <!-- 1 -->
      <g transform="translate(78.458796 314.116563) scale(0.1 -0.1)">
       <defs>
        <path id="DejaVuSans-31" d="M 794 531 
L 1825 531 
L 1825 4091 
L 703 3866 
L 703 4441 
L 1819 4666 
L 2450 4666 
L 2450 531 
L 3481 531 
L 3481 0 
L 794 0 
L 794 531 
z
" transform="scale(0.015625)"/>
       </defs>
       <use xlink:href="#DejaVuSans-31"/>
      </g>
     </g>
    </g>
    <g id="xtick_3">
     <g id="line2d_3">
      <g>
       <use xlink:href="#m42776c325a" x="99.207932" y="299.518125" style="stroke: #000000; stroke-width: 0.8"/>
      </g>
     </g>
     <g id="text_3">
      <!-- 2 -->
      <g transform="translate(96.026682 314.116563) scale(0.1 -0.1)">
       <defs>
        <path id="DejaVuSans-32" d="M 1228 531 
L 3431 531 
L 3431 0 
L 469 0 
L 469 531 
Q 828 903 1448 1529 
Q 2069 2156 2228 2338 
Q 2531 2678 2651 2914 
Q 2772 3150 2772 3378 
Q 2772 3750 2511 3984 
Q 2250 4219 1831 4219 
Q 1534 4219 1204 4116 
Q 875 4013 500 3803 
L 500 4441 
Q 881 4594 1212 4672 
Q 1544 4750 1819 4750 
Q 2544 4750 2975 4387 
Q 3406 4025 3406 3419 
Q 3406 3131 3298 2873 
Q 3191 2616 2906 2266 
Q 2828 2175 2409 1742 
Q 1991 1309 1228 531 
z
" transform="scale(0.015625)"/>
       </defs>
       <use xlink:href="#DejaVuSans-32"/>
      </g>
     </g>
    </g>
    <g id="xtick_4">
     <g id="line2d_4">
      <g>
       <use xlink:href="#m42776c325a" x="116.775819" y="299.518125" style="stroke: #000000; stroke-width: 0.8"/>
      </g>
     </g>
     <g id="text_4">
      <!-- 3 -->
      <g transform="translate(113.594569 314.116563) scale(0.1 -0.1)">
       <defs>
        <path id="DejaVuSans-33" d="M 2597 2516 
Q 3050 2419 3304 2112 
Q 3559 1806 3559 1356 
Q 3559 666 3084 287 
Q 2609 -91 1734 -91 
Q 1441 -91 1130 -33 
Q 819 25 488 141 
L 488 750 
Q 750 597 1062 519 
Q 1375 441 1716 441 
Q 2309 441 2620 675 
Q 2931 909 2931 1356 
Q 2931 1769 2642 2001 
Q 2353 2234 1838 2234 
L 1294 2234 
L 1294 2753 
L 1863 2753 
Q 2328 2753 2575 2939 
Q 2822 3125 2822 3475 
Q 2822 3834 2567 4026 
Q 2313 4219 1838 4219 
Q 1578 4219 1281 4162 
Q 984 4106 628 3988 
L 628 4550 
Q 988 4650 1302 4700 
Q 1616 4750 1894 4750 
Q 2613 4750 3031 4423 
Q 3450 4097 3450 3541 
Q 3450 3153 3228 2886 
Q 3006 2619 2597 2516 
z
" transform="scale(0.015625)"/>
       </defs>
       <use xlink:href="#DejaVuSans-33"/>
      </g>
     </g>
    </g>
    <g id="xtick_5">
     <g id="line2d_5">
      <g>
       <use xlink:href="#m42776c325a" x="134.343706" y="299.518125" style="stroke: #000000; stroke-width: 0.8"/>
      </g>
     </g>
     <g id="text_5">
      <!-- 4 -->
      <g transform="translate(131.162456 314.116563) scale(0.1 -0.1)">
       <defs>
        <path id="DejaVuSans-34" d="M 2419 4116 
L 825 1625 
L 2419 1625 
L 2419 4116 
z
M 2253 4666 
L 3047 4666 
L 3047 1625 
L 3713 1625 
L 3713 1100 
L 3047 1100 
L 3047 0 
L 2419 0 
L 2419 1100 
L 313 1100 
L 313 1709 
L 2253 4666 
z
" transform="scale(0.015625)"/>
       </defs>
       <use xlink:href="#DejaVuSans-34"/>
      </g>
     </g>
    </g>
    <g id="xtick_6">
     <g id="line2d_6">
      <g>
       <use xlink:href="#m42776c325a" x="151.911592" y="299.518125" style="stroke: #000000; stroke-width: 0.8"/>
      </g>
     </g>
     <g id="text_6">
      <!-- 5 -->
      <g transform="translate(148.730342 314.116563) scale(0.1 -0.1)">
       <defs>
        <path id="DejaVuSans-35" d="M 691 4666 
L 3169 4666 
L 3169 4134 
L 1269 4134 
L 1269 2991 
Q 1406 3038 1543 3061 
Q 1681 3084 1819 3084 
Q 2600 3084 3056 2656 
Q 3513 2228 3513 1497 
Q 3513 744 3044 326 
Q 2575 -91 1722 -91 
Q 1428 -91 1123 -41 
Q 819 9 494 109 
L 494 744 
Q 775 591 1075 516 
Q 1375 441 1709 441 
Q 2250 441 2565 725 
Q 2881 1009 2881 1497 
Q 2881 1984 2565 2268 
Q 2250 2553 1709 2553 
Q 1456 2553 1204 2497 
Q 953 2441 691 2322 
L 691 4666 
z
" transform="scale(0.015625)"/>
       </defs>
       <use xlink:href="#DejaVuSans-35"/>
      </g>
     </g>
    </g>
    <g id="xtick_7">
     <g id="line2d_7">
      <g>
       <use xlink:href="#m42776c325a" x="169.479479" y="299.518125" style="stroke: #000000; stroke-width: 0.8"/>
      </g>
     </g>
     <g id="text_7">
      <!-- 6 -->
      <g transform="translate(166.298229 314.116563) scale(0.1 -0.1)">
       <defs>
        <path id="DejaVuSans-36" d="M 2113 2584 
Q 1688 2584 1439 2293 
Q 1191 2003 1191 1497 
Q 1191 994 1439 701 
Q 1688 409 2113 409 
Q 2538 409 2786 701 
Q 3034 994 3034 1497 
Q 3034 2003 2786 2293 
Q 2538 2584 2113 2584 
z
M 3366 4563 
L 3366 3988 
Q 3128 4100 2886 4159 
Q 2644 4219 2406 4219 
Q 1781 4219 1451 3797 
Q 1122 3375 1075 2522 
Q 1259 2794 1537 2939 
Q 1816 3084 2150 3084 
Q 2853 3084 3261 2657 
Q 3669 2231 3669 1497 
Q 3669 778 3244 343 
Q 2819 -91 2113 -91 
Q 1303 -91 875 529 
Q 447 1150 447 2328 
Q 447 3434 972 4092 
Q 1497 4750 2381 4750 
Q 2619 4750 2861 4703 
Q 3103 4656 3366 4563 
z
" transform="scale(0.015625)"/>
       </defs>
       <use xlink:href="#DejaVuSans-36"/>
      </g>
     </g>
    </g>
    <g id="xtick_8">
     <g id="line2d_8">
      <g>
       <use xlink:href="#m42776c325a" x="187.047366" y="299.518125" style="stroke: #000000; stroke-width: 0.8"/>
      </g>
     </g>
     <g id="text_8">
      <!-- 7 -->
      <g transform="translate(183.866116 314.116563) scale(0.1 -0.1)">
       <defs>
        <path id="DejaVuSans-37" d="M 525 4666 
L 3525 4666 
L 3525 4397 
L 1831 0 
L 1172 0 
L 2766 4134 
L 525 4134 
L 525 4666 
z
" transform="scale(0.015625)"/>
       </defs>
       <use xlink:href="#DejaVuSans-37"/>
      </g>
     </g>
    </g>
    <g id="xtick_9">
     <g id="line2d_9">
      <g>
       <use xlink:href="#m42776c325a" x="204.615252" y="299.518125" style="stroke: #000000; stroke-width: 0.8"/>
      </g>
     </g>
     <g id="text_9">
      <!-- 8 -->
      <g transform="translate(201.434002 314.116563) scale(0.1 -0.1)">
       <defs>
        <path id="DejaVuSans-38" d="M 2034 2216 
Q 1584 2216 1326 1975 
Q 1069 1734 1069 1313 
Q 1069 891 1326 650 
Q 1584 409 2034 409 
Q 2484 409 2743 651 
Q 3003 894 3003 1313 
Q 3003 1734 2745 1975 
Q 2488 2216 2034 2216 
z
M 1403 2484 
Q 997 2584 770 2862 
Q 544 3141 544 3541 
Q 544 4100 942 4425 
Q 1341 4750 2034 4750 
Q 2731 4750 3128 4425 
Q 3525 4100 3525 3541 
Q 3525 3141 3298 2862 
Q 3072 2584 2669 2484 
Q 3125 2378 3379 2068 
Q 3634 1759 3634 1313 
Q 3634 634 3220 271 
Q 2806 -91 2034 -91 
Q 1263 -91 848 271 
Q 434 634 434 1313 
Q 434 1759 690 2068 
Q 947 2378 1403 2484 
z
M 1172 3481 
Q 1172 3119 1398 2916 
Q 1625 2713 2034 2713 
Q 2441 2713 2670 2916 
Q 2900 3119 2900 3481 
Q 2900 3844 2670 4047 
Q 2441 4250 2034 4250 
Q 1625 4250 1398 4047 
Q 1172 3844 1172 3481 
z
" transform="scale(0.015625)"/>
       </defs>
       <use xlink:href="#DejaVuSans-38"/>
      </g>
     </g>
    </g>
    <g id="xtick_10">
     <g id="line2d_10">
      <g>
       <use xlink:href="#m42776c325a" x="222.183139" y="299.518125" style="stroke: #000000; stroke-width: 0.8"/>
      </g>
     </g>
     <g id="text_10">
      <!-- 9 -->
      <g transform="translate(219.001889 314.116563) scale(0.1 -0.1)">
       <defs>
        <path id="DejaVuSans-39" d="M 703 97 
L 703 672 
Q 941 559 1184 500 
Q 1428 441 1663 441 
Q 2288 441 2617 861 
Q 2947 1281 2994 2138 
Q 2813 1869 2534 1725 
Q 2256 1581 1919 1581 
Q 1219 1581 811 2004 
Q 403 2428 403 3163 
Q 403 3881 828 4315 
Q 1253 4750 1959 4750 
Q 2769 4750 3195 4129 
Q 3622 3509 3622 2328 
Q 3622 1225 3098 567 
Q 2575 -91 1691 -91 
Q 1453 -91 1209 -44 
Q 966 3 703 97 
z
M 1959 2075 
Q 2384 2075 2632 2365 
Q 2881 2656 2881 3163 
Q 2881 3666 2632 3958 
Q 2384 4250 1959 4250 
Q 1534 4250 1286 3958 
Q 1038 3666 1038 3163 
Q 1038 2656 1286 2365 
Q 1534 2075 1959 2075 
z
" transform="scale(0.015625)"/>
       </defs>
       <use xlink:href="#DejaVuSans-39"/>
      </g>
     </g>
    </g>
    <g id="xtick_11">
     <g id="line2d_11">
      <g>
       <use xlink:href="#m42776c325a" x="239.751026" y="299.518125" style="stroke: #000000; stroke-width: 0.8"/>
      </g>
     </g>
     <g id="text_11">
      <!-- 10 -->
      <g transform="translate(233.388526 314.116563) scale(0.1 -0.1)">
       <use xlink:href="#DejaVuSans-31"/>
       <use xlink:href="#DejaVuSans-30" x="63.623047"/>
      </g>
     </g>
    </g>
    <g id="xtick_12">
     <g id="line2d_12">
      <g>
       <use xlink:href="#m42776c325a" x="257.318912" y="299.518125" style="stroke: #000000; stroke-width: 0.8"/>
      </g>
     </g>
     <g id="text_12">
      <!-- 11 -->
      <g transform="translate(250.956412 314.116563) scale(0.1 -0.1)">
       <use xlink:href="#DejaVuSans-31"/>
       <use xlink:href="#DejaVuSans-31" x="63.623047"/>
      </g>
     </g>
    </g>
    <g id="xtick_13">
     <g id="line2d_13">
      <g>
       <use xlink:href="#m42776c325a" x="274.886799" y="299.518125" style="stroke: #000000; stroke-width: 0.8"/>
      </g>
     </g>
     <g id="text_13">
      <!-- 12 -->
      <g transform="translate(268.524299 314.116563) scale(0.1 -0.1)">
       <use xlink:href="#DejaVuSans-31"/>
       <use xlink:href="#DejaVuSans-32" x="63.623047"/>
      </g>
     </g>
    </g>
    <g id="xtick_14">
     <g id="line2d_14">
      <g>
       <use xlink:href="#m42776c325a" x="292.454686" y="299.518125" style="stroke: #000000; stroke-width: 0.8"/>
      </g>
     </g>
     <g id="text_14">
      <!-- 13 -->
      <g transform="translate(286.092186 314.116563) scale(0.1 -0.1)">
       <use xlink:href="#DejaVuSans-31"/>
       <use xlink:href="#DejaVuSans-33" x="63.623047"/>
      </g>
     </g>
    </g>
    <g id="xtick_15">
     <g id="line2d_15">
      <g>
       <use xlink:href="#m42776c325a" x="310.022572" y="299.518125" style="stroke: #000000; stroke-width: 0.8"/>
      </g>
     </g>
     <g id="text_15">
      <!-- 14 -->
      <g transform="translate(303.660072 314.116563) scale(0.1 -0.1)">
       <use xlink:href="#DejaVuSans-31"/>
       <use xlink:href="#DejaVuSans-34" x="63.623047"/>
      </g>
     </g>
    </g>
    <g id="xtick_16">
     <g id="line2d_16">
      <g>
       <use xlink:href="#m42776c325a" x="327.590459" y="299.518125" style="stroke: #000000; stroke-width: 0.8"/>
      </g>
     </g>
     <g id="text_16">
      <!-- 15 -->
      <g transform="translate(321.227959 314.116563) scale(0.1 -0.1)">
       <use xlink:href="#DejaVuSans-31"/>
       <use xlink:href="#DejaVuSans-35" x="63.623047"/>
      </g>
     </g>
    </g>
    <g id="xtick_17">
     <g id="line2d_17">
      <g>
       <use xlink:href="#m42776c325a" x="345.158346" y="299.518125" style="stroke: #000000; stroke-width: 0.8"/>
      </g>
     </g>
     <g id="text_17">
      <!-- 16 -->
      <g transform="translate(338.795846 314.116563) scale(0.1 -0.1)">
       <use xlink:href="#DejaVuSans-31"/>
       <use xlink:href="#DejaVuSans-36" x="63.623047"/>
      </g>
     </g>
    </g>
    <g id="xtick_18">
     <g id="line2d_18">
      <g>
       <use xlink:href="#m42776c325a" x="362.726232" y="299.518125" style="stroke: #000000; stroke-width: 0.8"/>
      </g>
     </g>
     <g id="text_18">
      <!-- 17 -->
      <g transform="translate(356.363732 314.116563) scale(0.1 -0.1)">
       <use xlink:href="#DejaVuSans-31"/>
       <use xlink:href="#DejaVuSans-37" x="63.623047"/>
      </g>
     </g>
    </g>
    <g id="xtick_19">
     <g id="line2d_19">
      <g>
       <use xlink:href="#m42776c325a" x="380.294119" y="299.518125" style="stroke: #000000; stroke-width: 0.8"/>
      </g>
     </g>
     <g id="text_19">
      <!-- 18 -->
      <g transform="translate(373.931619 314.116563) scale(0.1 -0.1)">
       <use xlink:href="#DejaVuSans-31"/>
       <use xlink:href="#DejaVuSans-38" x="63.623047"/>
      </g>
     </g>
    </g>
    <g id="xtick_20">
     <g id="line2d_20">
      <g>
       <use xlink:href="#m42776c325a" x="397.862006" y="299.518125" style="stroke: #000000; stroke-width: 0.8"/>
      </g>
     </g>
     <g id="text_20">
      <!-- 19 -->
      <g transform="translate(391.499506 314.116563) scale(0.1 -0.1)">
       <use xlink:href="#DejaVuSans-31"/>
       <use xlink:href="#DejaVuSans-39" x="63.623047"/>
      </g>
     </g>
    </g>
    <g id="xtick_21">
     <g id="line2d_21">
      <g>
       <use xlink:href="#m42776c325a" x="415.429892" y="299.518125" style="stroke: #000000; stroke-width: 0.8"/>
      </g>
     </g>
     <g id="text_21">
      <!-- 20 -->
      <g transform="translate(409.067392 314.116563) scale(0.1 -0.1)">
       <use xlink:href="#DejaVuSans-32"/>
       <use xlink:href="#DejaVuSans-30" x="63.623047"/>
      </g>
     </g>
    </g>
    <g id="xtick_22">
     <g id="line2d_22">
      <g>
       <use xlink:href="#m42776c325a" x="432.997779" y="299.518125" style="stroke: #000000; stroke-width: 0.8"/>
      </g>
     </g>
     <g id="text_22">
      <!-- 21 -->
      <g transform="translate(426.635279 314.116563) scale(0.1 -0.1)">
       <use xlink:href="#DejaVuSans-32"/>
       <use xlink:href="#DejaVuSans-31" x="63.623047"/>
      </g>
     </g>
    </g>
    <g id="xtick_23">
     <g id="line2d_23">
      <g>
       <use xlink:href="#m42776c325a" x="450.565666" y="299.518125" style="stroke: #000000; stroke-width: 0.8"/>
      </g>
     </g>
     <g id="text_23">
      <!-- 22 -->
      <g transform="translate(444.203166 314.116563) scale(0.1 -0.1)">
       <use xlink:href="#DejaVuSans-32"/>
       <use xlink:href="#DejaVuSans-32" x="63.623047"/>
      </g>
     </g>
    </g>
    <g id="xtick_24">
     <g id="line2d_24">
      <g>
       <use xlink:href="#m42776c325a" x="468.133552" y="299.518125" style="stroke: #000000; stroke-width: 0.8"/>
      </g>
     </g>
     <g id="text_24">
      <!-- 23 -->
      <g transform="translate(461.771052 314.116563) scale(0.1 -0.1)">
       <use xlink:href="#DejaVuSans-32"/>
       <use xlink:href="#DejaVuSans-33" x="63.623047"/>
      </g>
     </g>
    </g>
    <g id="text_25">
     <!-- Months since Treatment Start -->
     <g transform="translate(193.3 327.794688) scale(0.1 -0.1)">
      <defs>
       <path id="DejaVuSans-4d" d="M 628 4666 
L 1569 4666 
L 2759 1491 
L 3956 4666 
L 4897 4666 
L 4897 0 
L 4281 0 
L 4281 4097 
L 3078 897 
L 2444 897 
L 1241 4097 
L 1241 0 
L 628 0 
L 628 4666 
z
" transform="scale(0.015625)"/>
       <path id="DejaVuSans-6f" d="M 1959 3097 
Q 1497 3097 1228 2736 
Q 959 2375 959 1747 
Q 959 1119 1226 758 
Q 1494 397 1959 397 
Q 2419 397 2687 759 
Q 2956 1122 2956 1747 
Q 2956 2369 2687 2733 
Q 2419 3097 1959 3097 
z
M 1959 3584 
Q 2709 3584 3137 3096 
Q 3566 2609 3566 1747 
Q 3566 888 3137 398 
Q 2709 -91 1959 -91 
Q 1206 -91 779 398 
Q 353 888 353 1747 
Q 353 2609 779 3096 
Q 1206 3584 1959 3584 
z
" transform="scale(0.015625)"/>
       <path id="DejaVuSans-6e" d="M 3513 2113 
L 3513 0 
L 2938 0 
L 2938 2094 
Q 2938 2591 2744 2837 
Q 2550 3084 2163 3084 
Q 1697 3084 1428 2787 
Q 1159 2491 1159 1978 
L 1159 0 
L 581 0 
L 581 3500 
L 1159 3500 
L 1159 2956 
Q 1366 3272 1645 3428 
Q 1925 3584 2291 3584 
Q 2894 3584 3203 3211 
Q 3513 2838 3513 2113 
z
" transform="scale(0.015625)"/>
       <path id="DejaVuSans-74" d="M 1172 4494 
L 1172 3500 
L 2356 3500 
L 2356 3053 
L 1172 3053 
L 1172 1153 
Q 1172 725 1289 603 
Q 1406 481 1766 481 
L 2356 481 
L 2356 0 
L 1766 0 
Q 1100 0 847 248 
Q 594 497 594 1153 
L 594 3053 
L 172 3053 
L 172 3500 
L 594 3500 
L 594 4494 
L 1172 4494 
z
" transform="scale(0.015625)"/>
       <path id="DejaVuSans-68" d="M 3513 2113 
L 3513 0 
L 2938 0 
L 2938 2094 
Q 2938 2591 2744 2837 
Q 2550 3084 2163 3084 
Q 1697 3084 1428 2787 
Q 1159 2491 1159 1978 
L 1159 0 
L 581 0 
L 581 4863 
L 1159 4863 
L 1159 2956 
Q 1366 3272 1645 3428 
Q 1925 3584 2291 3584 
Q 2894 3584 3203 3211 
Q 3513 2838 3513 2113 
z
" transform="scale(0.015625)"/>
       <path id="DejaVuSans-73" d="M 2834 3397 
L 2834 2853 
Q 2591 2978 2328 3040 
Q 2066 3103 1784 3103 
Q 1356 3103 1142 2972 
Q 928 2841 928 2578 
Q 928 2378 1081 2264 
Q 1234 2150 1697 2047 
L 1894 2003 
Q 2506 1872 2764 1633 
Q 3022 1394 3022 966 
Q 3022 478 2636 193 
Q 2250 -91 1575 -91 
Q 1294 -91 989 -36 
Q 684 19 347 128 
L 347 722 
Q 666 556 975 473 
Q 1284 391 1588 391 
Q 1994 391 2212 530 
Q 2431 669 2431 922 
Q 2431 1156 2273 1281 
Q 2116 1406 1581 1522 
L 1381 1569 
Q 847 1681 609 1914 
Q 372 2147 372 2553 
Q 372 3047 722 3315 
Q 1072 3584 1716 3584 
Q 2034 3584 2315 3537 
Q 2597 3491 2834 3397 
z
" transform="scale(0.015625)"/>
       <path id="DejaVuSans-20" transform="scale(0.015625)"/>
       <path id="DejaVuSans-69" d="M 603 3500 
L 1178 3500 
L 1178 0 
L 603 0 
L 603 3500 
z
M 603 4863 
L 1178 4863 
L 1178 4134 
L 603 4134 
L 603 4863 
z
" transform="scale(0.015625)"/>
       <path id="DejaVuSans-63" d="M 3122 3366 
L 3122 2828 
Q 2878 2963 2633 3030 
Q 2388 3097 2138 3097 
Q 1578 3097 1268 2742 
Q 959 2388 959 1747 
Q 959 1106 1268 751 
Q 1578 397 2138 397 
Q 2388 397 2633 464 
Q 2878 531 3122 666 
L 3122 134 
Q 2881 22 2623 -34 
Q 2366 -91 2075 -91 
Q 1284 -91 818 406 
Q 353 903 353 1747 
Q 353 2603 823 3093 
Q 1294 3584 2113 3584 
Q 2378 3584 2631 3529 
Q 2884 3475 3122 3366 
z
" transform="scale(0.015625)"/>
       <path id="DejaVuSans-65" d="M 3597 1894 
L 3597 1613 
L 953 1613 
Q 991 1019 1311 708 
Q 1631 397 2203 397 
Q 2534 397 2845 478 
Q 3156 559 3463 722 
L 3463 178 
Q 3153 47 2828 -22 
Q 2503 -91 2169 -91 
Q 1331 -91 842 396 
Q 353 884 353 1716 
Q 353 2575 817 3079 
Q 1281 3584 2069 3584 
Q 2775 3584 3186 3129 
Q 3597 2675 3597 1894 
z
M 3022 2063 
Q 3016 2534 2758 2815 
Q 2500 3097 2075 3097 
Q 1594 3097 1305 2825 
Q 1016 2553 972 2059 
L 3022 2063 
z
" transform="scale(0.015625)"/>
       <path id="DejaVuSans-54" d="M -19 4666 
L 3928 4666 
L 3928 4134 
L 2272 4134 
L 2272 0 
L 1638 0 
L 1638 4134 
L -19 4134 
L -19 4666 
z
" transform="scale(0.015625)"/>
       <path id="DejaVuSans-72" d="M 2631 2963 
Q 2534 3019 2420 3045 
Q 2306 3072 2169 3072 
Q 1681 3072 1420 2755 
Q 1159 2438 1159 1844 
L 1159 0 
L 581 0 
L 581 3500 
L 1159 3500 
L 1159 2956 
Q 1341 3275 1631 3429 
Q 1922 3584 2338 3584 
Q 2397 3584 2469 3576 
Q 2541 3569 2628 3553 
L 2631 2963 
z
" transform="scale(0.015625)"/>
       <path id="DejaVuSans-61" d="M 2194 1759 
Q 1497 1759 1228 1600 
Q 959 1441 959 1056 
Q 959 750 1161 570 
Q 1363 391 1709 391 
Q 2188 391 2477 730 
Q 2766 1069 2766 1631 
L 2766 1759 
L 2194 1759 
z
M 3341 1997 
L 3341 0 
L 2766 0 
L 2766 531 
Q 2569 213 2275 61 
Q 1981 -91 1556 -91 
Q 1019 -91 701 211 
Q 384 513 384 1019 
Q 384 1609 779 1909 
Q 1175 2209 1959 2209 
L 2766 2209 
L 2766 2266 
Q 2766 2663 2505 2880 
Q 2244 3097 1772 3097 
Q 1472 3097 1187 3025 
Q 903 2953 641 2809 
L 641 3341 
Q 956 3463 1253 3523 
Q 1550 3584 1831 3584 
Q 2591 3584 2966 3190 
Q 3341 2797 3341 1997 
z
" transform="scale(0.015625)"/>
       <path id="DejaVuSans-6d" d="M 3328 2828 
Q 3544 3216 3844 3400 
Q 4144 3584 4550 3584 
Q 5097 3584 5394 3201 
Q 5691 2819 5691 2113 
L 5691 0 
L 5113 0 
L 5113 2094 
Q 5113 2597 4934 2840 
Q 4756 3084 4391 3084 
Q 3944 3084 3684 2787 
Q 3425 2491 3425 1978 
L 3425 0 
L 2847 0 
L 2847 2094 
Q 2847 2600 2669 2842 
Q 2491 3084 2119 3084 
Q 1678 3084 1418 2786 
Q 1159 2488 1159 1978 
L 1159 0 
L 581 0 
L 581 3500 
L 1159 3500 
L 1159 2956 
Q 1356 3278 1631 3431 
Q 1906 3584 2284 3584 
Q 2666 3584 2933 3390 
Q 3200 3197 3328 2828 
z
" transform="scale(0.015625)"/>
       <path id="DejaVuSans-53" d="M 3425 4513 
L 3425 3897 
Q 3066 4069 2747 4153 
Q 2428 4238 2131 4238 
Q 1616 4238 1336 4038 
Q 1056 3838 1056 3469 
Q 1056 3159 1242 3001 
Q 1428 2844 1947 2747 
L 2328 2669 
Q 3034 2534 3370 2195 
Q 3706 1856 3706 1288 
Q 3706 609 3251 259 
Q 2797 -91 1919 -91 
Q 1588 -91 1214 -16 
Q 841 59 441 206 
L 441 856 
Q 825 641 1194 531 
Q 1563 422 1919 422 
Q 2459 422 2753 634 
Q 3047 847 3047 1241 
Q 3047 1584 2836 1778 
Q 2625 1972 2144 2069 
L 1759 2144 
Q 1053 2284 737 2584 
Q 422 2884 422 3419 
Q 422 4038 858 4394 
Q 1294 4750 2059 4750 
Q 2388 4750 2728 4690 
Q 3069 4631 3425 4513 
z
" transform="scale(0.015625)"/>
      </defs>
      <use xlink:href="#DejaVuSans-4d"/>
      <use xlink:href="#DejaVuSans-6f" x="86.279297"/>
      <use xlink:href="#DejaVuSans-6e" x="147.460938"/>
      <use xlink:href="#DejaVuSans-74" x="210.839844"/>
      <use xlink:href="#DejaVuSans-68" x="250.048828"/>
      <use xlink:href="#DejaVuSans-73" x="313.427734"/>
      <use xlink:href="#DejaVuSans-20" x="365.527344"/>
      <use xlink:href="#DejaVuSans-73" x="397.314453"/>
      <use xlink:href="#DejaVuSans-69" x="449.414062"/>
      <use xlink:href="#DejaVuSans-6e" x="477.197266"/>
      <use xlink:href="#DejaVuSans-63" x="540.576172"/>
      <use xlink:href="#DejaVuSans-65" x="595.556641"/>
      <use xlink:href="#DejaVuSans-20" x="657.080078"/>
      <use xlink:href="#DejaVuSans-54" x="688.867188"/>
      <use xlink:href="#DejaVuSans-72" x="735.201172"/>
      <use xlink:href="#DejaVuSans-65" x="774.064453"/>
      <use xlink:href="#DejaVuSans-61" x="835.587891"/>
      <use xlink:href="#DejaVuSans-74" x="896.867188"/>
      <use xlink:href="#DejaVuSans-6d" x="936.076172"/>
      <use xlink:href="#DejaVuSans-65" x="1033.488281"/>
      <use xlink:href="#DejaVuSans-6e" x="1095.011719"/>
      <use xlink:href="#DejaVuSans-74" x="1158.390625"/>
      <use xlink:href="#DejaVuSans-20" x="1197.599609"/>
      <use xlink:href="#DejaVuSans-53" x="1229.386719"/>
      <use xlink:href="#DejaVuSans-74" x="1292.863281"/>
      <use xlink:href="#DejaVuSans-61" x="1332.072266"/>
      <use xlink:href="#DejaVuSans-72" x="1393.351562"/>
      <use xlink:href="#DejaVuSans-74" x="1434.464844"/>
     </g>
    </g>
   </g>
   <g id="matplotlib.axis_2">
    <g id="ytick_1">
     <g id="line2d_25">
      <defs>
       <path id="m0beded8ed2" d="M 0 0 
L -3.5 0 
" style="stroke: #000000; stroke-width: 0.8"/>
      </defs>
      <g>
       <use xlink:href="#m0beded8ed2" x="43.78125" y="299.518125" style="stroke: #000000; stroke-width: 0.8"/>
      </g>
     </g>
     <g id="text_26">
      <!-- 0.0 -->
      <g transform="translate(20.878125 303.317344) scale(0.1 -0.1)">
       <defs>
        <path id="DejaVuSans-2e" d="M 684 794 
L 1344 794 
L 1344 0 
L 684 0 
L 684 794 
z
" transform="scale(0.015625)"/>
       </defs>
       <use xlink:href="#DejaVuSans-30"/>
       <use xlink:href="#DejaVuSans-2e" x="63.623047"/>
       <use xlink:href="#DejaVuSans-30" x="95.410156"/>
      </g>
     </g>
    </g>
    <g id="ytick_2">
     <g id="line2d_26">
      <g>
       <use xlink:href="#m0beded8ed2" x="43.78125" y="244.078125" style="stroke: #000000; stroke-width: 0.8"/>
      </g>
     </g>
     <g id="text_27">
      <!-- 0.2 -->
      <g transform="translate(20.878125 247.877344) scale(0.1 -0.1)">
       <use xlink:href="#DejaVuSans-30"/>
       <use xlink:href="#DejaVuSans-2e" x="63.623047"/>
       <use xlink:href="#DejaVuSans-32" x="95.410156"/>
      </g>
     </g>
    </g>
    <g id="ytick_3">
     <g id="line2d_27">
      <g>
       <use xlink:href="#m0beded8ed2" x="43.78125" y="188.638125" style="stroke: #000000; stroke-width: 0.8"/>
      </g>
     </g>
     <g id="text_28">
      <!-- 0.4 -->
      <g transform="translate(20.878125 192.437344) scale(0.1 -0.1)">
       <use xlink:href="#DejaVuSans-30"/>
       <use xlink:href="#DejaVuSans-2e" x="63.623047"/>
       <use xlink:href="#DejaVuSans-34" x="95.410156"/>
      </g>
     </g>
    </g>
    <g id="ytick_4">
     <g id="line2d_28">
      <g>
       <use xlink:href="#m0beded8ed2" x="43.78125" y="133.198125" style="stroke: #000000; stroke-width: 0.8"/>
      </g>
     </g>
     <g id="text_29">
      <!-- 0.6 -->
      <g transform="translate(20.878125 136.997344) scale(0.1 -0.1)">
       <use xlink:href="#DejaVuSans-30"/>
       <use xlink:href="#DejaVuSans-2e" x="63.623047"/>
       <use xlink:href="#DejaVuSans-36" x="95.410156"/>
      </g>
     </g>
    </g>
    <g id="ytick_5">
     <g id="line2d_29">
      <g>
       <use xlink:href="#m0beded8ed2" x="43.78125" y="77.758125" style="stroke: #000000; stroke-width: 0.8"/>
      </g>
     </g>
     <g id="text_30">
      <!-- 0.8 -->
      <g transform="translate(20.878125 81.557344) scale(0.1 -0.1)">
       <use xlink:href="#DejaVuSans-30"/>
       <use xlink:href="#DejaVuSans-2e" x="63.623047"/>
       <use xlink:href="#DejaVuSans-38" x="95.410156"/>
      </g>
     </g>
    </g>
    <g id="ytick_6">
     <g id="line2d_30">
      <g>
       <use xlink:href="#m0beded8ed2" x="43.78125" y="22.318125" style="stroke: #000000; stroke-width: 0.8"/>
      </g>
     </g>
     <g id="text_31">
      <!-- 1.0 -->
      <g transform="translate(20.878125 26.117344) scale(0.1 -0.1)">
       <use xlink:href="#DejaVuSans-31"/>
       <use xlink:href="#DejaVuSans-2e" x="63.623047"/>
       <use xlink:href="#DejaVuSans-30" x="95.410156"/>
      </g>
     </g>
    </g>
    <g id="text_32">
     <!-- Probability of No Event -->
     <g transform="translate(14.798438 218.057969) rotate(-90) scale(0.1 -0.1)">
      <defs>
       <path id="DejaVuSans-50" d="M 1259 4147 
L 1259 2394 
L 2053 2394 
Q 2494 2394 2734 2622 
Q 2975 2850 2975 3272 
Q 2975 3691 2734 3919 
Q 2494 4147 2053 4147 
L 1259 4147 
z
M 628 4666 
L 2053 4666 
Q 2838 4666 3239 4311 
Q 3641 3956 3641 3272 
Q 3641 2581 3239 2228 
Q 2838 1875 2053 1875 
L 1259 1875 
L 1259 0 
L 628 0 
L 628 4666 
z
" transform="scale(0.015625)"/>
       <path id="DejaVuSans-62" d="M 3116 1747 
Q 3116 2381 2855 2742 
Q 2594 3103 2138 3103 
Q 1681 3103 1420 2742 
Q 1159 2381 1159 1747 
Q 1159 1113 1420 752 
Q 1681 391 2138 391 
Q 2594 391 2855 752 
Q 3116 1113 3116 1747 
z
M 1159 2969 
Q 1341 3281 1617 3432 
Q 1894 3584 2278 3584 
Q 2916 3584 3314 3078 
Q 3713 2572 3713 1747 
Q 3713 922 3314 415 
Q 2916 -91 2278 -91 
Q 1894 -91 1617 61 
Q 1341 213 1159 525 
L 1159 0 
L 581 0 
L 581 4863 
L 1159 4863 
L 1159 2969 
z
" transform="scale(0.015625)"/>
       <path id="DejaVuSans-6c" d="M 603 4863 
L 1178 4863 
L 1178 0 
L 603 0 
L 603 4863 
z
" transform="scale(0.015625)"/>
       <path id="DejaVuSans-79" d="M 2059 -325 
Q 1816 -950 1584 -1140 
Q 1353 -1331 966 -1331 
L 506 -1331 
L 506 -850 
L 844 -850 
Q 1081 -850 1212 -737 
Q 1344 -625 1503 -206 
L 1606 56 
L 191 3500 
L 800 3500 
L 1894 763 
L 2988 3500 
L 3597 3500 
L 2059 -325 
z
" transform="scale(0.015625)"/>
       <path id="DejaVuSans-66" d="M 2375 4863 
L 2375 4384 
L 1825 4384 
Q 1516 4384 1395 4259 
Q 1275 4134 1275 3809 
L 1275 3500 
L 2222 3500 
L 2222 3053 
L 1275 3053 
L 1275 0 
L 697 0 
L 697 3053 
L 147 3053 
L 147 3500 
L 697 3500 
L 697 3744 
Q 697 4328 969 4595 
Q 1241 4863 1831 4863 
L 2375 4863 
z
" transform="scale(0.015625)"/>
       <path id="DejaVuSans-4e" d="M 628 4666 
L 1478 4666 
L 3547 763 
L 3547 4666 
L 4159 4666 
L 4159 0 
L 3309 0 
L 1241 3903 
L 1241 0 
L 628 0 
L 628 4666 
z
" transform="scale(0.015625)"/>
       <path id="DejaVuSans-45" d="M 628 4666 
L 3578 4666 
L 3578 4134 
L 1259 4134 
L 1259 2753 
L 3481 2753 
L 3481 2222 
L 1259 2222 
L 1259 531 
L 3634 531 
L 3634 0 
L 628 0 
L 628 4666 
z
" transform="scale(0.015625)"/>
       <path id="DejaVuSans-76" d="M 191 3500 
L 800 3500 
L 1894 563 
L 2988 3500 
L 3597 3500 
L 2284 0 
L 1503 0 
L 191 3500 
z
" transform="scale(0.015625)"/>
      </defs>
      <use xlink:href="#DejaVuSans-50"/>
      <use xlink:href="#DejaVuSans-72" x="58.552734"/>
      <use xlink:href="#DejaVuSans-6f" x="97.416016"/>
      <use xlink:href="#DejaVuSans-62" x="158.597656"/>
      <use xlink:href="#DejaVuSans-61" x="222.074219"/>
      <use xlink:href="#DejaVuSans-62" x="283.353516"/>
      <use xlink:href="#DejaVuSans-69" x="346.830078"/>
      <use xlink:href="#DejaVuSans-6c" x="374.613281"/>
      <use xlink:href="#DejaVuSans-69" x="402.396484"/>
      <use xlink:href="#DejaVuSans-74" x="430.179688"/>
      <use xlink:href="#DejaVuSans-79" x="469.388672"/>
      <use xlink:href="#DejaVuSans-20" x="528.568359"/>
      <use xlink:href="#DejaVuSans-6f" x="560.355469"/>
      <use xlink:href="#DejaVuSans-66" x="621.537109"/>
      <use xlink:href="#DejaVuSans-20" x="656.742188"/>
      <use xlink:href="#DejaVuSans-4e" x="688.529297"/>
      <use xlink:href="#DejaVuSans-6f" x="763.333984"/>
      <use xlink:href="#DejaVuSans-20" x="824.515625"/>
      <use xlink:href="#DejaVuSans-45" x="856.302734"/>
      <use xlink:href="#DejaVuSans-76" x="919.486328"/>
      <use xlink:href="#DejaVuSans-65" x="978.666016"/>
      <use xlink:href="#DejaVuSans-6e" x="1040.189453"/>
      <use xlink:href="#DejaVuSans-74" x="1103.568359"/>
     </g>
    </g>
   </g>
   <g id="line2d_31">
    <defs>
     <path id="mb69df19cdd" d="M -4 0 
L 4 0 
M 0 4 
L 0 -4 
" style="stroke: #1f77b4; stroke-width: 0.5"/>
    </defs>
    <g clip-path="url(#p4743b527e7)">
     <use xlink:href="#mb69df19cdd" x="83.396834" y="22.318125" style="fill: #1f77b4; stroke: #1f77b4; stroke-width: 0.5"/>
     <use xlink:href="#mb69df19cdd" x="89.252797" y="22.318125" style="fill: #1f77b4; stroke: #1f77b4; stroke-width: 0.5"/>
     <use xlink:href="#mb69df19cdd" x="92.180778" y="22.318125" style="fill: #1f77b4; stroke: #1f77b4; stroke-width: 0.5"/>
     <use xlink:href="#mb69df19cdd" x="92.766374" y="22.318125" style="fill: #1f77b4; stroke: #1f77b4; stroke-width: 0.5"/>
     <use xlink:href="#mb69df19cdd" x="103.892702" y="23.071386" style="fill: #1f77b4; stroke: #1f77b4; stroke-width: 0.5"/>
     <use xlink:href="#mb69df19cdd" x="108.577472" y="23.826705" style="fill: #1f77b4; stroke: #1f77b4; stroke-width: 0.5"/>
     <use xlink:href="#mb69df19cdd" x="109.163068" y="23.826705" style="fill: #1f77b4; stroke: #1f77b4; stroke-width: 0.5"/>
     <use xlink:href="#mb69df19cdd" x="113.262242" y="23.826705" style="fill: #1f77b4; stroke: #1f77b4; stroke-width: 0.5"/>
     <use xlink:href="#mb69df19cdd" x="116.190223" y="23.826705" style="fill: #1f77b4; stroke: #1f77b4; stroke-width: 0.5"/>
     <use xlink:href="#mb69df19cdd" x="127.902147" y="23.826705" style="fill: #1f77b4; stroke: #1f77b4; stroke-width: 0.5"/>
     <use xlink:href="#mb69df19cdd" x="131.415725" y="23.826705" style="fill: #1f77b4; stroke: #1f77b4; stroke-width: 0.5"/>
     <use xlink:href="#mb69df19cdd" x="133.172513" y="23.826705" style="fill: #1f77b4; stroke: #1f77b4; stroke-width: 0.5"/>
     <use xlink:href="#mb69df19cdd" x="136.686091" y="23.826705" style="fill: #1f77b4; stroke: #1f77b4; stroke-width: 0.5"/>
     <use xlink:href="#mb69df19cdd" x="140.199668" y="23.826705" style="fill: #1f77b4; stroke: #1f77b4; stroke-width: 0.5"/>
     <use xlink:href="#mb69df19cdd" x="140.785264" y="23.826705" style="fill: #1f77b4; stroke: #1f77b4; stroke-width: 0.5"/>
     <use xlink:href="#mb69df19cdd" x="144.298841" y="23.826705" style="fill: #1f77b4; stroke: #1f77b4; stroke-width: 0.5"/>
     <use xlink:href="#mb69df19cdd" x="145.470034" y="23.826705" style="fill: #1f77b4; stroke: #1f77b4; stroke-width: 0.5"/>
     <use xlink:href="#mb69df19cdd" x="146.641226" y="23.826705" style="fill: #1f77b4; stroke: #1f77b4; stroke-width: 0.5"/>
     <use xlink:href="#mb69df19cdd" x="147.812419" y="24.616652" style="fill: #1f77b4; stroke: #1f77b4; stroke-width: 0.5"/>
     <use xlink:href="#mb69df19cdd" x="149.569207" y="24.616652" style="fill: #1f77b4; stroke: #1f77b4; stroke-width: 0.5"/>
     <use xlink:href="#mb69df19cdd" x="154.253977" y="24.616652" style="fill: #1f77b4; stroke: #1f77b4; stroke-width: 0.5"/>
     <use xlink:href="#mb69df19cdd" x="155.42517" y="24.616652" style="fill: #1f77b4; stroke: #1f77b4; stroke-width: 0.5"/>
     <use xlink:href="#mb69df19cdd" x="158.938747" y="24.616652" style="fill: #1f77b4; stroke: #1f77b4; stroke-width: 0.5"/>
     <use xlink:href="#mb69df19cdd" x="162.452324" y="26.224263" style="fill: #1f77b4; stroke: #1f77b4; stroke-width: 0.5"/>
     <use xlink:href="#mb69df19cdd" x="163.037921" y="26.224263" style="fill: #1f77b4; stroke: #1f77b4; stroke-width: 0.5"/>
     <use xlink:href="#mb69df19cdd" x="166.551498" y="27.032824" style="fill: #1f77b4; stroke: #1f77b4; stroke-width: 0.5"/>
     <use xlink:href="#mb69df19cdd" x="168.308287" y="27.032824" style="fill: #1f77b4; stroke: #1f77b4; stroke-width: 0.5"/>
     <use xlink:href="#mb69df19cdd" x="168.893883" y="27.032824" style="fill: #1f77b4; stroke: #1f77b4; stroke-width: 0.5"/>
     <use xlink:href="#mb69df19cdd" x="169.479479" y="27.848649" style="fill: #1f77b4; stroke: #1f77b4; stroke-width: 0.5"/>
     <use xlink:href="#mb69df19cdd" x="170.065075" y="27.848649" style="fill: #1f77b4; stroke: #1f77b4; stroke-width: 0.5"/>
     <use xlink:href="#mb69df19cdd" x="170.650671" y="28.671889" style="fill: #1f77b4; stroke: #1f77b4; stroke-width: 0.5"/>
     <use xlink:href="#mb69df19cdd" x="171.821864" y="29.500165" style="fill: #1f77b4; stroke: #1f77b4; stroke-width: 0.5"/>
     <use xlink:href="#mb69df19cdd" x="172.993056" y="29.500165" style="fill: #1f77b4; stroke: #1f77b4; stroke-width: 0.5"/>
     <use xlink:href="#mb69df19cdd" x="173.578653" y="29.500165" style="fill: #1f77b4; stroke: #1f77b4; stroke-width: 0.5"/>
     <use xlink:href="#mb69df19cdd" x="174.164249" y="29.500165" style="fill: #1f77b4; stroke: #1f77b4; stroke-width: 0.5"/>
     <use xlink:href="#mb69df19cdd" x="174.749845" y="29.500165" style="fill: #1f77b4; stroke: #1f77b4; stroke-width: 0.5"/>
     <use xlink:href="#mb69df19cdd" x="178.263422" y="29.500165" style="fill: #1f77b4; stroke: #1f77b4; stroke-width: 0.5"/>
     <use xlink:href="#mb69df19cdd" x="178.849019" y="29.500165" style="fill: #1f77b4; stroke: #1f77b4; stroke-width: 0.5"/>
     <use xlink:href="#mb69df19cdd" x="181.777" y="29.500165" style="fill: #1f77b4; stroke: #1f77b4; stroke-width: 0.5"/>
     <use xlink:href="#mb69df19cdd" x="196.416905" y="32.047505" style="fill: #1f77b4; stroke: #1f77b4; stroke-width: 0.5"/>
     <use xlink:href="#mb69df19cdd" x="208.714426" y="34.602956" style="fill: #1f77b4; stroke: #1f77b4; stroke-width: 0.5"/>
     <use xlink:href="#mb69df19cdd" x="215.741581" y="34.602956" style="fill: #1f77b4; stroke: #1f77b4; stroke-width: 0.5"/>
     <use xlink:href="#mb69df19cdd" x="219.255158" y="34.602956" style="fill: #1f77b4; stroke: #1f77b4; stroke-width: 0.5"/>
     <use xlink:href="#mb69df19cdd" x="223.939928" y="35.463071" style="fill: #1f77b4; stroke: #1f77b4; stroke-width: 0.5"/>
     <use xlink:href="#mb69df19cdd" x="250.877354" y="37.188921" style="fill: #1f77b4; stroke: #1f77b4; stroke-width: 0.5"/>
     <use xlink:href="#mb69df19cdd" x="266.688452" y="37.188921" style="fill: #1f77b4; stroke: #1f77b4; stroke-width: 0.5"/>
     <use xlink:href="#mb69df19cdd" x="268.445241" y="37.188921" style="fill: #1f77b4; stroke: #1f77b4; stroke-width: 0.5"/>
     <use xlink:href="#mb69df19cdd" x="270.787625" y="38.931972" style="fill: #1f77b4; stroke: #1f77b4; stroke-width: 0.5"/>
     <use xlink:href="#mb69df19cdd" x="272.544414" y="38.931972" style="fill: #1f77b4; stroke: #1f77b4; stroke-width: 0.5"/>
     <use xlink:href="#mb69df19cdd" x="273.715607" y="38.931972" style="fill: #1f77b4; stroke: #1f77b4; stroke-width: 0.5"/>
     <use xlink:href="#mb69df19cdd" x="274.301203" y="38.931972" style="fill: #1f77b4; stroke: #1f77b4; stroke-width: 0.5"/>
     <use xlink:href="#mb69df19cdd" x="276.643588" y="38.931972" style="fill: #1f77b4; stroke: #1f77b4; stroke-width: 0.5"/>
     <use xlink:href="#mb69df19cdd" x="277.229184" y="38.931972" style="fill: #1f77b4; stroke: #1f77b4; stroke-width: 0.5"/>
     <use xlink:href="#mb69df19cdd" x="277.81478" y="38.931972" style="fill: #1f77b4; stroke: #1f77b4; stroke-width: 0.5"/>
     <use xlink:href="#mb69df19cdd" x="278.985973" y="38.931972" style="fill: #1f77b4; stroke: #1f77b4; stroke-width: 0.5"/>
     <use xlink:href="#mb69df19cdd" x="279.571569" y="38.931972" style="fill: #1f77b4; stroke: #1f77b4; stroke-width: 0.5"/>
     <use xlink:href="#mb69df19cdd" x="281.328357" y="38.931972" style="fill: #1f77b4; stroke: #1f77b4; stroke-width: 0.5"/>
     <use xlink:href="#mb69df19cdd" x="285.427531" y="38.931972" style="fill: #1f77b4; stroke: #1f77b4; stroke-width: 0.5"/>
     <use xlink:href="#mb69df19cdd" x="288.941108" y="38.931972" style="fill: #1f77b4; stroke: #1f77b4; stroke-width: 0.5"/>
     <use xlink:href="#mb69df19cdd" x="291.869089" y="39.859325" style="fill: #1f77b4; stroke: #1f77b4; stroke-width: 0.5"/>
     <use xlink:href="#mb69df19cdd" x="293.040282" y="39.859325" style="fill: #1f77b4; stroke: #1f77b4; stroke-width: 0.5"/>
     <use xlink:href="#mb69df19cdd" x="297.725052" y="39.859325" style="fill: #1f77b4; stroke: #1f77b4; stroke-width: 0.5"/>
     <use xlink:href="#mb69df19cdd" x="307.094591" y="40.796721" style="fill: #1f77b4; stroke: #1f77b4; stroke-width: 0.5"/>
     <use xlink:href="#mb69df19cdd" x="308.265784" y="40.796721" style="fill: #1f77b4; stroke: #1f77b4; stroke-width: 0.5"/>
     <use xlink:href="#mb69df19cdd" x="309.436976" y="40.796721" style="fill: #1f77b4; stroke: #1f77b4; stroke-width: 0.5"/>
     <use xlink:href="#mb69df19cdd" x="313.53615" y="40.796721" style="fill: #1f77b4; stroke: #1f77b4; stroke-width: 0.5"/>
     <use xlink:href="#mb69df19cdd" x="315.292938" y="40.796721" style="fill: #1f77b4; stroke: #1f77b4; stroke-width: 0.5"/>
     <use xlink:href="#mb69df19cdd" x="322.320093" y="40.796721" style="fill: #1f77b4; stroke: #1f77b4; stroke-width: 0.5"/>
     <use xlink:href="#mb69df19cdd" x="327.004863" y="42.713176" style="fill: #1f77b4; stroke: #1f77b4; stroke-width: 0.5"/>
     <use xlink:href="#mb69df19cdd" x="327.590459" y="42.713176" style="fill: #1f77b4; stroke: #1f77b4; stroke-width: 0.5"/>
     <use xlink:href="#mb69df19cdd" x="328.176055" y="42.713176" style="fill: #1f77b4; stroke: #1f77b4; stroke-width: 0.5"/>
     <use xlink:href="#mb69df19cdd" x="328.761651" y="42.713176" style="fill: #1f77b4; stroke: #1f77b4; stroke-width: 0.5"/>
     <use xlink:href="#mb69df19cdd" x="329.932844" y="42.713176" style="fill: #1f77b4; stroke: #1f77b4; stroke-width: 0.5"/>
     <use xlink:href="#mb69df19cdd" x="330.51844" y="42.713176" style="fill: #1f77b4; stroke: #1f77b4; stroke-width: 0.5"/>
     <use xlink:href="#mb69df19cdd" x="331.104036" y="42.713176" style="fill: #1f77b4; stroke: #1f77b4; stroke-width: 0.5"/>
     <use xlink:href="#mb69df19cdd" x="334.617614" y="43.708544" style="fill: #1f77b4; stroke: #1f77b4; stroke-width: 0.5"/>
     <use xlink:href="#mb69df19cdd" x="335.20321" y="43.708544" style="fill: #1f77b4; stroke: #1f77b4; stroke-width: 0.5"/>
     <use xlink:href="#mb69df19cdd" x="335.788806" y="43.708544" style="fill: #1f77b4; stroke: #1f77b4; stroke-width: 0.5"/>
     <use xlink:href="#mb69df19cdd" x="337.545595" y="43.708544" style="fill: #1f77b4; stroke: #1f77b4; stroke-width: 0.5"/>
     <use xlink:href="#mb69df19cdd" x="338.131191" y="43.708544" style="fill: #1f77b4; stroke: #1f77b4; stroke-width: 0.5"/>
     <use xlink:href="#mb69df19cdd" x="339.88798" y="44.727706" style="fill: #1f77b4; stroke: #1f77b4; stroke-width: 0.5"/>
     <use xlink:href="#mb69df19cdd" x="343.987153" y="44.727706" style="fill: #1f77b4; stroke: #1f77b4; stroke-width: 0.5"/>
     <use xlink:href="#mb69df19cdd" x="349.843115" y="46.782467" style="fill: #1f77b4; stroke: #1f77b4; stroke-width: 0.5"/>
     <use xlink:href="#mb69df19cdd" x="351.599904" y="46.782467" style="fill: #1f77b4; stroke: #1f77b4; stroke-width: 0.5"/>
     <use xlink:href="#mb69df19cdd" x="353.356693" y="46.782467" style="fill: #1f77b4; stroke: #1f77b4; stroke-width: 0.5"/>
     <use xlink:href="#mb69df19cdd" x="354.527885" y="47.826829" style="fill: #1f77b4; stroke: #1f77b4; stroke-width: 0.5"/>
     <use xlink:href="#mb69df19cdd" x="355.113481" y="47.826829" style="fill: #1f77b4; stroke: #1f77b4; stroke-width: 0.5"/>
     <use xlink:href="#mb69df19cdd" x="355.699078" y="47.826829" style="fill: #1f77b4; stroke: #1f77b4; stroke-width: 0.5"/>
     <use xlink:href="#mb69df19cdd" x="356.87027" y="47.826829" style="fill: #1f77b4; stroke: #1f77b4; stroke-width: 0.5"/>
     <use xlink:href="#mb69df19cdd" x="359.212655" y="47.826829" style="fill: #1f77b4; stroke: #1f77b4; stroke-width: 0.5"/>
     <use xlink:href="#mb69df19cdd" x="360.383847" y="47.826829" style="fill: #1f77b4; stroke: #1f77b4; stroke-width: 0.5"/>
     <use xlink:href="#mb69df19cdd" x="360.969444" y="47.826829" style="fill: #1f77b4; stroke: #1f77b4; stroke-width: 0.5"/>
     <use xlink:href="#mb69df19cdd" x="361.55504" y="47.826829" style="fill: #1f77b4; stroke: #1f77b4; stroke-width: 0.5"/>
     <use xlink:href="#mb69df19cdd" x="363.311829" y="47.826829" style="fill: #1f77b4; stroke: #1f77b4; stroke-width: 0.5"/>
     <use xlink:href="#mb69df19cdd" x="365.654213" y="47.826829" style="fill: #1f77b4; stroke: #1f77b4; stroke-width: 0.5"/>
     <use xlink:href="#mb69df19cdd" x="366.23981" y="47.826829" style="fill: #1f77b4; stroke: #1f77b4; stroke-width: 0.5"/>
     <use xlink:href="#mb69df19cdd" x="367.411002" y="47.826829" style="fill: #1f77b4; stroke: #1f77b4; stroke-width: 0.5"/>
     <use xlink:href="#mb69df19cdd" x="368.582195" y="47.826829" style="fill: #1f77b4; stroke: #1f77b4; stroke-width: 0.5"/>
     <use xlink:href="#mb69df19cdd" x="369.753387" y="47.826829" style="fill: #1f77b4; stroke: #1f77b4; stroke-width: 0.5"/>
     <use xlink:href="#mb69df19cdd" x="370.338983" y="47.826829" style="fill: #1f77b4; stroke: #1f77b4; stroke-width: 0.5"/>
     <use xlink:href="#mb69df19cdd" x="370.924579" y="47.826829" style="fill: #1f77b4; stroke: #1f77b4; stroke-width: 0.5"/>
     <use xlink:href="#mb69df19cdd" x="371.510176" y="47.826829" style="fill: #1f77b4; stroke: #1f77b4; stroke-width: 0.5"/>
     <use xlink:href="#mb69df19cdd" x="372.095772" y="47.826829" style="fill: #1f77b4; stroke: #1f77b4; stroke-width: 0.5"/>
     <use xlink:href="#mb69df19cdd" x="372.681368" y="47.826829" style="fill: #1f77b4; stroke: #1f77b4; stroke-width: 0.5"/>
     <use xlink:href="#mb69df19cdd" x="373.266964" y="47.826829" style="fill: #1f77b4; stroke: #1f77b4; stroke-width: 0.5"/>
     <use xlink:href="#mb69df19cdd" x="373.852561" y="47.826829" style="fill: #1f77b4; stroke: #1f77b4; stroke-width: 0.5"/>
     <use xlink:href="#mb69df19cdd" x="374.438157" y="47.826829" style="fill: #1f77b4; stroke: #1f77b4; stroke-width: 0.5"/>
     <use xlink:href="#mb69df19cdd" x="375.023753" y="47.826829" style="fill: #1f77b4; stroke: #1f77b4; stroke-width: 0.5"/>
     <use xlink:href="#mb69df19cdd" x="375.609349" y="47.826829" style="fill: #1f77b4; stroke: #1f77b4; stroke-width: 0.5"/>
     <use xlink:href="#mb69df19cdd" x="376.194945" y="47.826829" style="fill: #1f77b4; stroke: #1f77b4; stroke-width: 0.5"/>
     <use xlink:href="#mb69df19cdd" x="376.780542" y="47.826829" style="fill: #1f77b4; stroke: #1f77b4; stroke-width: 0.5"/>
     <use xlink:href="#mb69df19cdd" x="377.366138" y="47.826829" style="fill: #1f77b4; stroke: #1f77b4; stroke-width: 0.5"/>
     <use xlink:href="#mb69df19cdd" x="377.951734" y="47.826829" style="fill: #1f77b4; stroke: #1f77b4; stroke-width: 0.5"/>
     <use xlink:href="#mb69df19cdd" x="378.53733" y="47.826829" style="fill: #1f77b4; stroke: #1f77b4; stroke-width: 0.5"/>
     <use xlink:href="#mb69df19cdd" x="379.122927" y="47.826829" style="fill: #1f77b4; stroke: #1f77b4; stroke-width: 0.5"/>
     <use xlink:href="#mb69df19cdd" x="379.708523" y="49.265065" style="fill: #1f77b4; stroke: #1f77b4; stroke-width: 0.5"/>
     <use xlink:href="#mb69df19cdd" x="380.294119" y="49.265065" style="fill: #1f77b4; stroke: #1f77b4; stroke-width: 0.5"/>
     <use xlink:href="#mb69df19cdd" x="380.879715" y="49.265065" style="fill: #1f77b4; stroke: #1f77b4; stroke-width: 0.5"/>
     <use xlink:href="#mb69df19cdd" x="381.465311" y="49.265065" style="fill: #1f77b4; stroke: #1f77b4; stroke-width: 0.5"/>
     <use xlink:href="#mb69df19cdd" x="382.636504" y="50.829147" style="fill: #1f77b4; stroke: #1f77b4; stroke-width: 0.5"/>
     <use xlink:href="#mb69df19cdd" x="383.2221" y="50.829147" style="fill: #1f77b4; stroke: #1f77b4; stroke-width: 0.5"/>
     <use xlink:href="#mb69df19cdd" x="383.807696" y="52.487073" style="fill: #1f77b4; stroke: #1f77b4; stroke-width: 0.5"/>
     <use xlink:href="#mb69df19cdd" x="384.393293" y="52.487073" style="fill: #1f77b4; stroke: #1f77b4; stroke-width: 0.5"/>
     <use xlink:href="#mb69df19cdd" x="384.978889" y="52.487073" style="fill: #1f77b4; stroke: #1f77b4; stroke-width: 0.5"/>
     <use xlink:href="#mb69df19cdd" x="385.564485" y="52.487073" style="fill: #1f77b4; stroke: #1f77b4; stroke-width: 0.5"/>
     <use xlink:href="#mb69df19cdd" x="386.150081" y="52.487073" style="fill: #1f77b4; stroke: #1f77b4; stroke-width: 0.5"/>
     <use xlink:href="#mb69df19cdd" x="386.735677" y="52.487073" style="fill: #1f77b4; stroke: #1f77b4; stroke-width: 0.5"/>
     <use xlink:href="#mb69df19cdd" x="387.321274" y="52.487073" style="fill: #1f77b4; stroke: #1f77b4; stroke-width: 0.5"/>
     <use xlink:href="#mb69df19cdd" x="387.90687" y="52.487073" style="fill: #1f77b4; stroke: #1f77b4; stroke-width: 0.5"/>
     <use xlink:href="#mb69df19cdd" x="388.492466" y="54.795775" style="fill: #1f77b4; stroke: #1f77b4; stroke-width: 0.5"/>
     <use xlink:href="#mb69df19cdd" x="389.078062" y="54.795775" style="fill: #1f77b4; stroke: #1f77b4; stroke-width: 0.5"/>
     <use xlink:href="#mb69df19cdd" x="389.663659" y="54.795775" style="fill: #1f77b4; stroke: #1f77b4; stroke-width: 0.5"/>
     <use xlink:href="#mb69df19cdd" x="390.249255" y="54.795775" style="fill: #1f77b4; stroke: #1f77b4; stroke-width: 0.5"/>
     <use xlink:href="#mb69df19cdd" x="390.834851" y="54.795775" style="fill: #1f77b4; stroke: #1f77b4; stroke-width: 0.5"/>
     <use xlink:href="#mb69df19cdd" x="391.420447" y="54.795775" style="fill: #1f77b4; stroke: #1f77b4; stroke-width: 0.5"/>
     <use xlink:href="#mb69df19cdd" x="392.006043" y="54.795775" style="fill: #1f77b4; stroke: #1f77b4; stroke-width: 0.5"/>
     <use xlink:href="#mb69df19cdd" x="392.59164" y="54.795775" style="fill: #1f77b4; stroke: #1f77b4; stroke-width: 0.5"/>
     <use xlink:href="#mb69df19cdd" x="393.762832" y="54.795775" style="fill: #1f77b4; stroke: #1f77b4; stroke-width: 0.5"/>
     <use xlink:href="#mb69df19cdd" x="394.348428" y="54.795775" style="fill: #1f77b4; stroke: #1f77b4; stroke-width: 0.5"/>
     <use xlink:href="#mb69df19cdd" x="394.934024" y="54.795775" style="fill: #1f77b4; stroke: #1f77b4; stroke-width: 0.5"/>
     <use xlink:href="#mb69df19cdd" x="395.519621" y="54.795775" style="fill: #1f77b4; stroke: #1f77b4; stroke-width: 0.5"/>
     <use xlink:href="#mb69df19cdd" x="396.690813" y="54.795775" style="fill: #1f77b4; stroke: #1f77b4; stroke-width: 0.5"/>
     <use xlink:href="#mb69df19cdd" x="397.276409" y="54.795775" style="fill: #1f77b4; stroke: #1f77b4; stroke-width: 0.5"/>
     <use xlink:href="#mb69df19cdd" x="397.862006" y="54.795775" style="fill: #1f77b4; stroke: #1f77b4; stroke-width: 0.5"/>
     <use xlink:href="#mb69df19cdd" x="398.447602" y="54.795775" style="fill: #1f77b4; stroke: #1f77b4; stroke-width: 0.5"/>
     <use xlink:href="#mb69df19cdd" x="399.033198" y="54.795775" style="fill: #1f77b4; stroke: #1f77b4; stroke-width: 0.5"/>
     <use xlink:href="#mb69df19cdd" x="400.20439" y="54.795775" style="fill: #1f77b4; stroke: #1f77b4; stroke-width: 0.5"/>
     <use xlink:href="#mb69df19cdd" x="400.789987" y="54.795775" style="fill: #1f77b4; stroke: #1f77b4; stroke-width: 0.5"/>
     <use xlink:href="#mb69df19cdd" x="401.375583" y="54.795775" style="fill: #1f77b4; stroke: #1f77b4; stroke-width: 0.5"/>
     <use xlink:href="#mb69df19cdd" x="401.961179" y="54.795775" style="fill: #1f77b4; stroke: #1f77b4; stroke-width: 0.5"/>
     <use xlink:href="#mb69df19cdd" x="402.546775" y="54.795775" style="fill: #1f77b4; stroke: #1f77b4; stroke-width: 0.5"/>
     <use xlink:href="#mb69df19cdd" x="403.717968" y="54.795775" style="fill: #1f77b4; stroke: #1f77b4; stroke-width: 0.5"/>
     <use xlink:href="#mb69df19cdd" x="404.303564" y="54.795775" style="fill: #1f77b4; stroke: #1f77b4; stroke-width: 0.5"/>
     <use xlink:href="#mb69df19cdd" x="404.88916" y="54.795775" style="fill: #1f77b4; stroke: #1f77b4; stroke-width: 0.5"/>
     <use xlink:href="#mb69df19cdd" x="406.060353" y="54.795775" style="fill: #1f77b4; stroke: #1f77b4; stroke-width: 0.5"/>
     <use xlink:href="#mb69df19cdd" x="406.645949" y="54.795775" style="fill: #1f77b4; stroke: #1f77b4; stroke-width: 0.5"/>
     <use xlink:href="#mb69df19cdd" x="407.231545" y="54.795775" style="fill: #1f77b4; stroke: #1f77b4; stroke-width: 0.5"/>
     <use xlink:href="#mb69df19cdd" x="407.817141" y="54.795775" style="fill: #1f77b4; stroke: #1f77b4; stroke-width: 0.5"/>
     <use xlink:href="#mb69df19cdd" x="408.402738" y="54.795775" style="fill: #1f77b4; stroke: #1f77b4; stroke-width: 0.5"/>
     <use xlink:href="#mb69df19cdd" x="409.57393" y="54.795775" style="fill: #1f77b4; stroke: #1f77b4; stroke-width: 0.5"/>
     <use xlink:href="#mb69df19cdd" x="410.745122" y="54.795775" style="fill: #1f77b4; stroke: #1f77b4; stroke-width: 0.5"/>
     <use xlink:href="#mb69df19cdd" x="411.330719" y="54.795775" style="fill: #1f77b4; stroke: #1f77b4; stroke-width: 0.5"/>
     <use xlink:href="#mb69df19cdd" x="412.501911" y="54.795775" style="fill: #1f77b4; stroke: #1f77b4; stroke-width: 0.5"/>
     <use xlink:href="#mb69df19cdd" x="413.087507" y="54.795775" style="fill: #1f77b4; stroke: #1f77b4; stroke-width: 0.5"/>
     <use xlink:href="#mb69df19cdd" x="413.673104" y="54.795775" style="fill: #1f77b4; stroke: #1f77b4; stroke-width: 0.5"/>
     <use xlink:href="#mb69df19cdd" x="414.2587" y="54.795775" style="fill: #1f77b4; stroke: #1f77b4; stroke-width: 0.5"/>
     <use xlink:href="#mb69df19cdd" x="414.844296" y="54.795775" style="fill: #1f77b4; stroke: #1f77b4; stroke-width: 0.5"/>
     <use xlink:href="#mb69df19cdd" x="415.429892" y="54.795775" style="fill: #1f77b4; stroke: #1f77b4; stroke-width: 0.5"/>
     <use xlink:href="#mb69df19cdd" x="416.601085" y="54.795775" style="fill: #1f77b4; stroke: #1f77b4; stroke-width: 0.5"/>
     <use xlink:href="#mb69df19cdd" x="417.186681" y="54.795775" style="fill: #1f77b4; stroke: #1f77b4; stroke-width: 0.5"/>
     <use xlink:href="#mb69df19cdd" x="418.357873" y="54.795775" style="fill: #1f77b4; stroke: #1f77b4; stroke-width: 0.5"/>
     <use xlink:href="#mb69df19cdd" x="418.94347" y="54.795775" style="fill: #1f77b4; stroke: #1f77b4; stroke-width: 0.5"/>
     <use xlink:href="#mb69df19cdd" x="420.114662" y="54.795775" style="fill: #1f77b4; stroke: #1f77b4; stroke-width: 0.5"/>
     <use xlink:href="#mb69df19cdd" x="420.700258" y="54.795775" style="fill: #1f77b4; stroke: #1f77b4; stroke-width: 0.5"/>
     <use xlink:href="#mb69df19cdd" x="422.457047" y="54.795775" style="fill: #1f77b4; stroke: #1f77b4; stroke-width: 0.5"/>
     <use xlink:href="#mb69df19cdd" x="429.484202" y="54.795775" style="fill: #1f77b4; stroke: #1f77b4; stroke-width: 0.5"/>
     <use xlink:href="#mb69df19cdd" x="431.826586" y="54.795775" style="fill: #1f77b4; stroke: #1f77b4; stroke-width: 0.5"/>
     <use xlink:href="#mb69df19cdd" x="432.997779" y="95.582833" style="fill: #1f77b4; stroke: #1f77b4; stroke-width: 0.5"/>
     <use xlink:href="#mb69df19cdd" x="435.92576" y="95.582833" style="fill: #1f77b4; stroke: #1f77b4; stroke-width: 0.5"/>
     <use xlink:href="#mb69df19cdd" x="456.421628" y="163.561264" style="fill: #1f77b4; stroke: #1f77b4; stroke-width: 0.5"/>
     <use xlink:href="#mb69df19cdd" x="469.890341" y="163.561264" style="fill: #1f77b4; stroke: #1f77b4; stroke-width: 0.5"/>
    </g>
   </g>
   <g id="line2d_32">
    <path d="M 64.072159 22.318125 
L 95.108759 22.318125 
L 95.108759 23.071386 
L 106.820683 23.071386 
L 106.820683 23.826705 
L 147.226823 23.826705 
L 147.226823 24.616652 
L 160.695536 24.616652 
L 160.695536 25.420457 
L 161.281132 25.420457 
L 161.281132 26.224263 
L 165.965902 26.224263 
L 165.965902 27.032824 
L 169.479479 27.032824 
L 169.479479 27.848649 
L 170.650671 27.848649 
L 170.650671 28.671889 
L 171.236268 28.671889 
L 171.236268 29.500165 
L 185.290577 29.500165 
L 185.290577 30.349278 
L 191.146539 30.349278 
L 191.146539 31.198391 
L 193.488924 31.198391 
L 193.488924 32.047505 
L 197.002501 32.047505 
L 197.002501 32.899322 
L 205.200849 32.899322 
L 205.200849 33.751139 
L 208.714426 33.751139 
L 208.714426 34.602956 
L 220.42635 34.602956 
L 220.42635 35.463071 
L 232.723871 35.463071 
L 232.723871 36.325996 
L 242.093411 36.325996 
L 242.093411 37.188921 
L 269.030837 37.188921 
L 269.030837 38.931972 
L 291.869089 38.931972 
L 291.869089 39.859325 
L 301.824225 39.859325 
L 301.824225 40.796721 
L 327.004863 40.796721 
L 327.004863 42.713176 
L 332.860825 42.713176 
L 332.860825 43.708544 
L 339.88798 43.708544 
L 339.88798 44.727706 
L 345.743942 44.727706 
L 345.743942 46.782467 
L 353.942289 46.782467 
L 353.942289 47.826829 
L 379.708523 47.826829 
L 379.708523 49.265065 
L 382.050908 49.265065 
L 382.050908 50.829147 
L 383.807696 50.829147 
L 383.807696 52.487073 
L 388.492466 52.487073 
L 388.492466 54.795775 
L 432.412183 54.795775 
L 432.412183 95.582833 
L 454.664839 95.582833 
L 454.664839 163.561264 
L 469.890341 163.561264 
L 469.890341 163.561264 
" clip-path="url(#p4743b527e7)" style="fill: none; stroke: #1f77b4; stroke-width: 1.5; stroke-linecap: square"/>
   </g>
   <g id="patch_3">
    <path d="M 43.78125 299.518125 
L 43.78125 22.318125 
" style="fill: none; stroke: #000000; stroke-width: 0.8; stroke-linejoin: miter; stroke-linecap: square"/>
   </g>
   <g id="patch_4">
    <path d="M 43.78125 299.518125 
L 490.18125 299.518125 
" style="fill: none; stroke: #000000; stroke-width: 0.8; stroke-linejoin: miter; stroke-linecap: square"/>
   </g>
   <g id="text_33">
    <!-- Time to Unfavorable TB Treatment Outcome of 374 patients -->
    <g transform="translate(87.104062 16.318125) scale(0.12 -0.12)">
     <defs>
      <path id="DejaVuSans-55" d="M 556 4666 
L 1191 4666 
L 1191 1831 
Q 1191 1081 1462 751 
Q 1734 422 2344 422 
Q 2950 422 3222 751 
Q 3494 1081 3494 1831 
L 3494 4666 
L 4128 4666 
L 4128 1753 
Q 4128 841 3676 375 
Q 3225 -91 2344 -91 
Q 1459 -91 1007 375 
Q 556 841 556 1753 
L 556 4666 
z
" transform="scale(0.015625)"/>
      <path id="DejaVuSans-42" d="M 1259 2228 
L 1259 519 
L 2272 519 
Q 2781 519 3026 730 
Q 3272 941 3272 1375 
Q 3272 1813 3026 2020 
Q 2781 2228 2272 2228 
L 1259 2228 
z
M 1259 4147 
L 1259 2741 
L 2194 2741 
Q 2656 2741 2882 2914 
Q 3109 3088 3109 3444 
Q 3109 3797 2882 3972 
Q 2656 4147 2194 4147 
L 1259 4147 
z
M 628 4666 
L 2241 4666 
Q 2963 4666 3353 4366 
Q 3744 4066 3744 3513 
Q 3744 3084 3544 2831 
Q 3344 2578 2956 2516 
Q 3422 2416 3680 2098 
Q 3938 1781 3938 1306 
Q 3938 681 3513 340 
Q 3088 0 2303 0 
L 628 0 
L 628 4666 
z
" transform="scale(0.015625)"/>
      <path id="DejaVuSans-4f" d="M 2522 4238 
Q 1834 4238 1429 3725 
Q 1025 3213 1025 2328 
Q 1025 1447 1429 934 
Q 1834 422 2522 422 
Q 3209 422 3611 934 
Q 4013 1447 4013 2328 
Q 4013 3213 3611 3725 
Q 3209 4238 2522 4238 
z
M 2522 4750 
Q 3503 4750 4090 4092 
Q 4678 3434 4678 2328 
Q 4678 1225 4090 567 
Q 3503 -91 2522 -91 
Q 1538 -91 948 565 
Q 359 1222 359 2328 
Q 359 3434 948 4092 
Q 1538 4750 2522 4750 
z
" transform="scale(0.015625)"/>
      <path id="DejaVuSans-75" d="M 544 1381 
L 544 3500 
L 1119 3500 
L 1119 1403 
Q 1119 906 1312 657 
Q 1506 409 1894 409 
Q 2359 409 2629 706 
Q 2900 1003 2900 1516 
L 2900 3500 
L 3475 3500 
L 3475 0 
L 2900 0 
L 2900 538 
Q 2691 219 2414 64 
Q 2138 -91 1772 -91 
Q 1169 -91 856 284 
Q 544 659 544 1381 
z
M 1991 3584 
L 1991 3584 
z
" transform="scale(0.015625)"/>
      <path id="DejaVuSans-70" d="M 1159 525 
L 1159 -1331 
L 581 -1331 
L 581 3500 
L 1159 3500 
L 1159 2969 
Q 1341 3281 1617 3432 
Q 1894 3584 2278 3584 
Q 2916 3584 3314 3078 
Q 3713 2572 3713 1747 
Q 3713 922 3314 415 
Q 2916 -91 2278 -91 
Q 1894 -91 1617 61 
Q 1341 213 1159 525 
z
M 3116 1747 
Q 3116 2381 2855 2742 
Q 2594 3103 2138 3103 
Q 1681 3103 1420 2742 
Q 1159 2381 1159 1747 
Q 1159 1113 1420 752 
Q 1681 391 2138 391 
Q 2594 391 2855 752 
Q 3116 1113 3116 1747 
z
" transform="scale(0.015625)"/>
     </defs>
     <use xlink:href="#DejaVuSans-54"/>
     <use xlink:href="#DejaVuSans-69" x="57.958984"/>
     <use xlink:href="#DejaVuSans-6d" x="85.742188"/>
     <use xlink:href="#DejaVuSans-65" x="183.154297"/>
     <use xlink:href="#DejaVuSans-20" x="244.677734"/>
     <use xlink:href="#DejaVuSans-74" x="276.464844"/>
     <use xlink:href="#DejaVuSans-6f" x="315.673828"/>
     <use xlink:href="#DejaVuSans-20" x="376.855469"/>
     <use xlink:href="#DejaVuSans-55" x="408.642578"/>
     <use xlink:href="#DejaVuSans-6e" x="481.835938"/>
     <use xlink:href="#DejaVuSans-66" x="545.214844"/>
     <use xlink:href="#DejaVuSans-61" x="580.419922"/>
     <use xlink:href="#DejaVuSans-76" x="641.699219"/>
     <use xlink:href="#DejaVuSans-6f" x="700.878906"/>
     <use xlink:href="#DejaVuSans-72" x="762.060547"/>
     <use xlink:href="#DejaVuSans-61" x="803.173828"/>
     <use xlink:href="#DejaVuSans-62" x="864.453125"/>
     <use xlink:href="#DejaVuSans-6c" x="927.929688"/>
     <use xlink:href="#DejaVuSans-65" x="955.712891"/>
     <use xlink:href="#DejaVuSans-20" x="1017.236328"/>
     <use xlink:href="#DejaVuSans-54" x="1049.023438"/>
     <use xlink:href="#DejaVuSans-42" x="1110.107422"/>
     <use xlink:href="#DejaVuSans-20" x="1178.710938"/>
     <use xlink:href="#DejaVuSans-54" x="1210.498047"/>
     <use xlink:href="#DejaVuSans-72" x="1256.832031"/>
     <use xlink:href="#DejaVuSans-65" x="1295.695312"/>
     <use xlink:href="#DejaVuSans-61" x="1357.21875"/>
     <use xlink:href="#DejaVuSans-74" x="1418.498047"/>
     <use xlink:href="#DejaVuSans-6d" x="1457.707031"/>
     <use xlink:href="#DejaVuSans-65" x="1555.119141"/>
     <use xlink:href="#DejaVuSans-6e" x="1616.642578"/>
     <use xlink:href="#DejaVuSans-74" x="1680.021484"/>
     <use xlink:href="#DejaVuSans-20" x="1719.230469"/>
     <use xlink:href="#DejaVuSans-4f" x="1751.017578"/>
     <use xlink:href="#DejaVuSans-75" x="1829.728516"/>
     <use xlink:href="#DejaVuSans-74" x="1893.107422"/>
     <use xlink:href="#DejaVuSans-63" x="1932.316406"/>
     <use xlink:href="#DejaVuSans-6f" x="1987.296875"/>
     <use xlink:href="#DejaVuSans-6d" x="2048.478516"/>
     <use xlink:href="#DejaVuSans-65" x="2145.890625"/>
     <use xlink:href="#DejaVuSans-20" x="2207.414062"/>
     <use xlink:href="#DejaVuSans-6f" x="2239.201172"/>
     <use xlink:href="#DejaVuSans-66" x="2300.382812"/>
     <use xlink:href="#DejaVuSans-20" x="2335.587891"/>
     <use xlink:href="#DejaVuSans-33" x="2367.375"/>
     <use xlink:href="#DejaVuSans-37" x="2430.998047"/>
     <use xlink:href="#DejaVuSans-34" x="2494.621094"/>
     <use xlink:href="#DejaVuSans-20" x="2558.244141"/>
     <use xlink:href="#DejaVuSans-70" x="2590.03125"/>
     <use xlink:href="#DejaVuSans-61" x="2653.507812"/>
     <use xlink:href="#DejaVuSans-74" x="2714.787109"/>
     <use xlink:href="#DejaVuSans-69" x="2753.996094"/>
     <use xlink:href="#DejaVuSans-65" x="2781.779297"/>
     <use xlink:href="#DejaVuSans-6e" x="2843.302734"/>
     <use xlink:href="#DejaVuSans-74" x="2906.681641"/>
     <use xlink:href="#DejaVuSans-73" x="2945.890625"/>
    </g>
   </g>
  </g>
 </g>
 <defs>
  <clipPath id="p4743b527e7">
   <rect x="43.78125" y="22.318125" width="446.4" height="277.2"/>
  </clipPath>
 </defs>
</svg>
