<?xml version="1.0" encoding="utf-8" standalone="no"?>
<!DOCTYPE svg PUBLIC "-//W3C//DTD SVG 1.1//EN"
  "http://www.w3.org/Graphics/SVG/1.1/DTD/svg11.dtd">
<svg xmlns:xlink="http://www.w3.org/1999/xlink" width="449.4625pt" height="291.44125pt" viewBox="0 0 449.4625 291.44125" xmlns="http://www.w3.org/2000/svg" version="1.1">
 <metadata>
  <rdf:RDF xmlns:dc="http://purl.org/dc/elements/1.1/" xmlns:cc="http://creativecommons.org/ns#" xmlns:rdf="http://www.w3.org/1999/02/22-rdf-syntax-ns#">
   <cc:Work>
    <dc:type rdf:resource="http://purl.org/dc/dcmitype/StillImage"/>
    <dc:date>2025-02-21T22:21:04.763378</dc:date>
    <dc:format>image/svg+xml</dc:format>
    <dc:creator>
     <cc:Agent>
      <dc:title>Matplotlib v3.8.1, https://matplotlib.org/</dc:title>
     </cc:Agent>
    </dc:creator>
   </cc:Work>
  </rdf:RDF>
 </metadata>
 <defs>
  <style type="text/css">*{stroke-linejoin: round; stroke-linecap: butt}</style>
 </defs>
 <g id="figure_1">
  <g id="patch_1">
   <path d="M 0 291.44125 
L 449.4625 291.44125 
L 449.4625 0 
L 0 0 
z
" style="fill: #ffffff"/>
  </g>
  <g id="axes_1">
   <g id="patch_2">
    <path d="M 41.2125 257.75625 
L 320.2125 257.75625 
L 320.2125 35.99625 
L 41.2125 35.99625 
z
" style="fill: #ffffff"/>
   </g>
   <g id="line2d_1">
    <path d="M 41.2125 202.31625 
L 320.2125 202.31625 
" clip-path="url(#p7960e96bb8)" style="fill: none; stroke-dasharray: 3.7,1.6; stroke-dashoffset: 0; stroke: #d3d3d3"/>
   </g>
   <g id="line2d_2">
    <path d="M 41.2125 146.87625 
L 320.2125 146.87625 
" clip-path="url(#p7960e96bb8)" style="fill: none; stroke-dasharray: 3.7,1.6; stroke-dashoffset: 0; stroke: #d3d3d3"/>
   </g>
   <g id="line2d_3">
    <path d="M 41.2125 91.43625 
L 320.2125 91.43625 
" clip-path="url(#p7960e96bb8)" style="fill: none; stroke-dasharray: 3.7,1.6; stroke-dashoffset: 0; stroke: #d3d3d3"/>
   </g>
   <g id="matplotlib.axis_1">
    <g id="xtick_1">
     <g id="line2d_4">
      <defs>
       <path id="m467615800c" d="M 0 0 
L 0 3.5 
" style="stroke: #000000; stroke-width: 0.8"/>
      </defs>
      <g>
       <use xlink:href="#m467615800c" x="74.841903" y="257.75625" style="stroke: #000000; stroke-width: 0.8"/>
      </g>
     </g>
     <g id="text_1">
      <!-- $\mathdefault{2^{1}}$ -->
      <g transform="translate(70.361903 270.835) scale(0.08 -0.08)">
       <defs>
        <path id="DejaVuSans-32" d="M 1228 531 
L 3431 531 
L 3431 0 
L 469 0 
L 469 531 
Q 828 903 1448 1529 
Q 2069 2156 2228 2338 
Q 2531 2678 2651 2914 
Q 2772 3150 2772 3378 
Q 2772 3750 2511 3984 
Q 2250 4219 1831 4219 
Q 1534 4219 1204 4116 
Q 875 4013 500 3803 
L 500 4441 
Q 881 4594 1212 4672 
Q 1544 4750 1819 4750 
Q 2544 4750 2975 4387 
Q 3406 4025 3406 3419 
Q 3406 3131 3298 2873 
Q 3191 2616 2906 2266 
Q 2828 2175 2409 1742 
Q 1991 1309 1228 531 
z
" transform="scale(0.015625)"/>
        <path id="DejaVuSans-31" d="M 794 531 
L 1825 531 
L 1825 4091 
L 703 3866 
L 703 4441 
L 1819 4666 
L 2450 4666 
L 2450 531 
L 3481 531 
L 3481 0 
L 794 0 
L 794 531 
z
" transform="scale(0.015625)"/>
       </defs>
       <use xlink:href="#DejaVuSans-32" transform="translate(0 0.684375)"/>
       <use xlink:href="#DejaVuSans-31" transform="translate(64.580078 38.965625) scale(0.7)"/>
      </g>
     </g>
    </g>
    <g id="xtick_2">
     <g id="line2d_5">
      <g>
       <use xlink:href="#m467615800c" x="124.383557" y="257.75625" style="stroke: #000000; stroke-width: 0.8"/>
      </g>
     </g>
     <g id="text_2">
      <!-- $\mathdefault{2^{2}}$ -->
      <g transform="translate(119.903557 270.835) scale(0.08 -0.08)">
       <use xlink:href="#DejaVuSans-32" transform="translate(0 0.765625)"/>
       <use xlink:href="#DejaVuSans-32" transform="translate(64.580078 39.046875) scale(0.7)"/>
      </g>
     </g>
    </g>
    <g id="xtick_3">
     <g id="line2d_6">
      <g>
       <use xlink:href="#m467615800c" x="173.925212" y="257.75625" style="stroke: #000000; stroke-width: 0.8"/>
      </g>
     </g>
     <g id="text_3">
      <!-- $\mathdefault{2^{3}}$ -->
      <g transform="translate(169.445212 270.835) scale(0.08 -0.08)">
       <defs>
        <path id="DejaVuSans-33" d="M 2597 2516 
Q 3050 2419 3304 2112 
Q 3559 1806 3559 1356 
Q 3559 666 3084 287 
Q 2609 -91 1734 -91 
Q 1441 -91 1130 -33 
Q 819 25 488 141 
L 488 750 
Q 750 597 1062 519 
Q 1375 441 1716 441 
Q 2309 441 2620 675 
Q 2931 909 2931 1356 
Q 2931 1769 2642 2001 
Q 2353 2234 1838 2234 
L 1294 2234 
L 1294 2753 
L 1863 2753 
Q 2328 2753 2575 2939 
Q 2822 3125 2822 3475 
Q 2822 3834 2567 4026 
Q 2313 4219 1838 4219 
Q 1578 4219 1281 4162 
Q 984 4106 628 3988 
L 628 4550 
Q 988 4650 1302 4700 
Q 1616 4750 1894 4750 
Q 2613 4750 3031 4423 
Q 3450 4097 3450 3541 
Q 3450 3153 3228 2886 
Q 3006 2619 2597 2516 
z
" transform="scale(0.015625)"/>
       </defs>
       <use xlink:href="#DejaVuSans-32" transform="translate(0 0.765625)"/>
       <use xlink:href="#DejaVuSans-33" transform="translate(64.580078 39.046875) scale(0.7)"/>
      </g>
     </g>
    </g>
    <g id="xtick_4">
     <g id="line2d_7">
      <g>
       <use xlink:href="#m467615800c" x="223.466867" y="257.75625" style="stroke: #000000; stroke-width: 0.8"/>
      </g>
     </g>
     <g id="text_4">
      <!-- $\mathdefault{2^{4}}$ -->
      <g transform="translate(218.986867 270.835) scale(0.08 -0.08)">
       <defs>
        <path id="DejaVuSans-34" d="M 2419 4116 
L 825 1625 
L 2419 1625 
L 2419 4116 
z
M 2253 4666 
L 3047 4666 
L 3047 1625 
L 3713 1625 
L 3713 1100 
L 3047 1100 
L 3047 0 
L 2419 0 
L 2419 1100 
L 313 1100 
L 313 1709 
L 2253 4666 
z
" transform="scale(0.015625)"/>
       </defs>
       <use xlink:href="#DejaVuSans-32" transform="translate(0 0.684375)"/>
       <use xlink:href="#DejaVuSans-34" transform="translate(64.580078 38.965625) scale(0.7)"/>
      </g>
     </g>
    </g>
    <g id="xtick_5">
     <g id="line2d_8">
      <g>
       <use xlink:href="#m467615800c" x="273.008522" y="257.75625" style="stroke: #000000; stroke-width: 0.8"/>
      </g>
     </g>
     <g id="text_5">
      <!-- $\mathdefault{2^{5}}$ -->
      <g transform="translate(268.528522 270.835) scale(0.08 -0.08)">
       <defs>
        <path id="DejaVuSans-35" d="M 691 4666 
L 3169 4666 
L 3169 4134 
L 1269 4134 
L 1269 2991 
Q 1406 3038 1543 3061 
Q 1681 3084 1819 3084 
Q 2600 3084 3056 2656 
Q 3513 2228 3513 1497 
Q 3513 744 3044 326 
Q 2575 -91 1722 -91 
Q 1428 -91 1123 -41 
Q 819 9 494 109 
L 494 744 
Q 775 591 1075 516 
Q 1375 441 1709 441 
Q 2250 441 2565 725 
Q 2881 1009 2881 1497 
Q 2881 1984 2565 2268 
Q 2250 2553 1709 2553 
Q 1456 2553 1204 2497 
Q 953 2441 691 2322 
L 691 4666 
z
" transform="scale(0.015625)"/>
       </defs>
       <use xlink:href="#DejaVuSans-32" transform="translate(0 0.684375)"/>
       <use xlink:href="#DejaVuSans-35" transform="translate(64.580078 38.965625) scale(0.7)"/>
      </g>
     </g>
    </g>
    <g id="text_6">
     <!-- Levofloxacin MIC (µg/mL) -->
     <g transform="translate(130.12625 282.5775) scale(0.08 -0.08)">
      <defs>
       <path id="DejaVuSans-4c" d="M 628 4666 
L 1259 4666 
L 1259 531 
L 3531 531 
L 3531 0 
L 628 0 
L 628 4666 
z
" transform="scale(0.015625)"/>
       <path id="DejaVuSans-65" d="M 3597 1894 
L 3597 1613 
L 953 1613 
Q 991 1019 1311 708 
Q 1631 397 2203 397 
Q 2534 397 2845 478 
Q 3156 559 3463 722 
L 3463 178 
Q 3153 47 2828 -22 
Q 2503 -91 2169 -91 
Q 1331 -91 842 396 
Q 353 884 353 1716 
Q 353 2575 817 3079 
Q 1281 3584 2069 3584 
Q 2775 3584 3186 3129 
Q 3597 2675 3597 1894 
z
M 3022 2063 
Q 3016 2534 2758 2815 
Q 2500 3097 2075 3097 
Q 1594 3097 1305 2825 
Q 1016 2553 972 2059 
L 3022 2063 
z
" transform="scale(0.015625)"/>
       <path id="DejaVuSans-76" d="M 191 3500 
L 800 3500 
L 1894 563 
L 2988 3500 
L 3597 3500 
L 2284 0 
L 1503 0 
L 191 3500 
z
" transform="scale(0.015625)"/>
       <path id="DejaVuSans-6f" d="M 1959 3097 
Q 1497 3097 1228 2736 
Q 959 2375 959 1747 
Q 959 1119 1226 758 
Q 1494 397 1959 397 
Q 2419 397 2687 759 
Q 2956 1122 2956 1747 
Q 2956 2369 2687 2733 
Q 2419 3097 1959 3097 
z
M 1959 3584 
Q 2709 3584 3137 3096 
Q 3566 2609 3566 1747 
Q 3566 888 3137 398 
Q 2709 -91 1959 -91 
Q 1206 -91 779 398 
Q 353 888 353 1747 
Q 353 2609 779 3096 
Q 1206 3584 1959 3584 
z
" transform="scale(0.015625)"/>
       <path id="DejaVuSans-66" d="M 2375 4863 
L 2375 4384 
L 1825 4384 
Q 1516 4384 1395 4259 
Q 1275 4134 1275 3809 
L 1275 3500 
L 2222 3500 
L 2222 3053 
L 1275 3053 
L 1275 0 
L 697 0 
L 697 3053 
L 147 3053 
L 147 3500 
L 697 3500 
L 697 3744 
Q 697 4328 969 4595 
Q 1241 4863 1831 4863 
L 2375 4863 
z
" transform="scale(0.015625)"/>
       <path id="DejaVuSans-6c" d="M 603 4863 
L 1178 4863 
L 1178 0 
L 603 0 
L 603 4863 
z
" transform="scale(0.015625)"/>
       <path id="DejaVuSans-78" d="M 3513 3500 
L 2247 1797 
L 3578 0 
L 2900 0 
L 1881 1375 
L 863 0 
L 184 0 
L 1544 1831 
L 300 3500 
L 978 3500 
L 1906 2253 
L 2834 3500 
L 3513 3500 
z
" transform="scale(0.015625)"/>
       <path id="DejaVuSans-61" d="M 2194 1759 
Q 1497 1759 1228 1600 
Q 959 1441 959 1056 
Q 959 750 1161 570 
Q 1363 391 1709 391 
Q 2188 391 2477 730 
Q 2766 1069 2766 1631 
L 2766 1759 
L 2194 1759 
z
M 3341 1997 
L 3341 0 
L 2766 0 
L 2766 531 
Q 2569 213 2275 61 
Q 1981 -91 1556 -91 
Q 1019 -91 701 211 
Q 384 513 384 1019 
Q 384 1609 779 1909 
Q 1175 2209 1959 2209 
L 2766 2209 
L 2766 2266 
Q 2766 2663 2505 2880 
Q 2244 3097 1772 3097 
Q 1472 3097 1187 3025 
Q 903 2953 641 2809 
L 641 3341 
Q 956 3463 1253 3523 
Q 1550 3584 1831 3584 
Q 2591 3584 2966 3190 
Q 3341 2797 3341 1997 
z
" transform="scale(0.015625)"/>
       <path id="DejaVuSans-63" d="M 3122 3366 
L 3122 2828 
Q 2878 2963 2633 3030 
Q 2388 3097 2138 3097 
Q 1578 3097 1268 2742 
Q 959 2388 959 1747 
Q 959 1106 1268 751 
Q 1578 397 2138 397 
Q 2388 397 2633 464 
Q 2878 531 3122 666 
L 3122 134 
Q 2881 22 2623 -34 
Q 2366 -91 2075 -91 
Q 1284 -91 818 406 
Q 353 903 353 1747 
Q 353 2603 823 3093 
Q 1294 3584 2113 3584 
Q 2378 3584 2631 3529 
Q 2884 3475 3122 3366 
z
" transform="scale(0.015625)"/>
       <path id="DejaVuSans-69" d="M 603 3500 
L 1178 3500 
L 1178 0 
L 603 0 
L 603 3500 
z
M 603 4863 
L 1178 4863 
L 1178 4134 
L 603 4134 
L 603 4863 
z
" transform="scale(0.015625)"/>
       <path id="DejaVuSans-6e" d="M 3513 2113 
L 3513 0 
L 2938 0 
L 2938 2094 
Q 2938 2591 2744 2837 
Q 2550 3084 2163 3084 
Q 1697 3084 1428 2787 
Q 1159 2491 1159 1978 
L 1159 0 
L 581 0 
L 581 3500 
L 1159 3500 
L 1159 2956 
Q 1366 3272 1645 3428 
Q 1925 3584 2291 3584 
Q 2894 3584 3203 3211 
Q 3513 2838 3513 2113 
z
" transform="scale(0.015625)"/>
       <path id="DejaVuSans-20" transform="scale(0.015625)"/>
       <path id="DejaVuSans-4d" d="M 628 4666 
L 1569 4666 
L 2759 1491 
L 3956 4666 
L 4897 4666 
L 4897 0 
L 4281 0 
L 4281 4097 
L 3078 897 
L 2444 897 
L 1241 4097 
L 1241 0 
L 628 0 
L 628 4666 
z
" transform="scale(0.015625)"/>
       <path id="DejaVuSans-49" d="M 628 4666 
L 1259 4666 
L 1259 0 
L 628 0 
L 628 4666 
z
" transform="scale(0.015625)"/>
       <path id="DejaVuSans-43" d="M 4122 4306 
L 4122 3641 
Q 3803 3938 3442 4084 
Q 3081 4231 2675 4231 
Q 1875 4231 1450 3742 
Q 1025 3253 1025 2328 
Q 1025 1406 1450 917 
Q 1875 428 2675 428 
Q 3081 428 3442 575 
Q 3803 722 4122 1019 
L 4122 359 
Q 3791 134 3420 21 
Q 3050 -91 2638 -91 
Q 1578 -91 968 557 
Q 359 1206 359 2328 
Q 359 3453 968 4101 
Q 1578 4750 2638 4750 
Q 3056 4750 3426 4639 
Q 3797 4528 4122 4306 
z
" transform="scale(0.015625)"/>
       <path id="DejaVuSans-28" d="M 1984 4856 
Q 1566 4138 1362 3434 
Q 1159 2731 1159 2009 
Q 1159 1288 1364 580 
Q 1569 -128 1984 -844 
L 1484 -844 
Q 1016 -109 783 600 
Q 550 1309 550 2009 
Q 550 2706 781 3412 
Q 1013 4119 1484 4856 
L 1984 4856 
z
" transform="scale(0.015625)"/>
       <path id="DejaVuSans-b5" d="M 544 -1331 
L 544 3500 
L 1119 3500 
L 1119 1325 
Q 1119 872 1334 640 
Q 1550 409 1972 409 
Q 2434 409 2667 671 
Q 2900 934 2900 1459 
L 2900 3500 
L 3475 3500 
L 3475 806 
Q 3475 619 3529 530 
Q 3584 441 3700 441 
Q 3728 441 3778 458 
Q 3828 475 3916 513 
L 3916 50 
Q 3788 -22 3673 -56 
Q 3559 -91 3450 -91 
Q 3234 -91 3106 31 
Q 2978 153 2931 403 
Q 2775 156 2548 32 
Q 2322 -91 2016 -91 
Q 1697 -91 1473 31 
Q 1250 153 1119 397 
L 1119 -1331 
L 544 -1331 
z
" transform="scale(0.015625)"/>
       <path id="DejaVuSans-67" d="M 2906 1791 
Q 2906 2416 2648 2759 
Q 2391 3103 1925 3103 
Q 1463 3103 1205 2759 
Q 947 2416 947 1791 
Q 947 1169 1205 825 
Q 1463 481 1925 481 
Q 2391 481 2648 825 
Q 2906 1169 2906 1791 
z
M 3481 434 
Q 3481 -459 3084 -895 
Q 2688 -1331 1869 -1331 
Q 1566 -1331 1297 -1286 
Q 1028 -1241 775 -1147 
L 775 -588 
Q 1028 -725 1275 -790 
Q 1522 -856 1778 -856 
Q 2344 -856 2625 -561 
Q 2906 -266 2906 331 
L 2906 616 
Q 2728 306 2450 153 
Q 2172 0 1784 0 
Q 1141 0 747 490 
Q 353 981 353 1791 
Q 353 2603 747 3093 
Q 1141 3584 1784 3584 
Q 2172 3584 2450 3431 
Q 2728 3278 2906 2969 
L 2906 3500 
L 3481 3500 
L 3481 434 
z
" transform="scale(0.015625)"/>
       <path id="DejaVuSans-2f" d="M 1625 4666 
L 2156 4666 
L 531 -594 
L 0 -594 
L 1625 4666 
z
" transform="scale(0.015625)"/>
       <path id="DejaVuSans-6d" d="M 3328 2828 
Q 3544 3216 3844 3400 
Q 4144 3584 4550 3584 
Q 5097 3584 5394 3201 
Q 5691 2819 5691 2113 
L 5691 0 
L 5113 0 
L 5113 2094 
Q 5113 2597 4934 2840 
Q 4756 3084 4391 3084 
Q 3944 3084 3684 2787 
Q 3425 2491 3425 1978 
L 3425 0 
L 2847 0 
L 2847 2094 
Q 2847 2600 2669 2842 
Q 2491 3084 2119 3084 
Q 1678 3084 1418 2786 
Q 1159 2488 1159 1978 
L 1159 0 
L 581 0 
L 581 3500 
L 1159 3500 
L 1159 2956 
Q 1356 3278 1631 3431 
Q 1906 3584 2284 3584 
Q 2666 3584 2933 3390 
Q 3200 3197 3328 2828 
z
" transform="scale(0.015625)"/>
       <path id="DejaVuSans-29" d="M 513 4856 
L 1013 4856 
Q 1481 4119 1714 3412 
Q 1947 2706 1947 2009 
Q 1947 1309 1714 600 
Q 1481 -109 1013 -844 
L 513 -844 
Q 928 -128 1133 580 
Q 1338 1288 1338 2009 
Q 1338 2731 1133 3434 
Q 928 4138 513 4856 
z
" transform="scale(0.015625)"/>
      </defs>
      <use xlink:href="#DejaVuSans-4c"/>
      <use xlink:href="#DejaVuSans-65" x="53.962891"/>
      <use xlink:href="#DejaVuSans-76" x="115.486328"/>
      <use xlink:href="#DejaVuSans-6f" x="174.666016"/>
      <use xlink:href="#DejaVuSans-66" x="235.847656"/>
      <use xlink:href="#DejaVuSans-6c" x="271.052734"/>
      <use xlink:href="#DejaVuSans-6f" x="298.835938"/>
      <use xlink:href="#DejaVuSans-78" x="356.892578"/>
      <use xlink:href="#DejaVuSans-61" x="416.072266"/>
      <use xlink:href="#DejaVuSans-63" x="477.351562"/>
      <use xlink:href="#DejaVuSans-69" x="532.332031"/>
      <use xlink:href="#DejaVuSans-6e" x="560.115234"/>
      <use xlink:href="#DejaVuSans-20" x="623.494141"/>
      <use xlink:href="#DejaVuSans-4d" x="655.28125"/>
      <use xlink:href="#DejaVuSans-49" x="741.560547"/>
      <use xlink:href="#DejaVuSans-43" x="771.052734"/>
      <use xlink:href="#DejaVuSans-20" x="840.876953"/>
      <use xlink:href="#DejaVuSans-28" x="872.664062"/>
      <use xlink:href="#DejaVuSans-b5" x="911.677734"/>
      <use xlink:href="#DejaVuSans-67" x="975.300781"/>
      <use xlink:href="#DejaVuSans-2f" x="1038.777344"/>
      <use xlink:href="#DejaVuSans-6d" x="1072.46875"/>
      <use xlink:href="#DejaVuSans-4c" x="1169.880859"/>
      <use xlink:href="#DejaVuSans-29" x="1225.59375"/>
     </g>
    </g>
   </g>
   <g id="matplotlib.axis_2">
    <g id="ytick_1">
     <g id="line2d_9">
      <defs>
       <path id="md959528f18" d="M 0 0 
L -3.5 0 
" style="stroke: #000000; stroke-width: 0.8"/>
      </defs>
      <g>
       <use xlink:href="#md959528f18" x="41.2125" y="202.31625" style="stroke: #000000; stroke-width: 0.8"/>
      </g>
     </g>
     <g id="text_7">
      <!-- 25 -->
      <g transform="translate(24.0325 205.355625) scale(0.08 -0.08)">
       <use xlink:href="#DejaVuSans-32"/>
       <use xlink:href="#DejaVuSans-35" x="63.623047"/>
      </g>
     </g>
    </g>
    <g id="ytick_2">
     <g id="line2d_10">
      <g>
       <use xlink:href="#md959528f18" x="41.2125" y="146.87625" style="stroke: #000000; stroke-width: 0.8"/>
      </g>
     </g>
     <g id="text_8">
      <!-- 50 -->
      <g transform="translate(24.0325 149.915625) scale(0.08 -0.08)">
       <defs>
        <path id="DejaVuSans-30" d="M 2034 4250 
Q 1547 4250 1301 3770 
Q 1056 3291 1056 2328 
Q 1056 1369 1301 889 
Q 1547 409 2034 409 
Q 2525 409 2770 889 
Q 3016 1369 3016 2328 
Q 3016 3291 2770 3770 
Q 2525 4250 2034 4250 
z
M 2034 4750 
Q 2819 4750 3233 4129 
Q 3647 3509 3647 2328 
Q 3647 1150 3233 529 
Q 2819 -91 2034 -91 
Q 1250 -91 836 529 
Q 422 1150 422 2328 
Q 422 3509 836 4129 
Q 1250 4750 2034 4750 
z
" transform="scale(0.015625)"/>
       </defs>
       <use xlink:href="#DejaVuSans-35"/>
       <use xlink:href="#DejaVuSans-30" x="63.623047"/>
      </g>
     </g>
    </g>
    <g id="ytick_3">
     <g id="line2d_11">
      <g>
       <use xlink:href="#md959528f18" x="41.2125" y="91.43625" style="stroke: #000000; stroke-width: 0.8"/>
      </g>
     </g>
     <g id="text_9">
      <!-- 75 -->
      <g transform="translate(24.0325 94.475625) scale(0.08 -0.08)">
       <defs>
        <path id="DejaVuSans-37" d="M 525 4666 
L 3525 4666 
L 3525 4397 
L 1831 0 
L 1172 0 
L 2766 4134 
L 525 4134 
L 525 4666 
z
" transform="scale(0.015625)"/>
       </defs>
       <use xlink:href="#DejaVuSans-37"/>
       <use xlink:href="#DejaVuSans-35" x="63.623047"/>
      </g>
     </g>
    </g>
    <g id="ytick_4">
     <g id="line2d_12">
      <g>
       <use xlink:href="#md959528f18" x="41.2125" y="35.99625" style="stroke: #000000; stroke-width: 0.8"/>
      </g>
     </g>
     <g id="text_10">
      <!-- 100 -->
      <g transform="translate(18.9425 39.035625) scale(0.08 -0.08)">
       <use xlink:href="#DejaVuSans-31"/>
       <use xlink:href="#DejaVuSans-30" x="63.623047"/>
       <use xlink:href="#DejaVuSans-30" x="127.246094"/>
      </g>
     </g>
    </g>
    <g id="text_11">
     <!-- Percentile -->
     <g transform="translate(13.27875 166.60625) rotate(-90) scale(0.08 -0.08)">
      <defs>
       <path id="DejaVuSans-50" d="M 1259 4147 
L 1259 2394 
L 2053 2394 
Q 2494 2394 2734 2622 
Q 2975 2850 2975 3272 
Q 2975 3691 2734 3919 
Q 2494 4147 2053 4147 
L 1259 4147 
z
M 628 4666 
L 2053 4666 
Q 2838 4666 3239 4311 
Q 3641 3956 3641 3272 
Q 3641 2581 3239 2228 
Q 2838 1875 2053 1875 
L 1259 1875 
L 1259 0 
L 628 0 
L 628 4666 
z
" transform="scale(0.015625)"/>
       <path id="DejaVuSans-72" d="M 2631 2963 
Q 2534 3019 2420 3045 
Q 2306 3072 2169 3072 
Q 1681 3072 1420 2755 
Q 1159 2438 1159 1844 
L 1159 0 
L 581 0 
L 581 3500 
L 1159 3500 
L 1159 2956 
Q 1341 3275 1631 3429 
Q 1922 3584 2338 3584 
Q 2397 3584 2469 3576 
Q 2541 3569 2628 3553 
L 2631 2963 
z
" transform="scale(0.015625)"/>
       <path id="DejaVuSans-74" d="M 1172 4494 
L 1172 3500 
L 2356 3500 
L 2356 3053 
L 1172 3053 
L 1172 1153 
Q 1172 725 1289 603 
Q 1406 481 1766 481 
L 2356 481 
L 2356 0 
L 1766 0 
Q 1100 0 847 248 
Q 594 497 594 1153 
L 594 3053 
L 172 3053 
L 172 3500 
L 594 3500 
L 594 4494 
L 1172 4494 
z
" transform="scale(0.015625)"/>
      </defs>
      <use xlink:href="#DejaVuSans-50"/>
      <use xlink:href="#DejaVuSans-65" x="56.677734"/>
      <use xlink:href="#DejaVuSans-72" x="118.201172"/>
      <use xlink:href="#DejaVuSans-63" x="157.064453"/>
      <use xlink:href="#DejaVuSans-65" x="212.044922"/>
      <use xlink:href="#DejaVuSans-6e" x="273.568359"/>
      <use xlink:href="#DejaVuSans-74" x="336.947266"/>
      <use xlink:href="#DejaVuSans-69" x="376.15625"/>
      <use xlink:href="#DejaVuSans-6c" x="403.939453"/>
      <use xlink:href="#DejaVuSans-65" x="431.722656"/>
     </g>
    </g>
   </g>
   <g id="patch_3">
    <path d="M 41.2125 257.75625 
L 41.2125 35.99625 
" style="fill: none; stroke: #000000; stroke-width: 0.8; stroke-linejoin: miter; stroke-linecap: square"/>
   </g>
   <g id="patch_4">
    <path d="M 41.2125 257.75625 
L 320.2125 257.75625 
" style="fill: none; stroke: #000000; stroke-width: 0.8; stroke-linejoin: miter; stroke-linecap: square"/>
   </g>
   <g id="line2d_13">
    <path d="M 125.134018 257.75625 
L 125.134018 246.084671 
L 128.567189 246.084671 
L 128.567189 234.413092 
L 128.830222 234.413092 
L 128.830222 222.741513 
L 131.312675 222.741513 
L 131.312675 211.069934 
L 131.642719 211.069934 
L 131.642719 199.398355 
L 131.889527 199.398355 
L 131.889527 187.726776 
L 132.190932 187.726776 
L 132.190932 176.055197 
L 132.190932 176.055197 
L 132.190932 164.383618 
L 132.190932 164.383618 
L 132.190932 152.712039 
L 132.367079 152.712039 
L 132.367079 141.040461 
L 132.569237 141.040461 
L 132.569237 129.368882 
L 132.619168 129.368882 
L 132.619168 117.697303 
L 132.81767 117.697303 
L 132.81767 106.025724 
L 133.596737 106.025724 
L 133.596737 94.354145 
L 135.269252 94.354145 
L 135.269252 82.682566 
L 136.176489 82.682566 
L 136.176489 71.010987 
L 136.706703 71.010987 
L 136.706703 59.339408 
L 140.506733 59.339408 
L 140.506733 47.667829 
L 142.74846 47.667829 
L 142.74846 35.99625 
" clip-path="url(#p7960e96bb8)" style="fill: none; stroke: #cc78bc; stroke-width: 1.5; stroke-linecap: square"/>
   </g>
   <g id="line2d_14">
    <path d="M 116.356307 257.75625 
L 116.356307 257.38665 
L 121.116581 257.38665 
L 121.116581 257.01705 
L 122.696064 257.01705 
L 122.696064 256.64745 
L 125.435149 256.64745 
L 125.435149 256.27785 
L 125.754258 256.27785 
L 125.754258 255.53865 
L 125.935508 255.53865 
L 125.98353 254.06025 
L 126.471678 254.06025 
L 126.471678 253.69065 
L 126.953024 253.69065 
L 126.953024 253.32105 
L 127.215154 253.32105 
L 127.215154 252.95145 
L 127.32637 252.95145 
L 127.32637 252.58185 
L 127.573198 252.58185 
L 127.617346 251.47305 
L 127.757438 251.47305 
L 127.757438 250.73385 
L 127.94374 250.73385 
L 127.94374 250.36425 
L 128.079839 250.36425 
L 128.168269 249.25545 
L 128.450638 249.25545 
L 128.450638 248.88585 
L 128.686577 248.88585 
L 128.754543 248.14665 
L 129.347752 248.14665 
L 129.450327 247.40745 
L 129.49083 247.40745 
L 129.536253 246.66825 
L 129.67208 246.66825 
L 129.67208 246.29865 
L 129.830798 246.29865 
L 129.834078 245.55945 
L 129.994313 245.55945 
L 129.994313 245.18985 
L 130.196538 245.18985 
L 130.196538 244.82025 
L 130.313175 244.82025 
L 130.414729 243.34185 
L 130.654784 243.34185 
L 130.673634 241.12425 
L 130.802125 241.12425 
L 130.873617 240.38505 
L 130.937386 240.38505 
L 131.011629 239.64585 
L 131.069942 239.64585 
L 131.069942 239.27625 
L 131.434361 239.27625 
L 131.540418 238.53705 
L 131.839869 238.53705 
L 131.839869 238.16745 
L 131.96807 238.16745 
L 131.96807 237.79785 
L 132.151419 237.79785 
L 132.190932 56.32425 
L 132.53991 56.32425 
L 132.609188 55.21545 
L 132.718604 55.21545 
L 132.826207 54.10665 
L 132.847359 54.10665 
L 132.947502 51.14985 
L 132.984816 51.14985 
L 133.066227 50.04105 
L 133.175917 50.04105 
L 133.175917 49.67145 
L 133.414146 49.67145 
L 133.414146 49.30185 
L 133.641455 49.30185 
L 133.641455 48.93225 
L 133.818575 48.93225 
L 133.818575 48.56265 
L 133.953177 48.56265 
L 133.975523 47.45385 
L 134.137914 47.45385 
L 134.246779 45.23625 
L 134.340205 45.23625 
L 134.396824 44.12745 
L 134.539167 44.12745 
L 134.60718 43.38825 
L 134.661081 43.38825 
L 134.675964 42.64905 
L 134.826982 42.64905 
L 134.882054 41.54025 
L 135.224363 41.54025 
L 135.224363 41.17065 
L 135.397357 41.17065 
L 135.397357 40.80105 
L 135.627321 40.80105 
L 135.627321 40.43145 
L 136.407238 40.43145 
L 136.407238 40.06185 
L 136.622369 40.06185 
L 136.622369 39.32265 
L 136.804285 39.32265 
L 136.804285 38.95305 
L 137.841144 38.95305 
L 137.889699 38.21385 
L 138.174229 38.21385 
L 138.274591 37.47465 
L 139.146045 37.47465 
L 139.146045 37.10505 
L 153.397675 37.10505 
L 153.397675 36.73545 
L 193.805616 36.73545 
L 193.805616 36.36585 
L 196.23763 36.36585 
L 196.23763 35.99625 
L 196.23763 35.99625 
" clip-path="url(#p7960e96bb8)" style="fill: none; stroke: #d55e00; stroke-width: 1.5; stroke-linecap: square"/>
   </g>
   <g id="line2d_15">
    <path d="M 34.400348 257.75625 
L 34.400348 257.467124 
L 58.046541 257.467124 
L 58.046541 257.177997 
L 84.160821 257.177997 
L 84.160821 256.888871 
L 84.703646 256.888871 
L 84.703646 256.599744 
L 99.835011 256.599744 
L 99.835011 256.310618 
L 101.527013 256.310618 
L 101.527013 256.021491 
L 106.119843 256.021491 
L 106.119843 255.732365 
L 108.301244 255.732365 
L 108.301244 255.443238 
L 109.770392 255.443238 
L 109.770392 255.154112 
L 110.198283 255.154112 
L 110.198283 254.864985 
L 111.855283 254.864985 
L 111.855283 254.575859 
L 113.640534 254.575859 
L 113.640534 254.286732 
L 114.124418 254.286732 
L 114.232445 253.708479 
L 114.493364 253.708479 
L 114.493364 253.419353 
L 114.702924 253.419353 
L 114.702924 253.130227 
L 115.057422 253.130227 
L 115.057422 252.8411 
L 115.684952 252.8411 
L 115.684952 252.551974 
L 116.064367 252.551974 
L 116.064367 252.262847 
L 116.438976 252.262847 
L 116.520346 251.395468 
L 117.072342 251.395468 
L 117.072342 251.106341 
L 117.590718 251.106341 
L 117.590718 250.817215 
L 117.729021 250.817215 
L 117.729021 250.528088 
L 118.202236 250.528088 
L 118.266785 249.949835 
L 119.196098 249.949835 
L 119.196098 249.660709 
L 119.877012 249.660709 
L 119.877012 249.371582 
L 120.056471 249.371582 
L 120.056471 249.082456 
L 121.811392 249.082456 
L 121.811392 248.79333 
L 122.06164 248.79333 
L 122.06164 248.504203 
L 122.199282 248.504203 
L 122.199282 248.215077 
L 122.846646 248.215077 
L 122.846646 247.92595 
L 123.095754 247.92595 
L 123.095754 247.636824 
L 123.365817 247.636824 
L 123.367786 247.058571 
L 123.686477 247.058571 
L 123.686477 246.769444 
L 123.856616 246.769444 
L 123.856616 246.480318 
L 124.418032 246.480318 
L 124.439633 245.902065 
L 124.598738 245.902065 
L 124.598738 245.612938 
L 124.905737 245.612938 
L 125.000751 244.745559 
L 125.064888 244.745559 
L 125.064888 244.456433 
L 125.277615 244.456433 
L 125.28857 243.87818 
L 125.427999 243.87818 
L 125.43979 243.299927 
L 125.771806 243.299927 
L 125.80956 242.721674 
L 126.178494 242.721674 
L 126.274497 241.854294 
L 126.308313 241.854294 
L 126.309313 241.276041 
L 126.432073 241.276041 
L 126.494871 240.697788 
L 126.574539 240.697788 
L 126.637491 239.830409 
L 126.732658 239.830409 
L 126.785043 238.673903 
L 127.0091 238.673903 
L 127.109174 238.09565 
L 127.190766 238.09565 
L 127.291163 237.517397 
L 127.598503 237.517397 
L 127.637375 236.939144 
L 128.002556 236.939144 
L 128.016402 236.360891 
L 128.379894 236.360891 
L 128.379894 236.071765 
L 128.544092 236.071765 
L 128.638938 235.204386 
L 128.702665 235.204386 
L 128.813239 234.337006 
L 129.02072 234.337006 
L 129.026163 233.758753 
L 129.150672 233.758753 
L 129.230058 232.891374 
L 129.314374 232.891374 
L 129.365698 231.734868 
L 129.446669 231.734868 
L 129.555457 230.867489 
L 129.605403 230.867489 
L 129.667198 230.289236 
L 130.00463 230.289236 
L 130.081043 229.13273 
L 130.134793 229.13273 
L 130.208557 227.687097 
L 130.29654 227.687097 
L 130.332904 227.108845 
L 130.455961 227.108845 
L 130.541955 226.241465 
L 130.572457 226.241465 
L 130.673634 224.795833 
L 130.702835 224.795833 
L 130.736249 224.21758 
L 130.830928 224.21758 
L 130.830928 223.928453 
L 131.003684 223.928453 
L 131.103699 222.482821 
L 131.166362 222.482821 
L 131.233707 221.904568 
L 131.280847 221.904568 
L 131.377204 219.591556 
L 131.396311 219.591556 
L 131.484571 218.435051 
L 131.534505 218.435051 
L 131.610803 216.989418 
L 131.65491 216.989418 
L 131.765052 215.543786 
L 131.823541 215.543786 
L 131.925987 213.519901 
L 131.940814 213.519901 
L 132.025219 210.917762 
L 132.060447 210.917762 
L 132.165584 207.448245 
L 132.17385 207.448245 
L 132.282469 97.869314 
L 132.287034 97.869314 
L 132.379039 95.267176 
L 132.412706 95.267176 
L 132.513738 93.24329 
L 132.54614 93.24329 
L 132.654619 90.930279 
L 132.665697 90.930279 
L 132.767833 89.773773 
L 132.788096 89.773773 
L 132.891581 88.32814 
L 132.912401 88.32814 
L 133.012149 86.015129 
L 133.031343 86.015129 
L 133.031343 85.726002 
L 133.145657 85.726002 
L 133.240079 83.412991 
L 133.270698 83.412991 
L 133.38044 82.545611 
L 133.394273 82.545611 
L 133.487244 81.099979 
L 133.552163 81.099979 
L 133.633152 80.232599 
L 133.689129 80.232599 
L 133.788448 79.076094 
L 133.809382 79.076094 
L 133.878243 78.497841 
L 133.974152 78.497841 
L 134.071687 77.630461 
L 134.133617 77.630461 
L 134.161592 76.473955 
L 134.330303 76.473955 
L 134.330502 75.895702 
L 134.449405 75.895702 
L 134.493396 75.028323 
L 134.604025 75.028323 
L 134.65756 74.45007 
L 134.770427 74.45007 
L 134.848743 73.004438 
L 134.947147 73.004438 
L 134.956276 72.426185 
L 135.125127 72.426185 
L 135.165797 71.558805 
L 135.268977 71.558805 
L 135.270487 70.980552 
L 135.403144 70.980552 
L 135.486082 70.113173 
L 135.547308 70.113173 
L 135.578856 69.53492 
L 135.662589 69.53492 
L 135.72183 68.378414 
L 135.802501 68.378414 
L 135.822064 67.800161 
L 135.916842 67.800161 
L 135.930625 67.221908 
L 136.038607 67.221908 
L 136.137872 66.354529 
L 136.213368 66.354529 
L 136.272365 65.48715 
L 136.332275 65.48715 
L 136.359839 64.908897 
L 136.493195 64.908897 
L 136.596185 64.330644 
L 136.609674 64.330644 
L 136.609674 64.041517 
L 136.955533 64.041517 
L 136.955533 63.752391 
L 137.301891 63.752391 
L 137.376031 63.174138 
L 137.437281 63.174138 
L 137.437281 62.885011 
L 137.552535 62.885011 
L 137.611815 62.306758 
L 137.670827 62.306758 
L 137.719863 61.439379 
L 137.803815 61.439379 
L 137.803815 61.150253 
L 137.925674 61.150253 
L 138.035232 60.282873 
L 138.08903 60.282873 
L 138.175026 59.415494 
L 138.274591 59.415494 
L 138.274591 59.126367 
L 138.398333 59.126367 
L 138.398333 58.837241 
L 138.702645 58.837241 
L 138.702645 58.548114 
L 139.277133 58.548114 
L 139.315658 57.969861 
L 139.845087 57.969861 
L 139.944684 56.813356 
L 139.980593 56.813356 
L 139.996419 56.235103 
L 141.199444 56.235103 
L 141.199444 55.945976 
L 141.567004 55.945976 
L 141.567004 55.65685 
L 141.696955 55.65685 
L 141.696955 55.367723 
L 142.031999 55.367723 
L 142.031999 55.078597 
L 142.204254 55.078597 
L 142.204254 54.78947 
L 142.964608 54.78947 
L 142.964608 54.500344 
L 144.075918 54.500344 
L 144.108271 53.922091 
L 144.35444 53.922091 
L 144.35444 53.632964 
L 144.687954 53.632964 
L 144.726666 53.054712 
L 145.135057 53.054712 
L 145.135057 52.765585 
L 145.871057 52.765585 
L 145.871057 52.476459 
L 146.026727 52.476459 
L 146.026727 52.187332 
L 146.607591 52.187332 
L 146.629348 51.609079 
L 146.765646 51.609079 
L 146.765646 51.319953 
L 147.026136 51.319953 
L 147.026136 51.030826 
L 147.243912 51.030826 
L 147.243912 50.7417 
L 147.903368 50.7417 
L 147.903368 50.452573 
L 148.124822 50.452573 
L 148.124822 50.163447 
L 148.262287 50.163447 
L 148.262287 49.87432 
L 148.480409 49.87432 
L 148.480409 49.585194 
L 148.683227 49.585194 
L 148.683227 49.296067 
L 149.137862 49.296067 
L 149.137862 49.006941 
L 149.422979 49.006941 
L 149.470654 48.139562 
L 150.108283 48.139562 
L 150.108283 47.850435 
L 151.797098 47.850435 
L 151.872672 47.272182 
L 154.022371 47.272182 
L 154.022371 46.983056 
L 155.397009 46.983056 
L 155.397009 46.693929 
L 155.654134 46.693929 
L 155.703444 46.115676 
L 156.131952 46.115676 
L 156.131952 45.82655 
L 156.981265 45.82655 
L 156.981265 45.537423 
L 157.401447 45.537423 
L 157.401447 45.248297 
L 158.37079 45.248297 
L 158.37079 44.95917 
L 159.033034 44.95917 
L 159.044191 44.380918 
L 159.301428 44.380918 
L 159.301428 44.091791 
L 159.626582 44.091791 
L 159.626582 43.802665 
L 164.855285 43.802665 
L 164.855285 43.513538 
L 167.693005 43.513538 
L 167.693005 43.224412 
L 168.286796 43.224412 
L 168.286796 42.935285 
L 168.531394 42.935285 
L 168.531394 42.646159 
L 169.214634 42.646159 
L 169.214634 42.357032 
L 170.179706 42.357032 
L 170.179706 42.067906 
L 171.144655 42.067906 
L 171.144655 41.778779 
L 172.290004 41.778779 
L 172.290004 41.489653 
L 175.472622 41.489653 
L 175.472622 41.200526 
L 179.83639 41.200526 
L 179.83639 40.9114 
L 182.031409 40.9114 
L 182.031409 40.622273 
L 182.782418 40.622273 
L 182.782418 40.333147 
L 183.220168 40.333147 
L 183.220168 40.044021 
L 183.534281 40.044021 
L 183.534281 39.754894 
L 184.280304 39.754894 
L 184.376985 39.176641 
L 184.463915 39.176641 
L 184.463915 38.887515 
L 185.604849 38.887515 
L 185.604849 38.598388 
L 189.685772 38.598388 
L 189.685772 38.309262 
L 192.809095 38.309262 
L 192.809095 38.020135 
L 194.280159 38.020135 
L 194.280159 37.731009 
L 197.009389 37.731009 
L 197.009389 37.441882 
L 252.877881 37.441882 
L 252.877881 37.152756 
L 255.661482 37.152756 
L 255.661482 36.863629 
L 284.97448 36.863629 
L 284.97448 36.574503 
L 307.422292 36.574503 
L 307.422292 36.285376 
L 313.400348 36.285376 
L 313.400348 35.99625 
L 313.400348 35.99625 
" clip-path="url(#p7960e96bb8)" style="fill: none; stroke: #029e73; stroke-width: 1.5; stroke-linecap: square"/>
   </g>
   <g id="line2d_16">
    <path d="M 137.165814 257.75625 
L 137.165814 220.79625 
L 137.855114 220.79625 
L 137.855114 183.83625 
L 159.239881 183.83625 
L 159.239881 146.87625 
L 171.240445 146.87625 
L 171.240445 109.91625 
L 174.274836 109.91625 
L 174.274836 72.95625 
L 200.113366 72.95625 
L 200.113366 35.99625 
" clip-path="url(#p7960e96bb8)" style="fill: none; stroke: #de8f05; stroke-width: 1.5; stroke-linecap: square"/>
   </g>
   <g id="line2d_17">
    <path d="M 118.021552 257.75625 
L 118.021552 239.27625 
L 147.42915 239.27625 
L 147.42915 220.79625 
L 157.660927 220.79625 
L 157.660927 202.31625 
L 165.691657 202.31625 
L 165.691657 183.83625 
L 197.777242 183.83625 
L 197.777242 165.35625 
L 205.712665 165.35625 
L 205.712665 146.87625 
L 218.895985 146.87625 
L 218.895985 128.39625 
L 252.621781 128.39625 
L 252.621781 109.91625 
L 253.252467 109.91625 
L 253.252467 91.43625 
L 270.998787 91.43625 
L 270.998787 72.95625 
L 286.350239 72.95625 
L 286.350239 54.47625 
L 286.495403 54.47625 
L 286.495403 35.99625 
" clip-path="url(#p7960e96bb8)" style="fill: none; stroke: #0173b2; stroke-width: 1.5; stroke-linecap: square"/>
   </g>
   <g id="text_12">
    <!-- Predicted MICs of 1404 WHO Catalog Mutations -->
    <g transform="translate(61.746875 14.798437) scale(0.1 -0.1)">
     <defs>
      <path id="DejaVuSans-64" d="M 2906 2969 
L 2906 4863 
L 3481 4863 
L 3481 0 
L 2906 0 
L 2906 525 
Q 2725 213 2448 61 
Q 2172 -91 1784 -91 
Q 1150 -91 751 415 
Q 353 922 353 1747 
Q 353 2572 751 3078 
Q 1150 3584 1784 3584 
Q 2172 3584 2448 3432 
Q 2725 3281 2906 2969 
z
M 947 1747 
Q 947 1113 1208 752 
Q 1469 391 1925 391 
Q 2381 391 2643 752 
Q 2906 1113 2906 1747 
Q 2906 2381 2643 2742 
Q 2381 3103 1925 3103 
Q 1469 3103 1208 2742 
Q 947 2381 947 1747 
z
" transform="scale(0.015625)"/>
      <path id="DejaVuSans-73" d="M 2834 3397 
L 2834 2853 
Q 2591 2978 2328 3040 
Q 2066 3103 1784 3103 
Q 1356 3103 1142 2972 
Q 928 2841 928 2578 
Q 928 2378 1081 2264 
Q 1234 2150 1697 2047 
L 1894 2003 
Q 2506 1872 2764 1633 
Q 3022 1394 3022 966 
Q 3022 478 2636 193 
Q 2250 -91 1575 -91 
Q 1294 -91 989 -36 
Q 684 19 347 128 
L 347 722 
Q 666 556 975 473 
Q 1284 391 1588 391 
Q 1994 391 2212 530 
Q 2431 669 2431 922 
Q 2431 1156 2273 1281 
Q 2116 1406 1581 1522 
L 1381 1569 
Q 847 1681 609 1914 
Q 372 2147 372 2553 
Q 372 3047 722 3315 
Q 1072 3584 1716 3584 
Q 2034 3584 2315 3537 
Q 2597 3491 2834 3397 
z
" transform="scale(0.015625)"/>
      <path id="DejaVuSans-57" d="M 213 4666 
L 850 4666 
L 1831 722 
L 2809 4666 
L 3519 4666 
L 4500 722 
L 5478 4666 
L 6119 4666 
L 4947 0 
L 4153 0 
L 3169 4050 
L 2175 0 
L 1381 0 
L 213 4666 
z
" transform="scale(0.015625)"/>
      <path id="DejaVuSans-48" d="M 628 4666 
L 1259 4666 
L 1259 2753 
L 3553 2753 
L 3553 4666 
L 4184 4666 
L 4184 0 
L 3553 0 
L 3553 2222 
L 1259 2222 
L 1259 0 
L 628 0 
L 628 4666 
z
" transform="scale(0.015625)"/>
      <path id="DejaVuSans-4f" d="M 2522 4238 
Q 1834 4238 1429 3725 
Q 1025 3213 1025 2328 
Q 1025 1447 1429 934 
Q 1834 422 2522 422 
Q 3209 422 3611 934 
Q 4013 1447 4013 2328 
Q 4013 3213 3611 3725 
Q 3209 4238 2522 4238 
z
M 2522 4750 
Q 3503 4750 4090 4092 
Q 4678 3434 4678 2328 
Q 4678 1225 4090 567 
Q 3503 -91 2522 -91 
Q 1538 -91 948 565 
Q 359 1222 359 2328 
Q 359 3434 948 4092 
Q 1538 4750 2522 4750 
z
" transform="scale(0.015625)"/>
      <path id="DejaVuSans-75" d="M 544 1381 
L 544 3500 
L 1119 3500 
L 1119 1403 
Q 1119 906 1312 657 
Q 1506 409 1894 409 
Q 2359 409 2629 706 
Q 2900 1003 2900 1516 
L 2900 3500 
L 3475 3500 
L 3475 0 
L 2900 0 
L 2900 538 
Q 2691 219 2414 64 
Q 2138 -91 1772 -91 
Q 1169 -91 856 284 
Q 544 659 544 1381 
z
M 1991 3584 
L 1991 3584 
z
" transform="scale(0.015625)"/>
     </defs>
     <use xlink:href="#DejaVuSans-50"/>
     <use xlink:href="#DejaVuSans-72" x="58.552734"/>
     <use xlink:href="#DejaVuSans-65" x="97.416016"/>
     <use xlink:href="#DejaVuSans-64" x="158.939453"/>
     <use xlink:href="#DejaVuSans-69" x="222.416016"/>
     <use xlink:href="#DejaVuSans-63" x="250.199219"/>
     <use xlink:href="#DejaVuSans-74" x="305.179688"/>
     <use xlink:href="#DejaVuSans-65" x="344.388672"/>
     <use xlink:href="#DejaVuSans-64" x="405.912109"/>
     <use xlink:href="#DejaVuSans-20" x="469.388672"/>
     <use xlink:href="#DejaVuSans-4d" x="501.175781"/>
     <use xlink:href="#DejaVuSans-49" x="587.455078"/>
     <use xlink:href="#DejaVuSans-43" x="616.947266"/>
     <use xlink:href="#DejaVuSans-73" x="686.771484"/>
     <use xlink:href="#DejaVuSans-20" x="738.871094"/>
     <use xlink:href="#DejaVuSans-6f" x="770.658203"/>
     <use xlink:href="#DejaVuSans-66" x="831.839844"/>
     <use xlink:href="#DejaVuSans-20" x="867.044922"/>
     <use xlink:href="#DejaVuSans-31" x="898.832031"/>
     <use xlink:href="#DejaVuSans-34" x="962.455078"/>
     <use xlink:href="#DejaVuSans-30" x="1026.078125"/>
     <use xlink:href="#DejaVuSans-34" x="1089.701172"/>
     <use xlink:href="#DejaVuSans-20" x="1153.324219"/>
     <use xlink:href="#DejaVuSans-57" x="1185.111328"/>
     <use xlink:href="#DejaVuSans-48" x="1283.988281"/>
     <use xlink:href="#DejaVuSans-4f" x="1359.183594"/>
     <use xlink:href="#DejaVuSans-20" x="1437.894531"/>
     <use xlink:href="#DejaVuSans-43" x="1469.681641"/>
     <use xlink:href="#DejaVuSans-61" x="1539.505859"/>
     <use xlink:href="#DejaVuSans-74" x="1600.785156"/>
     <use xlink:href="#DejaVuSans-61" x="1639.994141"/>
     <use xlink:href="#DejaVuSans-6c" x="1701.273438"/>
     <use xlink:href="#DejaVuSans-6f" x="1729.056641"/>
     <use xlink:href="#DejaVuSans-67" x="1790.238281"/>
     <use xlink:href="#DejaVuSans-20" x="1853.714844"/>
     <use xlink:href="#DejaVuSans-4d" x="1885.501953"/>
     <use xlink:href="#DejaVuSans-75" x="1971.78125"/>
     <use xlink:href="#DejaVuSans-74" x="2035.160156"/>
     <use xlink:href="#DejaVuSans-61" x="2074.369141"/>
     <use xlink:href="#DejaVuSans-74" x="2135.648438"/>
     <use xlink:href="#DejaVuSans-69" x="2174.857422"/>
     <use xlink:href="#DejaVuSans-6f" x="2202.640625"/>
     <use xlink:href="#DejaVuSans-6e" x="2263.822266"/>
     <use xlink:href="#DejaVuSans-73" x="2327.201172"/>
    </g>
    <!--  -->
    <g transform="translate(180.7125 25.99625) scale(0.1 -0.1)"/>
   </g>
   <g id="legend_1">
    <g id="patch_5">
     <path d="M 327.642969 181.673687 
L 440.8625 181.673687 
Q 442.2625 181.673687 442.2625 180.273687 
L 442.2625 129.60025 
Q 442.2625 128.20025 440.8625 128.20025 
L 327.642969 128.20025 
Q 326.242969 128.20025 326.242969 129.60025 
L 326.242969 180.273687 
Q 326.242969 181.673687 327.642969 181.673687 
z
" style="fill: #ffffff; opacity: 0.8; stroke: #cccccc; stroke-linejoin: miter"/>
    </g>
    <g id="line2d_18">
     <path d="M 329.042969 133.869156 
L 336.042969 133.869156 
L 336.042969 133.869156 
L 343.042969 133.869156 
L 343.042969 133.869156 
" style="fill: none; stroke: #0173b2; stroke-width: 1.5; stroke-linecap: square"/>
    </g>
    <g id="text_13">
     <!-- 1) Assoc w R -->
     <g transform="translate(348.642969 136.319156) scale(0.07 -0.07)">
      <defs>
       <path id="DejaVuSans-41" d="M 2188 4044 
L 1331 1722 
L 3047 1722 
L 2188 4044 
z
M 1831 4666 
L 2547 4666 
L 4325 0 
L 3669 0 
L 3244 1197 
L 1141 1197 
L 716 0 
L 50 0 
L 1831 4666 
z
" transform="scale(0.015625)"/>
       <path id="DejaVuSans-77" d="M 269 3500 
L 844 3500 
L 1563 769 
L 2278 3500 
L 2956 3500 
L 3675 769 
L 4391 3500 
L 4966 3500 
L 4050 0 
L 3372 0 
L 2619 2869 
L 1863 0 
L 1184 0 
L 269 3500 
z
" transform="scale(0.015625)"/>
       <path id="DejaVuSans-52" d="M 2841 2188 
Q 3044 2119 3236 1894 
Q 3428 1669 3622 1275 
L 4263 0 
L 3584 0 
L 2988 1197 
Q 2756 1666 2539 1819 
Q 2322 1972 1947 1972 
L 1259 1972 
L 1259 0 
L 628 0 
L 628 4666 
L 2053 4666 
Q 2853 4666 3247 4331 
Q 3641 3997 3641 3322 
Q 3641 2881 3436 2590 
Q 3231 2300 2841 2188 
z
M 1259 4147 
L 1259 2491 
L 2053 2491 
Q 2509 2491 2742 2702 
Q 2975 2913 2975 3322 
Q 2975 3731 2742 3939 
Q 2509 4147 2053 4147 
L 1259 4147 
z
" transform="scale(0.015625)"/>
      </defs>
      <use xlink:href="#DejaVuSans-31"/>
      <use xlink:href="#DejaVuSans-29" x="63.623047"/>
      <use xlink:href="#DejaVuSans-20" x="102.636719"/>
      <use xlink:href="#DejaVuSans-41" x="134.423828"/>
      <use xlink:href="#DejaVuSans-73" x="202.832031"/>
      <use xlink:href="#DejaVuSans-73" x="254.931641"/>
      <use xlink:href="#DejaVuSans-6f" x="307.03125"/>
      <use xlink:href="#DejaVuSans-63" x="368.212891"/>
      <use xlink:href="#DejaVuSans-20" x="423.193359"/>
      <use xlink:href="#DejaVuSans-77" x="454.980469"/>
      <use xlink:href="#DejaVuSans-20" x="536.767578"/>
      <use xlink:href="#DejaVuSans-52" x="568.554688"/>
     </g>
    </g>
    <g id="line2d_19">
     <path d="M 329.042969 144.143844 
L 336.042969 144.143844 
L 336.042969 144.143844 
L 343.042969 144.143844 
L 343.042969 144.143844 
" style="fill: none; stroke: #de8f05; stroke-width: 1.5; stroke-linecap: square"/>
    </g>
    <g id="text_14">
     <!-- 2) Assoc w R - Interim -->
     <g transform="translate(348.642969 146.593844) scale(0.07 -0.07)">
      <defs>
       <path id="DejaVuSans-2d" d="M 313 2009 
L 1997 2009 
L 1997 1497 
L 313 1497 
L 313 2009 
z
" transform="scale(0.015625)"/>
      </defs>
      <use xlink:href="#DejaVuSans-32"/>
      <use xlink:href="#DejaVuSans-29" x="63.623047"/>
      <use xlink:href="#DejaVuSans-20" x="102.636719"/>
      <use xlink:href="#DejaVuSans-41" x="134.423828"/>
      <use xlink:href="#DejaVuSans-73" x="202.832031"/>
      <use xlink:href="#DejaVuSans-73" x="254.931641"/>
      <use xlink:href="#DejaVuSans-6f" x="307.03125"/>
      <use xlink:href="#DejaVuSans-63" x="368.212891"/>
      <use xlink:href="#DejaVuSans-20" x="423.193359"/>
      <use xlink:href="#DejaVuSans-77" x="454.980469"/>
      <use xlink:href="#DejaVuSans-20" x="536.767578"/>
      <use xlink:href="#DejaVuSans-52" x="568.554688"/>
      <use xlink:href="#DejaVuSans-20" x="638.037109"/>
      <use xlink:href="#DejaVuSans-2d" x="669.824219"/>
      <use xlink:href="#DejaVuSans-20" x="705.908203"/>
      <use xlink:href="#DejaVuSans-49" x="737.695312"/>
      <use xlink:href="#DejaVuSans-6e" x="767.1875"/>
      <use xlink:href="#DejaVuSans-74" x="830.566406"/>
      <use xlink:href="#DejaVuSans-65" x="869.775391"/>
      <use xlink:href="#DejaVuSans-72" x="931.298828"/>
      <use xlink:href="#DejaVuSans-69" x="972.412109"/>
      <use xlink:href="#DejaVuSans-6d" x="1000.195312"/>
     </g>
    </g>
    <g id="line2d_20">
     <path d="M 329.042969 154.418531 
L 336.042969 154.418531 
L 336.042969 154.418531 
L 343.042969 154.418531 
L 343.042969 154.418531 
" style="fill: none; stroke: #029e73; stroke-width: 1.5; stroke-linecap: square"/>
    </g>
    <g id="text_15">
     <!-- 3) Uncertain significance -->
     <g transform="translate(348.642969 156.868531) scale(0.07 -0.07)">
      <defs>
       <path id="DejaVuSans-55" d="M 556 4666 
L 1191 4666 
L 1191 1831 
Q 1191 1081 1462 751 
Q 1734 422 2344 422 
Q 2950 422 3222 751 
Q 3494 1081 3494 1831 
L 3494 4666 
L 4128 4666 
L 4128 1753 
Q 4128 841 3676 375 
Q 3225 -91 2344 -91 
Q 1459 -91 1007 375 
Q 556 841 556 1753 
L 556 4666 
z
" transform="scale(0.015625)"/>
      </defs>
      <use xlink:href="#DejaVuSans-33"/>
      <use xlink:href="#DejaVuSans-29" x="63.623047"/>
      <use xlink:href="#DejaVuSans-20" x="102.636719"/>
      <use xlink:href="#DejaVuSans-55" x="134.423828"/>
      <use xlink:href="#DejaVuSans-6e" x="207.617188"/>
      <use xlink:href="#DejaVuSans-63" x="270.996094"/>
      <use xlink:href="#DejaVuSans-65" x="325.976562"/>
      <use xlink:href="#DejaVuSans-72" x="387.5"/>
      <use xlink:href="#DejaVuSans-74" x="428.613281"/>
      <use xlink:href="#DejaVuSans-61" x="467.822266"/>
      <use xlink:href="#DejaVuSans-69" x="529.101562"/>
      <use xlink:href="#DejaVuSans-6e" x="556.884766"/>
      <use xlink:href="#DejaVuSans-20" x="620.263672"/>
      <use xlink:href="#DejaVuSans-73" x="652.050781"/>
      <use xlink:href="#DejaVuSans-69" x="704.150391"/>
      <use xlink:href="#DejaVuSans-67" x="731.933594"/>
      <use xlink:href="#DejaVuSans-6e" x="795.410156"/>
      <use xlink:href="#DejaVuSans-69" x="858.789062"/>
      <use xlink:href="#DejaVuSans-66" x="886.572266"/>
      <use xlink:href="#DejaVuSans-69" x="921.777344"/>
      <use xlink:href="#DejaVuSans-63" x="949.560547"/>
      <use xlink:href="#DejaVuSans-61" x="1004.541016"/>
      <use xlink:href="#DejaVuSans-6e" x="1065.820312"/>
      <use xlink:href="#DejaVuSans-63" x="1129.199219"/>
      <use xlink:href="#DejaVuSans-65" x="1184.179688"/>
     </g>
    </g>
    <g id="line2d_21">
     <path d="M 329.042969 164.693219 
L 336.042969 164.693219 
L 336.042969 164.693219 
L 343.042969 164.693219 
L 343.042969 164.693219 
" style="fill: none; stroke: #d55e00; stroke-width: 1.5; stroke-linecap: square"/>
    </g>
    <g id="text_16">
     <!-- 4) Not assoc w R - Interim -->
     <g transform="translate(348.642969 167.143219) scale(0.07 -0.07)">
      <defs>
       <path id="DejaVuSans-4e" d="M 628 4666 
L 1478 4666 
L 3547 763 
L 3547 4666 
L 4159 4666 
L 4159 0 
L 3309 0 
L 1241 3903 
L 1241 0 
L 628 0 
L 628 4666 
z
" transform="scale(0.015625)"/>
      </defs>
      <use xlink:href="#DejaVuSans-34"/>
      <use xlink:href="#DejaVuSans-29" x="63.623047"/>
      <use xlink:href="#DejaVuSans-20" x="102.636719"/>
      <use xlink:href="#DejaVuSans-4e" x="134.423828"/>
      <use xlink:href="#DejaVuSans-6f" x="209.228516"/>
      <use xlink:href="#DejaVuSans-74" x="270.410156"/>
      <use xlink:href="#DejaVuSans-20" x="309.619141"/>
      <use xlink:href="#DejaVuSans-61" x="341.40625"/>
      <use xlink:href="#DejaVuSans-73" x="402.685547"/>
      <use xlink:href="#DejaVuSans-73" x="454.785156"/>
      <use xlink:href="#DejaVuSans-6f" x="506.884766"/>
      <use xlink:href="#DejaVuSans-63" x="568.066406"/>
      <use xlink:href="#DejaVuSans-20" x="623.046875"/>
      <use xlink:href="#DejaVuSans-77" x="654.833984"/>
      <use xlink:href="#DejaVuSans-20" x="736.621094"/>
      <use xlink:href="#DejaVuSans-52" x="768.408203"/>
      <use xlink:href="#DejaVuSans-20" x="837.890625"/>
      <use xlink:href="#DejaVuSans-2d" x="869.677734"/>
      <use xlink:href="#DejaVuSans-20" x="905.761719"/>
      <use xlink:href="#DejaVuSans-49" x="937.548828"/>
      <use xlink:href="#DejaVuSans-6e" x="967.041016"/>
      <use xlink:href="#DejaVuSans-74" x="1030.419922"/>
      <use xlink:href="#DejaVuSans-65" x="1069.628906"/>
      <use xlink:href="#DejaVuSans-72" x="1131.152344"/>
      <use xlink:href="#DejaVuSans-69" x="1172.265625"/>
      <use xlink:href="#DejaVuSans-6d" x="1200.048828"/>
     </g>
    </g>
    <g id="line2d_22">
     <path d="M 329.042969 174.967906 
L 336.042969 174.967906 
L 336.042969 174.967906 
L 343.042969 174.967906 
L 343.042969 174.967906 
" style="fill: none; stroke: #cc78bc; stroke-width: 1.5; stroke-linecap: square"/>
    </g>
    <g id="text_17">
     <!-- 5) Not assoc w R -->
     <g transform="translate(348.642969 177.417906) scale(0.07 -0.07)">
      <use xlink:href="#DejaVuSans-35"/>
      <use xlink:href="#DejaVuSans-29" x="63.623047"/>
      <use xlink:href="#DejaVuSans-20" x="102.636719"/>
      <use xlink:href="#DejaVuSans-4e" x="134.423828"/>
      <use xlink:href="#DejaVuSans-6f" x="209.228516"/>
      <use xlink:href="#DejaVuSans-74" x="270.410156"/>
      <use xlink:href="#DejaVuSans-20" x="309.619141"/>
      <use xlink:href="#DejaVuSans-61" x="341.40625"/>
      <use xlink:href="#DejaVuSans-73" x="402.685547"/>
      <use xlink:href="#DejaVuSans-73" x="454.785156"/>
      <use xlink:href="#DejaVuSans-6f" x="506.884766"/>
      <use xlink:href="#DejaVuSans-63" x="568.066406"/>
      <use xlink:href="#DejaVuSans-20" x="623.046875"/>
      <use xlink:href="#DejaVuSans-77" x="654.833984"/>
      <use xlink:href="#DejaVuSans-20" x="736.621094"/>
      <use xlink:href="#DejaVuSans-52" x="768.408203"/>
     </g>
    </g>
   </g>
  </g>
 </g>
 <defs>
  <clipPath id="p7960e96bb8">
   <rect x="41.2125" y="35.99625" width="279" height="221.76"/>
  </clipPath>
 </defs>
</svg>
